<?xml version="1.0" encoding="iso-8859-1"?>
<!-- Generator: Adobe Illustrator 19.0.0, SVG Export Plug-In . SVG Version: 6.00 Build 0)  -->
<svg version="1.1" id="Layer_1" xmlns="http://www.w3.org/2000/svg" xmlns:xlink="http://www.w3.org/1999/xlink" x="0px" y="0px"
	 viewBox="0 0 512.001 512.001" style="enable-background:new 0 0 512.001 512.001;" xml:space="preserve">
<g>
	<path style="fill:#556080;" d="M8.828,264.828C8.828,401.337,119.491,512,256,512s247.172-110.663,247.172-247.172H8.828z"/>
	<path style="fill:#FDD7AD;" d="M300.138,44.138c0,24.382-19.756,44.138-44.138,44.138c-24.382,0-44.138-19.756-44.138-44.138
		S231.619,0,256,0C280.382,0,300.138,19.756,300.138,44.138"/>
	<path style="fill:#4482C3;" d="M308.966,229.517H203.035v-52.966c0-29.246,23.72-52.966,52.965-52.966s52.966,23.72,52.966,52.966
		V229.517z"/>
	<path style="fill:#FDD7AD;" d="M494.345,44.138c0,24.382-19.756,44.138-44.138,44.138s-44.138-19.756-44.138-44.138
		S425.826,0,450.207,0S494.345,19.756,494.345,44.138"/>
	<path style="fill:#4482C3;" d="M503.173,229.517H397.242v-52.966c0-29.246,23.72-52.966,52.966-52.966s52.966,23.72,52.966,52.966
		V229.517z"/>
	<path style="fill:#FDD7AD;" d="M114.759,44.138c0,24.382-19.756,44.138-44.138,44.138S26.483,68.52,26.483,44.138
		S46.239,0,70.621,0S114.759,19.756,114.759,44.138"/>
	<path style="fill:#4482C3;" d="M123.587,229.517H17.656v-52.966c0-29.246,23.72-52.966,52.966-52.966s52.966,23.72,52.966,52.966
		V229.517z"/>
	<g>
		<path style="fill:#8697CB;" d="M441.087,428.569c-0.318-0.283-0.53-0.653-0.892-0.909
			c-54.404-37.217-118.095-56.903-184.196-56.903c-66.092,0-129.792,19.686-184.196,56.903c-0.362,0.256-0.565,0.627-0.892,0.909
			c3.919,4.423,7.98,8.695,12.182,12.826c51.174-34.639,110.91-52.983,172.906-52.983c62.005,0,121.732,18.344,172.906,52.983
			C433.115,437.264,437.176,432.991,441.087,428.569"/>
		<path style="fill:#8697CB;" d="M259.276,505.138c-2.154,1.739-3.143,4.29-3.143,6.859c7.954-0.009,15.819-0.415,23.578-1.156
			c69.191-60.716,108.703-149.619,108.703-246.016H370.76C370.76,360.163,330.118,447.759,259.276,505.138"/>
		<path style="fill:#8697CB;" d="M232.285,510.844c7.768,0.742,15.634,1.148,23.587,1.156c0-2.569-0.989-5.12-3.151-6.859
			c-70.841-57.379-111.475-144.975-111.475-240.313h-17.655C123.591,361.226,163.095,450.12,232.285,510.844"/>
		<path style="fill:#8697CB;" d="M256,512c2.957,0,5.897-0.124,8.828-0.221V264.828h-17.655v246.952
			C250.104,511.876,253.043,512,256,512"/>
	</g>
</g>
<g>
</g>
<g>
</g>
<g>
</g>
<g>
</g>
<g>
</g>
<g>
</g>
<g>
</g>
<g>
</g>
<g>
</g>
<g>
</g>
<g>
</g>
<g>
</g>
<g>
</g>
<g>
</g>
<g>
</g>
</svg>
