<svg id="svg" version="1.1" xmlns="http://www.w3.org/2000/svg" xmlns:xlink="http://www.w3.org/1999/xlink" width="400" height="400" viewBox="0, 0, 400,400"><g id="svgg"><path id="path0" d="M139.202 73.048 C 130.288 76.263,125.039 89.431,126.783 104.200 C 127.811 112.899,128.074 112.982,142.200 109.079 C 144.180 108.532,149.040 107.239,153.000 106.206 C 168.317 102.209,168.357 102.181,166.832 96.623 C 162.430 80.579,149.325 69.397,139.202 73.048 M298.298 75.609 C 294.830 76.485,288.620 80.467,286.316 83.294 C 281.780 88.859,276.800 97.580,276.800 99.958 C 276.800 100.469,279.338 103.579,283.430 108.081 C 289.675 114.952,294.807 121.500,300.800 130.245 C 302.230 132.332,305.141 136.595,307.270 139.719 C 313.277 148.538,313.488 148.800,314.575 148.800 C 317.742 148.800,323.176 133.026,324.441 120.156 C 327.151 92.611,314.738 71.460,298.298 75.609 M186.923 85.198 C 176.547 86.696,175.155 87.554,176.219 91.791 C 176.497 92.896,177.188 95.600,177.756 97.800 C 179.468 104.433,180.080 109.568,180.191 118.232 C 180.328 129.017,180.099 128.737,189.953 130.200 C 210.405 133.237,232.914 143.741,248.170 157.368 C 259.107 167.139,271.014 184.778,275.190 197.400 C 277.300 203.779,276.489 203.941,266.200 199.191 C 258.729 195.741,254.639 194.163,241.800 189.776 C 223.374 183.480,199.693 178.365,177.200 175.825 C 152.759 173.064,121.659 174.554,97.600 179.638 C 95.510 180.080,92.360 180.725,90.600 181.073 C 78.048 183.550,55.549 190.433,53.338 192.473 C 52.865 192.910,51.906 194.917,51.208 196.934 C 50.510 198.950,49.337 202.040,48.601 203.800 C 45.810 210.478,45.097 212.346,43.413 217.400 C 38.328 232.657,35.139 244.286,34.025 251.635 C 33.774 253.289,33.308 255.623,32.989 256.821 C 32.335 259.279,32.249 261.143,32.753 261.938 C 33.179 262.610,35.394 262.249,54.200 258.444 C 61.680 256.931,68.700 255.574,69.800 255.429 C 70.900 255.284,73.150 254.920,74.800 254.619 C 76.450 254.318,79.960 253.859,82.600 253.599 C 85.240 253.339,89.110 252.777,91.200 252.351 C 93.290 251.924,98.330 251.304,102.400 250.973 C 106.470 250.643,112.140 250.153,115.000 249.886 C 122.246 249.209,164.563 249.221,170.800 249.902 C 173.330 250.178,178.138 250.667,181.485 250.987 C 184.831 251.308,188.648 251.850,189.966 252.191 C 191.284 252.533,194.666 253.166,197.481 253.598 C 204.241 254.637,208.511 255.569,216.869 257.834 C 220.681 258.867,225.690 260.222,228.000 260.845 C 230.310 261.469,232.830 262.256,233.600 262.595 C 234.370 262.935,236.170 263.552,237.600 263.966 C 239.030 264.381,243.350 265.833,247.200 267.193 C 266.346 273.955,275.647 276.908,283.305 278.654 C 285.777 279.218,288.610 279.881,289.600 280.128 C 293.351 281.063,324.366 280.736,329.000 279.713 C 331.200 279.227,334.440 278.624,336.200 278.373 C 340.070 277.821,345.381 275.950,346.779 274.646 C 347.396 274.071,348.534 273.589,349.654 273.429 C 352.261 273.057,353.639 271.594,351.362 271.614 C 350.503 271.622,349.350 271.886,348.800 272.200 C 346.769 273.361,344.962 271.983,342.696 267.545 C 335.750 253.942,340.461 234.554,352.725 226.263 C 354.848 224.829,357.169 224.086,357.974 224.584 C 360.084 225.888,357.119 220.545,353.543 216.600 C 351.748 214.620,349.312 211.740,348.131 210.200 C 346.949 208.660,344.988 206.230,343.773 204.800 C 342.559 203.370,340.898 201.274,340.082 200.142 C 339.267 199.010,336.599 195.500,334.154 192.342 C 331.709 189.184,329.189 185.783,328.554 184.785 C 327.919 183.787,326.749 182.167,325.953 181.185 C 324.395 179.262,309.380 157.279,307.400 154.023 C 302.628 146.173,289.128 127.256,282.488 119.114 C 259.649 91.113,226.769 79.444,186.923 85.198 M113.545 117.069 C 103.744 123.784,86.665 140.563,87.785 142.377 C 88.226 143.090,90.090 142.843,92.400 141.766 C 97.328 139.468,105.285 136.751,115.200 133.979 C 123.657 131.615,123.777 131.316,120.214 121.507 C 117.841 114.972,117.215 114.555,113.545 117.069 M238.369 167.310 C 229.924 173.001,235.418 187.230,245.256 185.146 C 252.939 183.518,255.372 170.400,247.990 170.400 C 246.519 170.400,246.106 170.170,244.400 168.400 C 242.153 166.068,240.621 165.791,238.369 167.310 M366.000 232.908 C 366.000 233.242,366.270 233.618,366.600 233.745 C 366.930 233.871,367.200 233.823,367.200 233.636 C 367.200 233.450,366.930 233.074,366.600 232.800 C 366.112 232.395,366.000 232.415,366.000 232.908 M365.557 261.700 C 365.229 261.975,364.723 262.515,364.431 262.900 C 363.651 263.931,364.788 263.843,365.925 262.784 C 367.275 261.526,366.940 260.540,365.557 261.700 " stroke="none" fill="#dde6fa" fill-rule="evenodd"></path><path id="path1" d="M171.400 0.822 C 170.193 1.393,168.868 1.584,166.000 1.598 C 162.965 1.614,161.838 1.791,160.400 2.477 C 159.255 3.024,157.399 3.430,155.302 3.592 C 152.812 3.784,151.713 4.062,150.818 4.723 C 149.947 5.368,149.067 5.600,147.501 5.600 C 146.094 5.600,144.830 5.888,143.785 6.448 C 142.913 6.914,141.225 7.443,140.033 7.623 C 138.840 7.802,137.400 8.292,136.833 8.712 C 136.265 9.131,134.926 9.573,133.858 9.693 C 132.790 9.813,131.403 10.291,130.775 10.756 C 130.146 11.220,129.213 11.600,128.701 11.600 C 128.188 11.600,127.056 11.974,126.185 12.431 C 125.313 12.888,123.767 13.519,122.748 13.832 C 121.729 14.146,120.672 14.672,120.399 15.001 C 120.126 15.331,119.499 15.600,119.007 15.600 C 118.514 15.600,117.476 16.031,116.699 16.559 C 115.922 17.086,114.745 17.636,114.084 17.781 C 113.424 17.927,112.566 18.395,112.179 18.823 C 111.793 19.250,111.068 19.600,110.569 19.600 C 110.070 19.600,109.153 20.023,108.531 20.539 C 107.909 21.056,106.860 21.609,106.200 21.769 C 105.540 21.929,104.640 22.385,104.200 22.784 C 103.760 23.182,102.950 23.639,102.400 23.800 C 101.850 23.961,101.040 24.411,100.600 24.800 C 100.160 25.189,99.350 25.643,98.800 25.809 C 98.250 25.974,97.291 26.535,96.669 27.055 C 96.047 27.575,95.304 28.000,95.018 28.000 C 94.732 28.000,94.251 28.298,93.949 28.662 C 93.647 29.026,92.860 29.570,92.200 29.871 C 91.540 30.171,90.190 31.044,89.200 31.809 C 88.210 32.574,86.950 33.420,86.400 33.687 C 85.850 33.955,84.500 34.920,83.400 35.831 C 82.300 36.742,80.917 37.738,80.327 38.044 C 78.593 38.943,67.798 47.879,63.467 52.000 C 57.396 57.778,48.000 67.544,48.000 68.077 C 48.000 68.337,44.483 72.607,42.637 74.588 C 41.574 75.728,40.743 76.851,38.927 79.600 C 38.128 80.810,37.231 81.945,36.934 82.121 C 36.450 82.410,35.843 83.381,34.040 86.752 C 33.731 87.329,33.220 87.953,32.902 88.141 C 32.585 88.328,32.062 89.048,31.741 89.741 C 30.965 91.412,29.527 93.771,28.734 94.673 C 28.382 95.073,27.962 95.850,27.800 96.400 C 27.638 96.950,27.240 97.703,26.916 98.072 C 26.227 98.858,25.194 100.672,23.996 103.200 C 23.527 104.190,22.907 105.270,22.619 105.600 C 22.330 105.930,21.959 106.650,21.792 107.200 C 21.626 107.750,21.159 108.623,20.755 109.141 C 20.352 109.658,19.907 110.686,19.769 111.426 C 19.630 112.166,19.263 112.981,18.954 113.238 C 18.645 113.495,18.115 114.656,17.777 115.819 C 17.439 116.982,16.906 118.146,16.592 118.407 C 16.278 118.667,15.898 119.537,15.748 120.340 C 15.598 121.143,15.144 122.250,14.741 122.800 C 14.337 123.350,13.847 124.661,13.652 125.714 C 13.457 126.767,12.991 127.968,12.615 128.383 C 12.239 128.798,11.828 129.917,11.701 130.869 C 11.573 131.821,11.049 133.392,10.535 134.360 C 10.021 135.327,9.600 136.713,9.600 137.438 C 9.600 138.164,9.150 139.604,8.600 140.638 C 7.980 141.804,7.600 143.173,7.600 144.238 C 7.600 145.304,7.220 146.673,6.600 147.838 C 5.830 149.287,5.600 150.314,5.600 152.312 C 5.600 154.280,5.389 155.246,4.726 156.319 C 4.013 157.473,3.807 158.584,3.604 162.367 C 3.420 165.814,3.161 167.358,2.593 168.400 C 0.815 171.664,0.835 220.777,2.616 224.000 C 3.197 225.051,3.442 226.497,3.602 229.800 C 3.765 233.182,4.015 234.616,4.683 236.000 C 5.242 237.160,5.613 238.843,5.725 240.733 C 5.853 242.903,6.119 243.964,6.749 244.816 C 7.341 245.617,7.600 246.556,7.600 247.899 C 7.600 249.102,7.920 250.428,8.448 251.415 C 8.914 252.287,9.443 253.975,9.623 255.167 C 9.802 256.360,10.292 257.800,10.710 258.367 C 11.129 258.935,11.575 260.179,11.702 261.131 C 11.828 262.083,12.244 263.207,12.625 263.628 C 13.007 264.049,13.465 265.322,13.644 266.455 C 13.826 267.603,14.332 268.901,14.785 269.384 C 15.233 269.861,15.600 270.674,15.600 271.191 C 15.600 271.707,16.025 272.866,16.543 273.765 C 17.062 274.664,17.614 275.929,17.770 276.576 C 17.926 277.222,18.376 278.212,18.771 278.776 C 19.166 279.339,19.719 280.520,20.001 281.400 C 20.283 282.280,20.733 283.130,21.002 283.289 C 21.270 283.448,21.718 284.393,21.997 285.389 C 22.276 286.385,22.652 287.200,22.833 287.200 C 23.014 287.200,23.537 287.965,23.995 288.900 C 25.639 292.254,26.491 293.810,27.010 294.400 C 27.300 294.730,27.656 295.475,27.801 296.056 C 27.946 296.637,28.500 297.491,29.032 297.953 C 29.565 298.416,30.000 299.002,30.000 299.256 C 30.000 299.510,30.675 300.695,31.500 301.890 C 32.325 303.086,33.360 304.652,33.800 305.371 C 35.187 307.636,36.121 308.974,36.895 309.800 C 37.306 310.240,38.244 311.553,38.977 312.718 C 39.711 313.883,41.042 315.683,41.935 316.718 C 42.828 317.753,44.189 319.410,44.959 320.400 C 48.958 325.536,50.973 327.751,58.419 335.188 C 65.464 342.224,68.539 345.067,71.198 347.000 C 73.078 348.367,74.243 349.332,76.800 351.637 C 77.790 352.530,79.140 353.542,79.800 353.887 C 80.857 354.438,82.095 355.328,83.955 356.873 C 85.189 357.898,89.127 360.400,89.508 360.400 C 89.731 360.400,90.019 360.672,90.146 361.003 C 90.273 361.335,90.878 361.820,91.489 362.081 C 92.100 362.341,92.903 362.807,93.272 363.114 C 93.957 363.684,95.487 364.574,98.000 365.864 C 98.770 366.259,99.909 366.991,100.531 367.491 C 101.153 367.991,101.937 368.400,102.273 368.400 C 102.609 368.400,103.419 368.850,104.073 369.400 C 104.727 369.950,105.627 370.400,106.073 370.400 C 106.519 370.400,107.419 370.850,108.073 371.400 C 108.727 371.950,109.627 372.400,110.073 372.400 C 110.519 372.400,111.419 372.850,112.073 373.400 C 112.727 373.950,113.600 374.400,114.013 374.400 C 114.426 374.400,115.428 374.850,116.238 375.400 C 117.049 375.950,118.102 376.400,118.578 376.400 C 119.055 376.400,120.055 376.850,120.800 377.400 C 121.545 377.950,122.471 378.400,122.857 378.400 C 123.242 378.400,124.404 378.850,125.438 379.400 C 126.473 379.950,127.808 380.400,128.406 380.400 C 129.003 380.400,129.970 380.776,130.554 381.236 C 131.141 381.697,132.572 382.201,133.750 382.361 C 134.970 382.526,136.360 383.025,136.996 383.525 C 137.718 384.094,138.668 384.400,139.707 384.400 C 140.637 384.400,141.879 384.754,142.676 385.247 C 143.530 385.775,145.185 386.221,147.076 386.433 C 148.929 386.641,150.392 387.031,150.840 387.436 C 151.327 387.877,152.813 388.223,155.278 388.471 C 157.623 388.706,159.236 389.071,159.672 389.465 C 160.160 389.907,161.841 390.199,165.480 390.475 C 168.974 390.739,170.918 391.068,171.600 391.511 C 174.287 393.253,225.835 393.248,228.494 391.506 C 229.195 391.047,230.866 390.770,234.048 390.584 C 237.323 390.393,239.029 390.104,240.129 389.551 C 240.984 389.121,243.150 388.632,245.044 388.440 C 247.225 388.219,248.689 387.862,249.157 387.439 C 249.609 387.030,250.927 386.691,252.642 386.543 C 254.467 386.386,255.966 385.983,257.071 385.353 C 258.007 384.820,259.416 384.395,260.271 384.388 C 261.178 384.380,262.451 383.974,263.400 383.390 C 264.310 382.829,265.613 382.403,266.422 382.402 C 267.309 382.401,268.355 382.023,269.200 381.400 C 269.945 380.850,271.090 380.400,271.743 380.400 C 272.395 380.400,273.666 379.976,274.565 379.458 C 275.464 378.939,276.821 378.397,277.581 378.252 C 278.340 378.106,279.330 377.655,279.781 377.248 C 280.231 376.840,281.200 376.395,281.932 376.257 C 282.665 376.120,283.725 375.645,284.286 375.204 C 284.848 374.762,285.609 374.400,285.976 374.400 C 286.344 374.400,287.255 373.950,288.000 373.400 C 288.745 372.850,289.645 372.400,290.000 372.400 C 290.355 372.400,291.255 371.950,292.000 371.400 C 292.745 370.850,293.645 370.400,294.000 370.400 C 294.355 370.400,295.255 369.950,296.000 369.400 C 296.745 368.850,297.577 368.400,297.847 368.400 C 298.117 368.400,298.860 367.962,299.496 367.426 C 300.133 366.890,301.129 366.333,301.710 366.187 C 302.292 366.041,302.992 365.650,303.267 365.319 C 303.542 364.988,304.154 364.570,304.626 364.390 C 306.055 363.847,310.000 361.202,310.000 360.788 C 310.000 360.574,310.231 360.400,310.513 360.400 C 311.085 360.400,314.898 358.026,315.935 357.024 C 317.139 355.861,319.703 354.000,320.101 354.000 C 320.497 354.000,324.881 350.436,326.020 349.189 C 326.361 348.815,327.126 348.255,327.720 347.944 C 330.221 346.633,349.237 328.096,352.600 323.690 C 353.480 322.537,355.955 319.426,358.100 316.776 C 360.245 314.126,362.000 311.807,362.000 311.622 C 362.000 311.438,362.732 310.413,363.626 309.344 C 364.521 308.275,365.533 306.860,365.876 306.200 C 366.950 304.133,368.921 301.200,369.236 301.200 C 369.402 301.200,369.757 300.525,370.026 299.700 C 370.294 298.875,370.752 298.059,371.043 297.888 C 371.335 297.716,371.949 296.816,372.407 295.888 C 373.296 294.086,374.112 292.647,375.520 290.400 C 376.002 289.630,376.398 288.704,376.399 288.343 C 376.399 287.981,376.652 287.589,376.960 287.471 C 377.268 287.353,377.744 286.568,378.018 285.728 C 378.292 284.888,378.838 283.787,379.231 283.281 C 379.623 282.776,380.068 281.786,380.219 281.081 C 380.370 280.377,380.810 279.499,381.196 279.131 C 381.583 278.764,382.021 277.813,382.170 277.019 C 382.319 276.225,382.882 274.926,383.420 274.132 C 383.959 273.338,384.400 272.180,384.400 271.560 C 384.400 270.939,384.767 270.089,385.216 269.671 C 385.665 269.253,386.141 268.211,386.275 267.355 C 386.408 266.500,386.869 265.297,387.299 264.681 C 387.729 264.066,388.182 262.806,388.306 261.881 C 388.430 260.957,388.951 259.408,389.465 258.440 C 389.979 257.473,390.400 256.092,390.400 255.373 C 390.400 254.654,390.828 253.196,391.350 252.133 C 391.873 251.070,392.400 249.165,392.521 247.900 C 392.643 246.636,393.014 245.328,393.347 244.996 C 393.680 244.663,394.053 243.583,394.176 242.595 C 394.299 241.608,394.501 239.987,394.626 238.993 C 394.750 237.999,395.178 236.424,395.578 235.493 C 396.030 234.438,396.397 232.279,396.550 229.766 C 396.706 227.205,397.044 225.234,397.478 224.366 C 399.276 220.764,399.279 171.572,397.481 168.021 C 397.013 167.098,396.705 165.248,396.549 162.421 C 396.385 159.468,396.080 157.696,395.533 156.522 C 395.102 155.600,394.607 153.440,394.433 151.722 C 394.239 149.818,393.781 147.978,393.258 147.006 C 392.760 146.081,392.400 144.688,392.400 143.688 C 392.400 142.616,392.021 141.252,391.400 140.085 C 390.850 139.052,390.400 137.647,390.400 136.963 C 390.400 136.279,389.950 134.873,389.400 133.838 C 388.850 132.804,388.400 131.493,388.400 130.926 C 388.400 130.359,388.013 129.268,387.540 128.503 C 387.067 127.738,386.530 126.309,386.347 125.328 C 386.164 124.346,385.651 123.082,385.207 122.518 C 384.763 121.954,384.399 121.111,384.399 120.646 C 384.398 120.181,384.016 119.175,383.551 118.412 C 383.085 117.648,382.455 116.185,382.151 115.160 C 381.847 114.135,381.347 113.088,381.041 112.834 C 380.734 112.579,380.371 111.773,380.234 111.041 C 380.097 110.309,379.646 109.403,379.232 109.029 C 378.818 108.654,378.367 107.748,378.229 107.014 C 378.091 106.281,377.711 105.459,377.385 105.187 C 377.058 104.916,376.426 103.953,375.981 103.047 C 374.367 99.762,373.507 98.188,373.006 97.600 C 372.725 97.270,372.358 96.550,372.190 96.000 C 372.022 95.450,371.551 94.765,371.143 94.477 C 370.734 94.190,370.400 93.731,370.400 93.457 C 370.400 92.750,367.257 88.000,366.789 88.000 C 366.575 88.000,366.400 87.769,366.400 87.487 C 366.400 86.881,363.823 82.779,363.079 82.200 C 362.796 81.980,361.916 80.755,361.123 79.477 C 359.901 77.509,357.346 74.311,355.265 72.144 C 354.971 71.838,354.036 70.645,353.189 69.494 C 349.438 64.400,335.718 50.551,330.211 46.301 C 326.954 43.787,325.757 42.810,321.389 39.100 C 320.677 38.495,319.908 38.000,319.680 38.000 C 319.453 38.000,318.091 37.055,316.655 35.900 C 315.218 34.745,313.289 33.350,312.368 32.800 C 311.446 32.250,310.096 31.350,309.366 30.800 C 308.637 30.250,307.283 29.350,306.357 28.800 C 305.432 28.250,304.091 27.413,303.378 26.940 C 302.666 26.467,301.659 25.947,301.141 25.785 C 300.624 25.623,299.691 25.065,299.069 24.545 C 298.447 24.025,297.663 23.600,297.327 23.600 C 296.991 23.600,296.181 23.150,295.527 22.600 C 294.873 22.050,293.973 21.600,293.527 21.600 C 293.081 21.600,292.181 21.150,291.527 20.600 C 290.873 20.050,289.973 19.600,289.527 19.600 C 289.081 19.600,288.181 19.150,287.527 18.600 C 286.873 18.050,285.930 17.600,285.431 17.600 C 284.932 17.600,284.196 17.237,283.795 16.794 C 283.393 16.351,282.384 15.879,281.551 15.746 C 280.718 15.613,279.734 15.169,279.363 14.760 C 278.993 14.350,278.041 13.894,277.248 13.745 C 276.455 13.596,275.013 13.053,274.044 12.537 C 273.074 12.022,271.850 11.600,271.324 11.600 C 270.798 11.600,269.854 11.220,269.225 10.756 C 268.597 10.291,267.210 9.813,266.142 9.693 C 265.074 9.573,263.735 9.131,263.167 8.712 C 262.600 8.292,261.160 7.802,259.967 7.623 C 258.775 7.443,257.087 6.914,256.215 6.448 C 255.170 5.888,253.906 5.600,252.499 5.600 C 250.933 5.600,250.053 5.368,249.182 4.723 C 248.271 4.050,247.227 3.795,244.680 3.623 C 242.360 3.467,241.008 3.166,240.182 2.623 C 239.247 2.008,237.997 1.795,234.200 1.603 C 230.836 1.432,229.017 1.156,228.120 0.680 C 226.044 -0.422,173.753 -0.291,171.400 0.822 M145.600 54.195 C 155.086 56.240,164.253 64.935,171.412 78.678 C 174.778 85.139,174.604 84.937,176.584 84.655 C 177.473 84.528,180.090 84.148,182.400 83.809 C 184.710 83.471,188.670 82.927,191.200 82.600 C 197.292 81.814,211.094 81.818,217.400 82.608 C 220.040 82.939,223.806 83.392,225.768 83.616 C 246.663 86.000,271.842 100.975,284.588 118.600 C 285.861 120.360,287.403 122.340,288.016 123.000 C 290.140 125.286,301.098 141.007,313.249 159.200 C 324.634 176.245,326.034 178.261,332.419 186.800 C 342.445 200.208,349.832 209.570,354.084 214.257 C 355.709 216.049,358.108 218.839,359.415 220.457 C 360.721 222.076,363.574 225.290,365.753 227.600 C 379.948 242.641,377.687 259.420,359.854 271.379 C 354.786 274.776,343.298 279.201,336.891 280.221 C 334.751 280.562,331.871 281.101,330.490 281.417 C 325.273 282.614,304.445 283.157,294.223 282.363 C 286.196 281.740,273.819 278.623,260.800 273.946 C 259.590 273.511,256.620 272.517,254.200 271.736 C 251.780 270.955,247.190 269.362,244.000 268.196 C 234.748 264.814,223.119 261.244,216.000 259.599 C 212.931 258.890,208.134 257.726,202.800 256.397 C 201.150 255.986,197.640 255.360,195.000 255.006 C 192.360 254.653,189.570 254.180,188.800 253.957 C 187.372 253.543,177.781 252.474,167.000 251.527 C 159.141 250.837,127.670 250.818,119.200 251.498 C 115.790 251.772,109.400 252.277,105.000 252.620 C 100.600 252.963,95.740 253.515,94.200 253.846 C 92.660 254.177,88.160 254.781,84.200 255.190 C 80.240 255.598,76.468 256.137,75.817 256.388 C 75.167 256.638,73.187 257.019,71.417 257.234 C 68.242 257.619,59.972 259.179,51.400 261.010 C 48.980 261.526,46.100 262.074,45.000 262.227 C 43.900 262.380,40.766 263.004,38.035 263.615 C 32.994 264.742,32.346 264.748,31.100 263.677 C 30.223 262.924,30.172 260.154,30.972 256.682 C 32.297 250.926,33.572 244.879,33.813 243.200 C 33.955 242.210,34.496 239.960,35.014 238.200 C 35.532 236.440,36.789 232.120,37.806 228.600 C 39.793 221.723,41.971 215.437,46.158 204.495 C 50.260 193.774,49.792 192.997,41.636 197.000 C 32.263 201.600,31.905 198.843,40.152 185.600 C 48.305 172.508,61.175 159.499,73.800 151.589 C 79.544 147.990,80.455 147.186,83.684 142.872 C 89.242 135.445,100.588 124.550,111.540 116.122 C 116.942 111.964,117.169 111.462,116.126 106.000 C 111.651 82.576,121.191 57.936,136.200 54.155 C 140.049 53.186,140.934 53.189,145.600 54.195 M310.073 74.725 C 327.917 83.335,332.323 120.333,318.722 147.348 C 315.613 153.524,313.458 153.091,308.818 145.354 C 307.652 143.410,305.661 140.456,304.394 138.792 C 303.126 137.127,301.043 134.153,299.764 132.182 C 295.601 125.767,287.599 115.533,281.839 109.255 C 274.132 100.857,273.988 100.411,276.963 94.138 C 284.796 77.619,298.915 69.341,310.073 74.725 " stroke="none" fill="#2c1c7c" fill-rule="evenodd"></path><path id="path2" d="M136.200 54.155 C 121.191 57.936,111.651 82.576,116.126 106.000 C 117.169 111.462,116.942 111.964,111.540 116.122 C 100.588 124.550,89.242 135.445,83.684 142.872 C 80.455 147.186,79.544 147.990,73.800 151.589 C 61.175 159.499,48.305 172.508,40.152 185.600 C 31.905 198.843,32.263 201.600,41.636 197.000 C 49.792 192.997,50.260 193.774,46.158 204.495 C 41.971 215.437,39.793 221.723,37.806 228.600 C 36.789 232.120,35.532 236.440,35.014 238.200 C 34.496 239.960,33.955 242.210,33.813 243.200 C 33.572 244.879,32.297 250.926,30.972 256.682 C 30.172 260.154,30.223 262.924,31.100 263.677 C 32.346 264.748,32.994 264.742,38.035 263.615 C 40.766 263.004,43.900 262.380,45.000 262.227 C 46.100 262.074,48.980 261.526,51.400 261.010 C 59.972 259.179,68.242 257.619,71.417 257.234 C 73.187 257.019,75.167 256.638,75.817 256.388 C 76.468 256.137,80.240 255.598,84.200 255.190 C 88.160 254.781,92.660 254.177,94.200 253.846 C 95.740 253.515,100.600 252.963,105.000 252.620 C 109.400 252.277,115.790 251.772,119.200 251.498 C 127.670 250.818,159.141 250.837,167.000 251.527 C 177.781 252.474,187.372 253.543,188.800 253.957 C 189.570 254.180,192.360 254.653,195.000 255.006 C 197.640 255.360,201.150 255.986,202.800 256.397 C 208.134 257.726,212.931 258.890,216.000 259.599 C 223.119 261.244,234.748 264.814,244.000 268.196 C 247.190 269.362,251.780 270.955,254.200 271.736 C 256.620 272.517,259.590 273.511,260.800 273.946 C 273.819 278.623,286.196 281.740,294.223 282.363 C 304.445 283.157,325.273 282.614,330.490 281.417 C 331.871 281.101,334.751 280.562,336.891 280.221 C 343.298 279.201,354.786 274.776,359.854 271.379 C 377.687 259.420,379.948 242.641,365.753 227.600 C 363.574 225.290,360.721 222.076,359.415 220.457 C 358.108 218.839,355.709 216.049,354.084 214.257 C 349.832 209.570,342.445 200.208,332.419 186.800 C 326.034 178.261,324.634 176.245,313.249 159.200 C 301.098 141.007,290.140 125.286,288.016 123.000 C 287.403 122.340,285.861 120.360,284.588 118.600 C 271.842 100.975,246.663 86.000,225.768 83.616 C 223.806 83.392,220.040 82.939,217.400 82.608 C 211.094 81.818,197.292 81.814,191.200 82.600 C 188.670 82.927,184.710 83.471,182.400 83.809 C 180.090 84.148,177.473 84.528,176.584 84.655 C 174.604 84.937,174.778 85.139,171.412 78.678 C 164.253 64.935,155.086 56.240,145.600 54.195 C 140.934 53.189,140.049 53.186,136.200 54.155 M150.000 73.792 C 156.742 76.823,164.160 86.886,166.832 96.623 C 168.357 102.181,168.317 102.209,153.000 106.206 C 149.040 107.239,144.180 108.532,142.200 109.079 C 128.074 112.982,127.811 112.899,126.783 104.200 C 124.253 82.784,135.943 67.474,150.000 73.792 M297.948 73.603 C 290.306 75.523,281.881 83.768,276.963 94.138 C 273.988 100.411,274.132 100.857,281.839 109.255 C 287.599 115.533,295.601 125.767,299.764 132.182 C 301.043 134.153,303.126 137.127,304.394 138.792 C 305.661 140.456,307.652 143.410,308.818 145.354 C 314.438 154.725,316.203 154.051,321.782 140.408 C 328.158 124.817,328.215 100.325,321.906 87.810 C 316.200 76.493,307.345 71.242,297.948 73.603 M309.633 76.828 C 325.567 85.189,329.774 118.259,318.201 144.182 C 316.689 147.569,315.723 148.800,314.575 148.800 C 313.488 148.800,313.277 148.538,307.270 139.719 C 305.141 136.595,302.230 132.332,300.800 130.245 C 294.807 121.500,289.675 114.952,283.430 108.081 C 279.338 103.579,276.800 100.469,276.800 99.958 C 276.800 97.580,281.780 88.859,286.316 83.294 C 292.085 76.216,302.802 73.244,309.633 76.828 M220.288 85.000 C 249.767 88.724,268.164 99.729,287.160 125.000 C 293.463 133.384,304.306 148.932,307.400 154.023 C 309.380 157.279,324.395 179.262,325.953 181.185 C 326.749 182.167,327.919 183.787,328.554 184.785 C 329.189 185.783,331.709 189.184,334.154 192.342 C 336.599 195.500,339.267 199.010,340.082 200.142 C 340.898 201.274,342.559 203.370,343.773 204.800 C 344.988 206.230,346.949 208.660,348.131 210.200 C 349.312 211.740,351.748 214.620,353.543 216.600 C 357.119 220.545,360.084 225.888,357.974 224.584 C 357.169 224.086,354.848 224.829,352.725 226.263 C 340.461 234.554,335.750 253.942,342.696 267.545 C 344.962 271.983,346.769 273.361,348.800 272.200 C 349.350 271.886,350.503 271.622,351.362 271.614 C 353.639 271.594,352.261 273.057,349.654 273.429 C 348.534 273.589,347.396 274.071,346.779 274.646 C 345.381 275.950,340.070 277.821,336.200 278.373 C 334.440 278.624,331.200 279.227,329.000 279.713 C 324.366 280.736,293.351 281.063,289.600 280.128 C 288.610 279.881,285.777 279.218,283.305 278.654 C 275.647 276.908,266.346 273.955,247.200 267.193 C 243.350 265.833,239.030 264.381,237.600 263.966 C 236.170 263.552,234.370 262.935,233.600 262.595 C 232.830 262.256,230.310 261.469,228.000 260.845 C 225.690 260.222,220.681 258.867,216.869 257.834 C 208.511 255.569,204.241 254.637,197.481 253.598 C 194.666 253.166,191.284 252.533,189.966 252.191 C 188.648 251.850,184.831 251.308,181.485 250.987 C 178.138 250.667,173.330 250.178,170.800 249.902 C 164.563 249.221,122.246 249.209,115.000 249.886 C 112.140 250.153,106.470 250.643,102.400 250.973 C 98.330 251.304,93.290 251.924,91.200 252.351 C 89.110 252.777,85.240 253.339,82.600 253.599 C 79.960 253.859,76.450 254.318,74.800 254.619 C 73.150 254.920,70.900 255.284,69.800 255.429 C 68.700 255.574,61.680 256.931,54.200 258.444 C 35.394 262.249,33.179 262.610,32.753 261.938 C 32.249 261.143,32.335 259.279,32.989 256.821 C 33.308 255.623,33.774 253.289,34.025 251.635 C 35.139 244.286,38.328 232.657,43.413 217.400 C 45.097 212.346,45.810 210.478,48.601 203.800 C 49.337 202.040,50.510 198.950,51.208 196.934 C 51.906 194.917,52.865 192.910,53.338 192.473 C 55.549 190.433,78.048 183.550,90.600 181.073 C 92.360 180.725,95.510 180.080,97.600 179.638 C 111.447 176.712,127.748 174.907,143.575 174.548 C 168.824 173.975,191.424 176.608,219.600 183.406 C 229.985 185.912,233.147 186.819,241.800 189.776 C 254.639 194.163,258.729 195.741,266.200 199.191 C 276.489 203.941,277.300 203.779,275.190 197.400 C 264.119 163.940,228.603 135.939,189.953 130.200 C 180.099 128.737,180.328 129.017,180.191 118.232 C 180.080 109.568,179.468 104.433,177.756 97.800 C 177.188 95.600,176.497 92.896,176.219 91.791 C 175.155 87.554,176.547 86.696,186.923 85.198 C 197.729 83.638,208.978 83.571,220.288 85.000 M117.743 116.109 C 118.508 116.668,121.840 125.458,122.243 127.979 C 122.812 131.535,122.259 132.005,115.200 133.979 C 105.285 136.751,97.328 139.468,92.400 141.766 C 84.115 145.630,87.932 139.173,100.800 127.557 C 112.025 117.425,115.932 114.785,117.743 116.109 M244.400 168.400 C 246.106 170.170,246.519 170.400,247.990 170.400 C 255.372 170.400,252.939 183.518,245.256 185.146 C 236.896 186.917,231.080 177.032,236.099 169.584 C 238.607 165.862,241.549 165.442,244.400 168.400 M367.200 233.636 C 367.200 233.823,366.930 233.871,366.600 233.745 C 366.270 233.618,366.000 233.242,366.000 232.908 C 366.000 232.415,366.112 232.395,366.600 232.800 C 366.930 233.074,367.200 233.450,367.200 233.636 M366.800 261.584 C 366.800 262.157,365.135 263.600,364.476 263.600 C 363.994 263.600,363.987 263.487,364.431 262.900 C 365.536 261.440,366.800 260.737,366.800 261.584 " stroke="none" fill="#85a5f0" fill-rule="evenodd"></path></g></svg>