<?xml version="1.0" standalone="no"?>
<!DOCTYPE svg PUBLIC "-//W3C//DTD SVG 20010904//EN"
 "http://www.w3.org/TR/2001/REC-SVG-20010904/DTD/svg10.dtd">
<svg version="1.0" xmlns="http://www.w3.org/2000/svg"
 width="794.000000pt" height="794.000000pt" viewBox="0 0 794.000000 794.000000"
 preserveAspectRatio="xMidYMid meet">

<g transform="translate(0.000000,794.000000) scale(0.100000,-0.100000)"
fill="#000000" stroke="none">
<path d="M2134 5701 c-64 -29 -106 -79 -132 -157 -13 -38 -42 -107 -64 -154
-39 -85 -68 -181 -68 -232 0 -16 12 -41 29 -60 26 -30 28 -38 24 -85 -12 -120
26 -225 118 -324 46 -50 65 -50 80 1 7 22 15 40 19 40 14 0 39 -37 89 -130 94
-172 106 -169 125 36 l13 139 16 -37 c21 -47 24 -48 105 -56 l67 -7 5 -45 5
-45 40 0 40 0 5 -45 5 -45 52 0 c75 0 87 -15 85 -110 -1 -73 -18 -190 -29
-208 -3 -5 -26 15 -51 43 l-46 53 -15 -68 c-9 -38 -21 -70 -26 -72 -6 -2 -18
10 -28 27 -28 47 -68 90 -83 90 -22 0 -43 -52 -79 -203 -41 -170 -65 -241
-101 -302 -20 -34 -28 -65 -32 -116 -6 -90 15 -243 40 -294 25 -48 318 -345
341 -345 14 0 17 11 17 55 0 30 2 55 5 55 3 0 44 -25 93 -55 105 -65 136 -72
140 -33 2 15 -4 41 -13 59 l-17 32 68 -6 c86 -7 148 4 179 33 22 21 23 26 18
119 -9 149 28 245 108 286 38 20 38 20 55 -20 42 -102 -6 -392 -140 -835 -54
-179 -132 -413 -160 -481 -20 -48 273 -143 549 -180 145 -19 443 -6 585 25
453 101 825 366 1100 786 140 214 180 271 196 277 15 6 26 -6 109 -114 70 -91
131 -204 161 -296 l22 -72 99 3 c241 8 454 73 520 158 59 78 88 218 72 348 -6
44 -14 86 -18 93 -5 11 -26 -3 -79 -52 -40 -37 -72 -61 -72 -53 -1 34 -21 202
-25 206 -2 3 -11 -1 -20 -8 -12 -10 -16 -8 -25 15 -33 88 -39 174 -10 166 43
-12 308 -12 357 0 61 14 126 4 130 -21 1 -8 -26 -35 -59 -60 -34 -25 -63 -51
-65 -57 -6 -17 57 -28 152 -27 157 0 256 41 398 165 120 104 220 219 256 295
19 40 45 74 77 100 105 87 124 109 124 148 0 44 -30 126 -66 177 -56 81 -138
117 -374 164 -167 33 -220 54 -220 88 0 14 7 30 15 37 26 22 16 39 -27 51
-114 30 -242 75 -323 114 -70 34 -111 62 -184 130 -51 48 -109 93 -128 101
-18 8 -78 24 -131 34 -179 37 -183 40 -267 166 -92 137 -132 164 -341 230 -62
19 -145 51 -184 70 -39 20 -73 34 -74 33 -2 -2 -8 -33 -14 -68 -7 -35 -14 -66
-16 -68 -20 -20 -185 93 -295 203 -52 52 -97 94 -101 94 -25 0 -32 -35 -29
-155 2 -69 3 -125 2 -125 -1 0 -9 14 -18 30 -20 38 -31 38 -38 1 -8 -39 -57
-94 -126 -140 -65 -44 -154 -91 -174 -91 -9 0 -22 40 -41 123 -54 235 -110
374 -143 354 -6 -4 -14 -24 -18 -44 -7 -42 -91 -214 -126 -262 -35 -48 -69
-40 -149 34 -112 105 -440 265 -540 265 -45 0 -133 -31 -160 -55 -14 -13 -43
-18 -122 -20 -107 -3 -175 -19 -261 -60 l-48 -24 -76 34 c-41 19 -101 51 -133
70 -33 20 -107 56 -167 81 -59 25 -131 58 -159 75 -61 34 -119 38 -180 10z
m116 -46 c0 -8 -24 -26 -52 -41 -29 -14 -65 -38 -80 -52 -33 -31 -38 -13 -8
35 22 36 49 54 100 64 19 4 36 7 38 8 1 0 2 -6 2 -14z m196 -210 c18 -28 68
-45 134 -45 65 -1 192 -25 233 -45 47 -22 99 -73 174 -171 35 -44 83 -95 108
-113 41 -29 240 -131 258 -131 23 0 -1 35 -63 94 -47 44 -66 68 -57 72 8 3 71
-2 141 -10 141 -16 138 -15 262 -123 34 -29 64 -53 68 -53 10 0 -2 35 -35 104
-16 33 -27 61 -25 63 4 5 138 -142 188 -205 18 -23 59 -75 92 -115 77 -94 144
-194 192 -286 37 -70 39 -80 39 -160 -1 -77 -4 -93 -33 -146 -33 -63 -88 -131
-94 -118 -3 4 -5 26 -7 48 -9 153 -93 321 -230 466 -33 35 -63 60 -66 57 -4
-3 5 -29 19 -57 41 -80 59 -172 59 -301 0 -113 -17 -259 -34 -291 -22 -42
-109 -29 -109 16 0 14 -7 41 -14 60 -28 65 -95 38 -121 -47 -25 -84 -59 -133
-110 -157 -24 -11 -50 -21 -56 -21 -6 0 -38 -14 -71 -32 -60 -32 -78 -51 -134
-145 -18 -28 -50 -74 -72 -100 -49 -59 -64 -109 -56 -190 7 -64 -3 -93 -31
-93 -7 0 -47 27 -90 60 -92 71 -109 68 -75 -14 39 -97 7 -113 -86 -42 -33 25
-75 58 -94 75 -19 17 -42 31 -50 31 -8 0 -31 -19 -50 -42 -25 -28 -41 -40 -53
-35 -25 9 -38 78 -35 184 l3 98 120 6 c133 7 229 33 333 91 73 40 227 196 267
268 27 50 30 63 29 148 0 50 0 92 2 92 1 0 17 -24 35 -52 18 -29 34 -55 36
-57 2 -3 8 0 14 6 29 29 2 176 -82 448 -96 306 -187 458 -312 519 -28 13 -34
13 -48 0 -25 -23 -46 -17 -76 23 -43 56 -71 83 -85 83 -8 0 -38 -15 -68 -34
-97 -61 -149 -86 -179 -86 -42 0 -46 13 -15 60 15 22 24 44 20 48 -4 4 -56 6
-115 4 -105 -3 -107 -3 -148 27 -23 17 -50 42 -59 55 -20 32 -29 132 -15 170
11 26 14 28 49 22 20 -4 67 -9 103 -13 64 -5 67 -5 99 26 40 37 54 39 76 6z
m2797 -427 c72 -84 121 -111 377 -214 l195 -77 185 -6 185 -6 145 -77 c80 -42
165 -81 189 -88 60 -16 101 -58 101 -104 0 -34 -2 -36 -32 -36 -82 0 -112 14
-265 117 -85 57 -165 108 -177 113 -35 13 -239 17 -243 4 -2 -6 16 -33 41 -61
27 -30 65 -92 96 -158 28 -60 58 -117 67 -127 27 -30 168 -69 273 -74 82 -5
109 -2 195 21 86 23 111 25 180 20 91 -8 207 -30 236 -45 64 -35 119 -287 77
-352 -22 -33 -135 -88 -240 -118 -99 -27 -102 -25 -231 114 -54 58 -117 119
-140 134 -52 35 -142 72 -174 72 -21 0 -24 -4 -19 -22 20 -71 29 -64 -98 -77
-175 -17 -307 -63 -413 -142 -64 -48 -83 -77 -59 -94 11 -9 16 -28 16 -67 0
-125 120 -542 182 -631 11 -15 64 -66 119 -113 54 -47 99 -89 99 -93 0 -10
-190 -83 -207 -79 -10 2 -35 56 -68 146 -56 153 -103 232 -203 349 -56 65
-244 252 -325 324 -36 32 -39 40 -47 109 -5 41 -9 102 -10 135 0 53 -12 98
-23 85 -8 -11 -87 -368 -87 -395 0 -21 15 -49 50 -92 60 -75 64 -107 23 -228
-32 -98 -203 -440 -238 -478 -22 -22 -29 -25 -46 -16 -26 14 -59 68 -59 98 0
13 11 47 24 76 80 169 111 238 133 305 22 66 25 85 19 165 -19 276 -19 300 -1
356 37 111 134 275 219 367 66 72 70 72 137 6 64 -63 61 -65 77 37 18 122 127
318 246 447 49 52 58 67 49 80 -15 24 -98 49 -263 78 -80 14 -147 28 -149 30
-3 2 10 19 27 37 18 18 32 35 32 38 0 3 -35 23 -77 44 -108 53 -198 145 -252
258 -23 46 -41 90 -41 98 0 15 96 -81 193 -193z m-526 35 c-11 -169 -64 -315
-133 -368 -19 -15 -37 -25 -39 -23 -3 2 11 41 30 87 43 101 79 220 71 229 -4
3 -19 -2 -34 -12 -60 -39 -137 -68 -210 -81 -75 -13 -171 -10 -155 5 4 5 80
45 168 91 88 45 192 102 230 125 39 23 72 43 74 43 2 1 1 -43 -2 -96z m916 12
c118 -100 172 -184 110 -169 -112 27 -223 141 -223 229 0 33 11 27 113 -60z
m-736 -110 c14 -44 50 -131 79 -194 41 -86 51 -117 42 -123 -23 -14 -38 -9
-76 25 -20 19 -54 49 -75 68 l-37 34 9 75 c6 41 11 120 12 175 1 87 2 95 11
60 5 -22 21 -76 35 -120z m-2742 21 c22 -11 70 -21 107 -24 37 -3 68 -7 68
-11 0 -3 -9 -38 -19 -77 -11 -39 -22 -96 -26 -127 -8 -63 -22 -72 -53 -32 -19
23 -37 66 -80 185 -32 90 -59 66 -61 -53 -1 -65 -11 -70 -45 -23 -18 23 -21
42 -21 124 0 134 5 142 53 94 21 -21 55 -46 77 -56z m2415 -781 c56 -93 74
-138 136 -342 59 -197 84 -345 84 -507 0 -140 -26 -321 -60 -420 -21 -61 -79
-170 -87 -163 -2 3 -13 76 -24 163 -11 88 -24 163 -28 167 -4 4 -24 -26 -45
-67 -37 -76 -147 -201 -169 -193 -16 5 -25 43 -26 110 -1 31 -5 57 -10 57 -5
0 -19 -16 -32 -36 l-22 -36 -57 7 c-44 5 -65 3 -89 -9 l-31 -17 0 56 c0 53 -1
55 -27 55 -16 0 -34 4 -42 9 -37 24 73 114 329 271 190 117 207 157 180 427
-5 54 -14 157 -20 228 -12 140 -37 262 -75 365 -13 36 -26 74 -30 85 -9 25 80
-104 145 -210z m2638 -41 c101 -55 162 -95 162 -105 0 -5 -28 -27 -61 -49 -49
-31 -65 -37 -80 -29 -29 15 -23 36 19 56 45 22 40 38 -12 38 -37 0 -40 3 -77
63 -21 34 -33 62 -28 62 6 0 41 -16 77 -36z m-4661 -114 c14 -56 85 -214 101
-224 17 -10 71 21 83 48 7 16 7 40 0 81 -6 32 -9 61 -6 63 3 3 20 -27 38 -66
23 -53 39 -75 60 -83 36 -15 96 -5 159 27 27 14 53 22 56 19 23 -23 -239 -187
-326 -206 -72 -14 -177 -8 -198 13 -23 23 -33 121 -23 223 9 85 26 155 39 155
3 0 11 -22 17 -50z m3835 -211 c87 -19 137 -49 229 -135 47 -45 104 -91 125
-102 47 -24 129 -42 189 -42 51 0 55 -9 25 -57 -24 -40 -81 -70 -149 -79 -57
-7 -69 6 -22 26 16 6 37 20 47 31 16 18 16 19 -4 19 -31 0 -110 37 -165 77
l-50 37 -47 -27 c-46 -26 -170 -49 -170 -32 0 4 21 30 46 59 54 59 80 107 71
131 -13 33 -95 58 -223 66 -137 9 -192 17 -200 30 -8 13 235 11 298 -2z m858
-32 c0 -7 -7 -34 -16 -60 -26 -76 -101 -122 -134 -82 -23 27 50 125 110 148
26 10 40 7 40 -6z m-1223 -271 c37 -33 37 -35 35 -101 -3 -73 17 -150 50 -198
11 -16 18 -30 16 -33 -3 -2 -26 4 -51 15 -68 29 -81 56 -89 186 -4 60 -10 122
-14 138 -9 37 8 35 53 -7z m83 -416 c29 0 59 27 84 78 10 18 22 32 28 30 22
-8 25 -45 8 -111 l-18 -68 36 -24 c47 -32 53 -31 74 5 9 17 25 30 34 30 15 0
16 -8 11 -60 -11 -100 -29 -115 -108 -88 -119 40 -309 218 -309 290 l0 28 67
-55 c44 -36 76 -55 93 -55z"/>
<path d="M1705 4736 c-130 -29 -154 -41 -255 -136 -103 -96 -202 -149 -400
-211 -74 -23 -139 -46 -144 -50 -6 -5 -3 -16 7 -27 9 -10 17 -30 17 -44 0 -35
-42 -51 -229 -89 -224 -45 -303 -80 -364 -161 -31 -41 -67 -139 -67 -180 0
-32 19 -54 129 -147 37 -31 60 -62 81 -107 49 -109 293 -344 413 -399 111 -51
291 -69 377 -37 23 8 21 11 -48 68 -40 32 -72 61 -72 65 0 14 61 31 92 26 18
-3 66 -11 107 -17 57 -10 99 -10 189 -1 78 8 119 8 125 2 12 -12 -3 -87 -28
-148 -12 -28 -18 -34 -27 -25 -7 7 -15 12 -19 12 -4 0 -10 -49 -14 -110 -4
-60 -10 -110 -13 -110 -4 0 -37 30 -74 67 l-67 67 -12 -30 c-8 -17 -13 -79
-13 -154 0 -108 3 -133 23 -184 60 -150 194 -215 510 -246 170 -16 156 -21
181 63 36 120 126 270 243 402 l35 40 22 -20 c63 -57 79 -165 36 -248 l-23
-47 76 -72 c124 -115 384 -308 416 -308 11 0 113 292 169 480 14 47 34 116 45
154 12 37 21 78 21 90 0 20 -4 22 -40 17 -34 -5 -44 -12 -63 -45 -30 -54 -79
-79 -139 -72 -27 3 -48 1 -48 -3 0 -5 27 -66 59 -135 54 -117 58 -130 48 -162
-11 -36 -49 -84 -66 -84 -6 0 -19 9 -30 21 -21 23 -125 211 -166 301 -20 45
-34 61 -68 78 -56 29 -134 95 -235 199 l-84 86 -51 -55 c-147 -160 -204 -253
-276 -457 -18 -51 -38 -97 -45 -102 -11 -9 -216 67 -216 81 0 3 24 25 53 48
84 67 167 151 187 189 59 118 149 441 157 569 4 68 9 92 19 92 27 0 13 34 -30
74 -91 85 -249 144 -445 167 -65 7 -111 17 -111 23 1 6 7 22 15 36 8 14 14 29
15 34 0 16 -77 -2 -146 -34 -57 -27 -90 -54 -194 -161 -69 -70 -134 -130 -145
-133 -52 -15 -300 82 -331 130 -27 41 -14 170 26 267 18 43 39 81 49 86 28 15
113 31 214 41 91 9 106 8 200 -16 88 -22 116 -25 202 -21 114 6 219 35 263 72
18 15 46 62 73 125 28 64 59 117 87 148 77 84 78 82 -45 82 -62 -1 -123 -6
-144 -14 -20 -7 -93 -52 -163 -100 -153 -105 -195 -125 -263 -126 -50 0 -53 1
-53 25 0 61 33 93 123 119 26 8 92 39 146 70 151 87 185 96 353 96 201 0 199
-1 129 68 -31 32 -73 83 -92 115 -39 66 -32 64 -174 33z m-997 -768 c-8 -13
-25 -41 -38 -63 -31 -51 -36 -55 -73 -44 -47 13 -56 -6 -16 -30 19 -12 39 -23
44 -25 11 -4 -5 -38 -21 -43 -6 -2 -39 15 -74 38 l-65 42 33 26 c31 27 199
120 216 121 4 0 2 -10 -6 -22z m1052 -337 c0 -13 -52 -22 -190 -31 -130 -8
-214 -31 -235 -64 -13 -20 14 -72 72 -137 24 -26 43 -50 43 -54 0 -18 -122 4
-166 30 l-46 27 -43 -31 c-56 -40 -143 -81 -175 -81 l-25 -1 27 -22 c15 -12
37 -30 50 -40 23 -18 23 -18 -29 -13 -28 3 -70 14 -93 26 -39 20 -83 74 -77
95 2 6 37 13 78 16 116 10 171 37 267 129 97 93 146 124 227 144 66 16 315 22
315 7z m-1100 -41 c47 -24 90 -78 93 -117 2 -24 -2 -28 -26 -31 -53 -6 -104
52 -120 136 -8 38 -1 39 53 12z m1215 -267 c-3 -21 -9 -86 -13 -145 -6 -95
-10 -109 -32 -133 -22 -24 -79 -55 -100 -55 -5 0 7 30 26 66 30 59 34 74 34
145 0 44 5 89 11 100 8 17 64 59 78 59 2 0 0 -17 -4 -37z m-210 -348 c14 -25
37 -52 50 -61 21 -14 26 -14 55 1 18 9 52 35 76 57 52 48 67 47 49 -5 -37
-106 -252 -277 -350 -277 -38 0 -54 27 -62 108 -5 44 -3 52 11 52 9 0 26 -16
37 -35 21 -34 21 -35 47 -19 67 39 66 37 48 97 -23 78 -21 127 5 127 4 0 19
-20 34 -45z"/>
<path d="M2111 4456 c-62 -22 -62 -38 0 -103 58 -61 126 -154 174 -238 l29
-50 14 50 c34 126 43 152 62 183 22 36 88 71 133 72 24 0 27 3 27 36 l0 35
-45 -7 c-33 -4 -45 -3 -45 6 0 7 -13 -5 -30 -28 -36 -51 -57 -62 -112 -62 -52
0 -88 22 -129 78 -17 23 -34 42 -37 41 -4 0 -22 -6 -41 -13z"/>
</g>
</svg>
