<svg id="svg" version="1.1" xmlns="http://www.w3.org/2000/svg" xmlns:xlink="http://www.w3.org/1999/xlink" width="400" height="400" viewBox="0, 0, 400,400"><g id="svgg"><path id="path0" d="M193.800 85.589 C 145.451 88.642,102.995 122.682,89.594 169.140 C 86.558 179.662,88.586 178.949,61.000 179.200 C 38.106 179.408,37.994 179.417,37.254 181.041 C 36.492 182.714,36.630 212.111,37.407 213.614 C 38.245 215.235,37.481 215.178,60.000 215.296 C 85.832 215.431,84.920 215.082,86.565 225.480 C 92.299 261.732,116.865 295.198,149.892 311.750 C 199.337 336.529,272.346 323.140,301.206 284.000 C 306.640 276.630,306.693 276.757,295.200 269.488 C 291.570 267.192,285.135 263.083,280.901 260.357 C 265.991 250.758,268.147 250.977,260.871 258.327 C 230.559 288.946,174.207 287.461,149.551 255.394 C 139.792 242.703,132.508 222.768,135.795 217.751 C 137.456 215.216,128.768 215.420,244.333 215.200 L 349.266 215.000 350.391 213.740 C 351.640 212.342,361.200 184.398,361.200 182.145 C 361.200 179.250,362.530 179.423,338.533 179.200 C 311.747 178.951,313.175 179.408,311.047 170.400 C 298.196 115.983,251.169 81.966,193.800 85.589 M214.830 126.518 C 233.467 130.604,247.889 141.358,255.554 156.887 C 261.441 168.812,262.185 175.865,257.800 178.162 L 256.200 179.000 198.600 179.000 C 134.600 179.000,139.247 179.198,137.807 176.413 C 135.104 171.187,143.854 153.627,154.371 143.172 C 164.443 133.159,175.905 127.673,191.400 125.450 C 195.521 124.859,210.342 125.535,214.830 126.518 " stroke="none" fill="#083037" fill-rule="evenodd"></path><path id="path1" d="M134.200 1.849 C 131.560 2.837,127.960 4.156,126.200 4.781 C 124.440 5.405,121.290 6.717,119.200 7.696 C 117.110 8.675,114.680 9.709,113.800 9.994 C 109.799 11.287,89.587 22.598,85.200 25.997 C 84.430 26.594,82.039 28.279,79.887 29.742 C 75.641 32.628,73.989 33.894,67.609 39.148 C 62.471 43.380,44.890 60.853,42.259 64.342 C 41.205 65.740,39.793 67.488,39.121 68.227 C 38.449 68.965,37.517 70.093,37.050 70.734 C 36.582 71.375,35.390 72.957,34.400 74.250 C 33.410 75.542,32.420 76.917,32.200 77.305 C 31.980 77.692,30.784 79.492,29.543 81.305 C 23.796 89.697,20.734 94.938,15.712 104.976 C 12.734 110.928,10.035 116.685,9.713 117.768 C 9.391 118.851,8.889 120.112,8.597 120.569 C 7.649 122.053,2.587 136.294,1.975 139.200 C 1.812 139.970,1.302 141.631,0.840 142.890 C -0.428 146.348,-0.492 251.123,0.772 254.330 C 1.197 255.408,1.750 257.439,2.002 258.845 C 2.253 260.250,2.874 262.390,3.380 263.600 C 4.547 266.386,7.211 273.701,7.205 274.104 C 7.200 274.379,8.500 277.461,12.222 286.000 C 16.067 294.822,24.149 308.871,30.500 317.775 C 31.545 319.240,32.400 320.525,32.400 320.631 C 32.400 320.868,35.321 324.678,40.349 331.000 C 44.553 336.285,61.091 353.265,65.200 356.514 C 66.630 357.645,68.880 359.484,70.200 360.600 C 74.508 364.243,78.916 367.445,85.615 371.800 C 89.237 374.154,92.942 376.597,93.848 377.228 C 95.628 378.467,118.505 390.000,119.183 390.000 C 119.408 390.000,120.810 390.532,122.296 391.183 C 127.789 393.585,134.975 396.119,143.854 398.783 L 147.909 400.000 200.150 400.000 C 251.472 400.000,252.428 399.986,254.496 399.198 C 255.653 398.757,257.929 398.120,259.553 397.783 C 261.178 397.447,262.798 397.016,263.153 396.827 C 263.509 396.637,266.860 395.391,270.600 394.057 C 285.441 388.765,305.803 378.527,314.381 372.044 C 315.140 371.470,317.602 369.740,319.852 368.200 C 326.177 363.871,334.137 357.453,339.195 352.605 C 346.382 345.716,355.649 336.109,358.449 332.644 C 365.520 323.894,368.933 319.246,372.975 312.857 C 373.621 311.835,375.264 309.290,376.627 307.200 C 379.190 303.269,389.494 283.025,390.370 280.200 C 390.643 279.320,391.208 277.880,391.625 277.000 C 393.300 273.466,397.095 262.670,398.213 258.258 C 398.500 257.126,399.011 255.480,399.350 254.600 C 400.418 251.821,400.275 145.226,399.200 143.000 C 398.775 142.120,398.421 141.033,398.414 140.584 C 398.393 139.327,397.281 135.141,396.612 133.800 C 396.283 133.140,395.659 131.520,395.226 130.200 C 392.000 120.366,386.654 107.901,382.790 101.200 C 380.646 97.482,379.605 95.650,378.472 93.600 C 369.423 77.217,346.248 49.452,334.200 40.558 C 333.100 39.746,331.480 38.413,330.600 37.596 C 327.341 34.571,319.880 29.260,308.400 21.794 C 304.212 19.071,281.939 7.617,280.800 7.601 C 280.470 7.596,279.210 7.131,278.000 6.567 C 275.407 5.358,270.244 3.403,264.413 1.422 L 260.227 0.000 199.613 0.026 L 139.000 0.052 134.200 1.849 M217.400 80.419 C 265.458 85.879,303.805 119.505,315.389 166.343 C 316.110 169.256,316.839 171.266,317.422 171.943 L 318.330 173.000 340.465 173.200 C 372.386 173.488,370.784 171.173,360.523 202.200 C 356.451 214.514,355.164 217.567,353.338 219.246 C 350.836 221.544,358.141 221.391,245.632 221.507 C 170.673 221.585,141.716 221.737,141.332 222.056 C 138.877 224.094,145.288 240.546,152.219 250.000 C 175.650 281.956,232.353 282.849,259.671 251.691 C 265.580 244.952,266.999 244.780,274.853 249.854 C 277.574 251.611,280.520 253.476,281.400 253.999 C 282.280 254.521,285.970 256.861,289.600 259.199 C 293.230 261.537,298.270 264.773,300.800 266.390 C 309.137 271.717,310.402 273.090,310.390 276.800 C 310.366 284.038,296.750 299.335,281.200 309.593 C 248.423 331.216,195.342 336.368,158.000 321.549 C 118.851 306.013,89.264 270.152,82.022 229.460 C 81.139 224.497,80.467 222.678,79.282 222.044 C 78.870 221.824,69.923 221.606,57.986 221.525 C 29.053 221.329,31.497 223.686,31.684 196.158 L 31.800 179.000 32.800 177.021 C 34.693 173.275,33.616 173.430,59.268 173.200 L 81.536 173.000 82.516 172.079 C 83.128 171.504,83.826 170.003,84.376 168.079 C 100.927 110.208,156.613 73.511,217.400 80.419 M191.800 131.459 C 171.069 133.862,154.841 145.526,145.803 164.518 C 143.208 169.970,142.860 171.361,143.824 172.427 C 144.805 173.511,252.369 173.658,253.911 172.577 C 255.628 171.375,254.572 166.714,250.947 159.493 C 240.892 139.466,217.671 128.460,191.800 131.459 " stroke="none" fill="#fbfbfb" fill-rule="evenodd"></path><path id="path2" d="M194.200 82.042 C 143.045 85.544,100.801 119.503,86.227 168.839 C 85.190 172.352,84.211 174.020,82.669 174.903 C 82.016 175.276,76.201 175.450,59.326 175.600 L 36.852 175.800 35.668 176.934 C 33.646 178.873,33.549 179.909,33.680 198.200 C 33.847 221.532,30.738 218.933,58.800 219.200 C 74.231 219.347,80.025 219.529,80.648 219.886 C 81.986 220.653,82.732 222.720,83.968 229.079 C 92.590 273.454,124.991 309.659,167.600 322.530 C 189.924 329.274,219.298 329.531,243.800 323.197 C 265.758 317.520,282.417 308.470,296.015 294.831 C 304.295 286.527,308.607 280.149,308.289 276.677 C 308.013 273.659,307.947 273.605,292.800 263.784 C 288.518 261.008,275.162 252.561,271.224 250.139 C 266.997 247.539,266.606 247.706,259.061 255.325 C 248.269 266.223,235.986 272.614,220.963 275.146 C 181.940 281.724,151.844 265.379,140.614 231.508 C 138.018 223.678,137.807 220.996,139.705 219.912 C 140.423 219.501,161.247 219.360,245.000 219.200 C 362.418 218.975,350.745 219.325,353.188 215.953 C 356.586 211.262,365.681 180.194,364.372 177.748 C 363.328 175.797,363.493 175.812,340.182 175.600 C 313.502 175.358,315.757 176.009,313.781 167.977 C 300.277 113.093,251.601 78.113,194.200 82.042 M216.400 83.405 C 264.308 88.708,302.036 122.049,313.157 168.910 C 315.026 176.787,312.824 176.158,339.400 176.400 C 355.580 176.547,361.624 176.728,362.245 177.085 C 363.497 177.803,364.147 179.721,363.856 181.842 C 363.452 184.789,353.734 213.624,352.568 215.337 C 350.599 218.228,359.726 218.000,246.069 218.000 C 137.538 218.000,140.188 217.963,138.544 219.487 C 135.104 222.675,141.922 241.097,151.007 253.157 C 169.731 278.014,209.231 285.002,241.800 269.220 C 249.258 265.606,252.286 263.383,259.000 256.597 C 267.007 248.503,267.109 248.465,272.052 251.670 C 273.453 252.579,277.930 255.426,282.000 257.996 C 310.958 276.284,310.054 275.282,304.745 283.218 C 284.619 313.306,237.113 331.120,190.151 326.188 C 136.631 320.568,93.508 279.771,84.212 225.964 C 82.794 217.756,84.349 218.243,58.747 218.000 C 35.069 217.775,36.024 217.905,34.923 214.763 C 34.023 212.195,34.242 181.386,35.175 179.332 C 36.464 176.493,35.368 176.622,60.218 176.400 C 87.417 176.157,84.764 177.013,87.516 167.600 C 101.167 120.915,143.116 87.170,192.600 83.067 C 197.414 82.668,211.553 82.869,216.400 83.405 M187.600 128.860 C 168.441 132.168,152.857 143.961,143.807 162.000 C 139.324 170.935,138.884 175.030,142.305 175.980 C 144.388 176.559,253.220 176.557,255.304 175.978 C 259.423 174.834,258.618 168.218,253.031 157.296 C 241.930 135.593,215.397 124.062,187.600 128.860 M212.792 129.760 C 235.292 133.973,254.832 152.117,257.033 170.841 C 257.625 175.881,261.509 175.566,198.800 175.560 C 141.850 175.554,142.718 175.578,141.476 173.915 C 139.033 170.643,147.386 155.003,156.392 145.987 C 170.348 132.016,191.831 125.835,212.792 129.760 " stroke="none" fill="#a2b2b2" fill-rule="evenodd"></path><path id="path3" d="M199.322 83.499 C 201.699 83.570,205.479 83.569,207.722 83.498 C 209.965 83.427,208.020 83.369,203.400 83.369 C 198.780 83.370,196.945 83.428,199.322 83.499 M190.300 83.882 C 190.795 83.978,191.605 83.978,192.100 83.882 C 192.595 83.787,192.190 83.709,191.200 83.709 C 190.210 83.709,189.805 83.787,190.300 83.882 M213.905 83.883 C 214.402 83.979,215.122 83.975,215.505 83.875 C 215.887 83.775,215.480 83.696,214.600 83.701 C 213.720 83.705,213.407 83.787,213.905 83.883 M217.700 84.276 C 218.085 84.376,218.715 84.376,219.100 84.276 C 219.485 84.175,219.170 84.093,218.400 84.093 C 217.630 84.093,217.315 84.175,217.700 84.276 M249.600 93.000 C 250.150 93.314,250.780 93.572,251.000 93.572 C 251.220 93.572,250.950 93.314,250.400 93.000 C 249.850 92.686,249.220 92.428,249.000 92.428 C 248.780 92.428,249.050 92.686,249.600 93.000 M147.900 96.024 C 145.755 97.115,144.000 98.098,144.000 98.208 C 144.000 98.386,151.960 94.530,152.367 94.154 C 152.965 93.601,151.265 94.313,147.900 96.024 M258.000 96.979 C 258.000 97.089,258.540 97.459,259.200 97.800 C 259.860 98.141,260.400 98.331,260.400 98.221 C 260.400 98.111,259.860 97.741,259.200 97.400 C 258.540 97.059,258.000 96.869,258.000 96.979 M133.000 105.035 L 131.800 106.066 133.100 105.206 C 133.815 104.733,134.400 104.268,134.400 104.173 C 134.400 103.873,134.231 103.978,133.000 105.035 M278.000 111.000 C 278.746 111.770,279.447 112.400,279.557 112.400 C 279.667 112.400,279.146 111.770,278.400 111.000 C 277.654 110.230,276.953 109.600,276.843 109.600 C 276.733 109.600,277.254 110.230,278.000 111.000 M124.975 111.300 L 123.800 112.600 125.100 111.425 C 125.815 110.779,126.400 110.194,126.400 110.125 C 126.400 109.816,126.070 110.088,124.975 111.300 M122.175 113.700 L 121.000 115.000 122.300 113.825 C 123.015 113.179,123.600 112.594,123.600 112.525 C 123.600 112.216,123.270 112.488,122.175 113.700 M117.389 118.100 L 114.600 121.000 117.500 118.211 C 120.194 115.620,120.583 115.200,120.289 115.200 C 120.228 115.200,118.923 116.505,117.389 118.100 M287.800 120.800 C 288.659 121.680,289.452 122.400,289.562 122.400 C 289.672 122.400,289.059 121.680,288.200 120.800 C 287.341 119.920,286.548 119.200,286.438 119.200 C 286.328 119.200,286.941 119.920,287.800 120.800 M113.375 122.500 L 112.200 123.800 113.500 122.625 C 114.712 121.530,114.984 121.200,114.675 121.200 C 114.606 121.200,114.021 121.785,113.375 122.500 M110.975 125.300 L 109.800 126.600 111.100 125.425 C 111.815 124.779,112.400 124.194,112.400 124.125 C 112.400 123.816,112.070 124.088,110.975 125.300 M193.100 127.482 C 193.595 127.578,194.405 127.578,194.900 127.482 C 195.395 127.387,194.990 127.309,194.000 127.309 C 193.010 127.309,192.605 127.387,193.100 127.482 M205.500 127.482 C 205.995 127.578,206.805 127.578,207.300 127.482 C 207.795 127.387,207.390 127.309,206.400 127.309 C 205.410 127.309,205.005 127.387,205.500 127.482 M221.000 130.400 C 221.440 130.589,222.070 130.744,222.400 130.744 C 222.778 130.744,222.704 130.617,222.200 130.400 C 221.760 130.211,221.130 130.056,220.800 130.056 C 220.422 130.056,220.496 130.183,221.000 130.400 M104.400 133.600 C 103.930 134.260,103.636 134.800,103.746 134.800 C 103.856 134.800,104.330 134.260,104.800 133.600 C 105.270 132.940,105.564 132.400,105.454 132.400 C 105.344 132.400,104.870 132.940,104.400 133.600 M226.833 132.552 C 227.241 132.924,231.200 134.793,231.200 134.613 C 231.200 134.388,227.380 132.400,226.947 132.400 C 226.793 132.400,226.742 132.468,226.833 132.552 M237.200 138.125 C 237.200 138.224,237.861 138.809,238.668 139.425 C 239.476 140.041,240.011 140.341,239.856 140.091 C 239.540 139.579,237.200 137.847,237.200 138.125 M243.800 144.000 C 245.771 145.980,247.473 147.600,247.583 147.600 C 247.693 147.600,246.171 145.980,244.200 144.000 C 242.229 142.020,240.527 140.400,240.417 140.400 C 240.307 140.400,241.829 142.020,243.800 144.000 M154.987 144.900 L 152.600 147.400 155.100 145.013 C 157.422 142.795,157.783 142.400,157.487 142.400 C 157.426 142.400,156.301 143.525,154.987 144.900 M97.400 144.800 C 97.059 145.460,96.869 146.000,96.979 146.000 C 97.089 146.000,97.459 145.460,97.800 144.800 C 98.141 144.140,98.331 143.600,98.221 143.600 C 98.111 143.600,97.741 144.140,97.400 144.800 M258.514 172.200 C 258.517 173.300,258.595 173.703,258.687 173.095 C 258.779 172.486,258.777 171.586,258.682 171.095 C 258.587 170.603,258.511 171.100,258.514 172.200 M139.216 174.118 C 139.195 175.054,140.961 176.809,141.882 176.768 C 142.342 176.748,142.191 176.588,141.461 176.322 C 140.790 176.078,140.098 175.392,139.777 174.654 C 139.437 173.873,139.225 173.671,139.216 174.118 M257.856 174.999 C 257.722 175.348,257.025 175.889,256.306 176.201 C 255.588 176.513,255.305 176.776,255.678 176.784 C 256.474 176.803,258.716 174.984,258.349 174.617 C 258.212 174.479,257.989 174.651,257.856 174.999 M49.700 177.100 C 55.585 177.162,65.215 177.162,71.100 177.100 C 76.985 177.037,72.170 176.986,60.400 176.986 C 48.630 176.986,43.815 177.037,49.700 177.100 M170.900 177.100 C 186.245 177.158,211.355 177.158,226.700 177.100 C 242.045 177.042,229.490 176.994,198.800 176.994 C 168.110 176.994,155.555 177.042,170.900 177.100 M328.700 177.100 C 334.475 177.162,343.925 177.162,349.700 177.100 C 355.475 177.037,350.750 176.986,339.200 176.986 C 327.650 176.986,322.925 177.037,328.700 177.100 M36.369 178.369 C 35.726 179.012,35.207 179.867,35.216 180.269 C 35.226 180.734,35.433 180.537,35.784 179.729 C 36.088 179.031,36.846 178.183,37.468 177.845 C 38.091 177.508,38.361 177.225,38.069 177.216 C 37.777 177.207,37.012 177.726,36.369 178.369 M361.057 177.597 C 362.242 178.075,363.191 179.545,363.246 180.989 C 363.275 181.726,363.367 181.913,363.482 181.468 C 363.920 179.771,362.289 177.166,360.825 177.225 C 360.415 177.242,360.495 177.370,361.057 177.597 M34.909 182.800 C 34.909 183.790,34.987 184.195,35.082 183.700 C 35.178 183.205,35.178 182.395,35.082 181.900 C 34.987 181.405,34.909 181.810,34.909 182.800 M34.901 211.800 C 34.905 212.680,34.987 212.993,35.083 212.495 C 35.179 211.998,35.175 211.278,35.075 210.895 C 34.975 210.513,34.896 210.920,34.901 211.800 M35.212 214.278 C 35.205 214.540,35.605 215.179,36.100 215.697 C 36.595 216.215,36.800 216.360,36.556 216.020 C 36.312 215.679,35.912 215.040,35.668 214.600 C 35.424 214.160,35.219 214.015,35.212 214.278 M351.780 215.232 C 351.633 215.470,350.947 216.010,350.256 216.431 C 349.565 216.852,349.222 217.198,349.494 217.199 C 350.006 217.200,352.813 214.832,352.324 214.812 C 352.172 214.805,351.927 214.995,351.780 215.232 M48.328 217.500 C 53.898 217.563,62.898 217.562,68.328 217.500 C 73.758 217.437,69.200 217.385,58.200 217.386 C 47.200 217.386,42.758 217.437,48.328 217.500 M193.468 217.500 C 221.885 217.557,268.505 217.557,297.068 217.500 C 325.631 217.443,302.380 217.397,245.400 217.397 C 188.420 217.397,165.051 217.443,193.468 217.500 M261.978 254.300 L 260.600 255.800 262.100 254.422 C 263.496 253.138,263.784 252.800,263.478 252.800 C 263.412 252.800,262.737 253.475,261.978 254.300 M152.000 255.725 C 152.000 255.794,152.585 256.379,153.300 257.025 L 154.600 258.200 153.425 256.900 C 152.330 255.688,152.000 255.416,152.000 255.725 M94.000 256.542 C 94.000 256.977,97.186 263.200,97.409 263.200 C 97.588 263.200,94.528 256.840,94.154 256.433 C 94.069 256.342,94.000 256.391,94.000 256.542 M258.185 258.500 L 256.200 260.600 258.300 258.615 C 259.455 257.523,260.400 256.578,260.400 256.515 C 260.400 256.217,260.029 256.549,258.185 258.500 M279.800 257.407 C 280.240 257.766,280.960 258.235,281.400 258.451 L 282.200 258.844 281.400 258.193 C 280.960 257.834,280.240 257.365,279.800 257.149 L 279.000 256.756 279.800 257.407 M283.000 259.407 C 283.440 259.766,284.160 260.235,284.600 260.451 L 285.400 260.844 284.600 260.193 C 284.160 259.834,283.440 259.365,283.000 259.149 L 282.200 258.756 283.000 259.407 M254.575 261.700 L 253.400 263.000 254.700 261.825 C 255.415 261.179,256.000 260.594,256.000 260.525 C 256.000 260.216,255.670 260.488,254.575 261.700 M157.600 261.325 C 157.600 261.394,158.185 261.979,158.900 262.625 L 160.200 263.800 159.025 262.500 C 157.930 261.288,157.600 261.016,157.600 261.325 M162.000 264.946 C 162.000 265.056,162.540 265.530,163.200 266.000 C 163.860 266.470,164.400 266.764,164.400 266.654 C 164.400 266.544,163.860 266.070,163.200 265.600 C 162.540 265.130,162.000 264.836,162.000 264.946 M242.400 269.400 C 240.090 270.587,238.338 271.568,238.507 271.579 C 238.932 271.608,246.800 267.639,246.800 267.396 C 246.800 267.124,247.045 267.012,242.400 269.400 M170.400 270.198 C 170.400 270.467,174.449 272.484,174.629 272.305 C 174.711 272.223,173.793 271.673,172.589 271.082 C 171.385 270.492,170.400 270.094,170.400 270.198 M104.400 274.800 C 104.870 275.460,105.344 276.000,105.454 276.000 C 105.564 276.000,105.270 275.460,104.800 274.800 C 104.330 274.140,103.856 273.600,103.746 273.600 C 103.636 273.600,103.930 274.140,104.400 274.800 M196.100 277.876 C 196.485 277.976,197.115 277.976,197.500 277.876 C 197.885 277.775,197.570 277.693,196.800 277.693 C 196.030 277.693,195.715 277.775,196.100 277.876 M212.705 277.883 C 213.202 277.979,213.922 277.975,214.305 277.875 C 214.687 277.775,214.280 277.696,213.400 277.701 C 212.520 277.705,212.207 277.787,212.705 277.883 M202.300 278.297 C 203.895 278.373,206.505 278.373,208.100 278.297 C 209.695 278.221,208.390 278.159,205.200 278.159 C 202.010 278.159,200.705 278.221,202.300 278.297 M112.383 284.900 C 114.041 286.666,114.400 286.984,114.400 286.683 C 114.400 286.619,113.545 285.764,112.500 284.783 L 110.600 283.000 112.383 284.900 M117.800 290.800 C 119.550 292.560,121.071 294.000,121.181 294.000 C 121.291 294.000,119.950 292.560,118.200 290.800 C 116.450 289.040,114.929 287.600,114.819 287.600 C 114.709 287.600,116.050 289.040,117.800 290.800 M294.794 293.900 L 289.800 299.000 294.900 294.006 C 299.637 289.367,300.181 288.800,299.894 288.800 C 299.836 288.800,297.541 291.095,294.794 293.900 M124.200 296.800 C 125.283 297.900,126.260 298.800,126.370 298.800 C 126.480 298.800,125.683 297.900,124.600 296.800 C 123.517 295.700,122.540 294.800,122.430 294.800 C 122.320 294.800,123.117 295.700,124.200 296.800 M128.944 300.709 C 129.260 301.221,131.600 302.953,131.600 302.675 C 131.600 302.576,130.939 301.991,130.132 301.375 C 129.324 300.759,128.789 300.459,128.944 300.709 M134.494 304.890 C 135.682 305.900,138.000 307.347,138.000 307.079 C 138.000 306.988,136.965 306.249,135.700 305.437 C 134.435 304.625,133.892 304.379,134.494 304.890 M279.492 306.165 C 276.567 308.158,275.060 309.341,276.400 308.593 C 277.741 307.845,282.800 304.363,282.800 304.188 C 282.800 303.909,282.840 303.885,279.492 306.165 M144.800 311.399 C 144.800 311.664,153.648 316.085,153.825 315.908 C 153.903 315.831,151.904 314.740,149.383 313.486 C 146.862 312.231,144.800 311.292,144.800 311.399 M187.700 325.476 C 188.085 325.576,188.715 325.576,189.100 325.476 C 189.485 325.375,189.170 325.293,188.400 325.293 C 187.630 325.293,187.315 325.375,187.700 325.476 M222.100 325.476 C 222.485 325.576,223.115 325.576,223.500 325.476 C 223.885 325.375,223.570 325.293,222.800 325.293 C 222.030 325.293,221.715 325.375,222.100 325.476 M191.505 325.883 C 192.002 325.979,192.722 325.975,193.105 325.875 C 193.487 325.775,193.080 325.696,192.200 325.701 C 191.320 325.705,191.007 325.787,191.505 325.883 M218.305 325.883 C 218.802 325.979,219.522 325.975,219.905 325.875 C 220.287 325.775,219.880 325.696,219.000 325.701 C 218.120 325.705,217.807 325.787,218.305 325.883 M200.076 326.299 C 202.868 326.367,207.548 326.368,210.476 326.299 C 213.404 326.231,211.120 326.175,205.400 326.174 C 199.680 326.174,197.284 326.230,200.076 326.299 " stroke="none" fill="#819499" fill-rule="evenodd"></path><path id="path4" d="M191.200 83.876 C 144.017 87.437,100.845 122.780,87.973 168.383 C 85.341 177.708,87.700 176.954,60.382 177.200 C 35.532 177.424,36.595 177.292,35.536 180.286 C 34.646 182.800,34.768 212.976,35.674 214.629 C 37.036 217.116,35.835 216.982,58.761 217.200 C 85.181 217.451,83.270 216.661,85.357 228.200 C 92.712 268.872,122.331 304.299,160.913 318.575 C 211.112 337.149,278.975 320.406,303.881 283.304 C 309.013 275.660,309.633 276.487,288.796 263.200 C 284.828 260.670,279.111 257.000,276.091 255.044 C 266.768 249.006,267.006 248.998,261.118 255.602 C 235.492 284.342,182.547 286.270,155.774 259.437 C 144.847 248.484,134.595 226.652,137.183 219.845 C 138.191 217.193,128.874 217.422,244.818 217.200 C 344.791 217.009,349.484 216.968,350.537 216.278 C 352.372 215.076,353.011 213.557,358.032 198.452 C 363.447 182.160,363.829 180.376,362.283 178.578 L 361.270 177.400 339.335 177.200 C 312.811 176.958,314.346 177.395,312.626 169.600 C 300.484 114.558,250.665 79.387,191.200 83.876 M217.800 86.185 C 265.459 93.005,300.174 124.357,311.047 170.400 C 313.175 179.408,311.747 178.951,338.533 179.200 C 362.530 179.423,361.200 179.250,361.200 182.145 C 361.200 184.398,351.640 212.342,350.391 213.740 L 349.266 215.000 244.333 215.200 C 128.768 215.420,137.456 215.216,135.795 217.751 C 132.508 222.768,139.792 242.703,149.551 255.394 C 169.385 281.190,210.580 287.988,243.990 270.977 C 251.351 267.229,254.091 265.176,260.871 258.327 C 268.147 250.977,265.991 250.758,280.901 260.357 C 285.135 263.083,291.570 267.192,295.200 269.488 C 306.693 276.757,306.640 276.630,301.206 284.000 C 272.346 323.140,199.337 336.529,149.892 311.750 C 116.865 295.198,92.299 261.732,86.565 225.480 C 84.920 215.082,85.832 215.431,60.000 215.296 C 37.481 215.178,38.245 215.235,37.407 213.614 C 36.630 212.111,36.492 182.714,37.254 181.041 C 37.994 179.417,38.106 179.408,61.000 179.200 C 88.586 178.949,86.558 179.662,89.594 169.140 C 105.385 114.396,161.448 78.120,217.800 86.185 M191.400 125.450 C 175.905 127.673,164.443 133.159,154.371 143.172 C 143.854 153.627,135.104 171.187,137.807 176.413 C 139.247 179.198,134.600 179.000,198.600 179.000 L 256.200 179.000 257.800 178.162 C 262.185 175.865,261.441 168.812,255.554 156.887 C 247.889 141.358,233.467 130.604,214.830 126.518 C 210.342 125.535,195.521 124.859,191.400 125.450 M214.360 128.352 C 235.634 132.964,251.511 146.797,257.468 165.910 C 259.570 172.652,258.924 175.992,255.360 176.819 C 253.265 177.305,144.299 177.297,142.200 176.810 C 138.097 175.860,138.196 172.196,142.574 163.000 C 150.925 145.456,165.884 132.931,183.223 128.963 C 191.983 126.959,206.610 126.672,214.360 128.352 " stroke="none" fill="#718c8c" fill-rule="evenodd"></path><path id="path5" d="M189.000 81.809 C 141.083 86.576,99.186 121.468,86.004 167.586 C 83.777 175.377,85.902 174.798,59.513 174.809 C 30.045 174.821,33.000 172.303,33.000 197.400 C 33.000 222.218,30.271 219.940,60.046 219.976 C 83.787 220.005,81.662 219.166,83.392 229.200 C 90.920 272.842,125.843 311.434,168.806 323.587 C 204.796 333.767,251.356 327.560,279.800 308.791 C 295.762 298.258,310.308 281.954,309.011 276.050 C 308.271 272.681,309.489 273.543,271.545 249.511 C 267.370 246.867,265.186 247.514,260.731 252.714 C 235.069 282.667,178.896 283.932,154.498 255.105 C 145.250 244.179,136.918 224.874,139.768 220.976 C 140.327 220.212,141.974 220.197,244.868 220.000 L 349.400 219.800 351.095 218.894 C 353.615 217.548,354.674 215.306,359.169 201.813 C 368.933 172.505,370.576 174.806,339.887 174.802 C 314.097 174.799,316.285 175.450,314.198 167.165 C 299.914 110.476,249.098 75.831,189.000 81.809 M213.795 82.225 C 263.263 86.769,301.968 119.964,313.781 167.977 C 315.757 176.009,313.502 175.358,340.182 175.600 C 363.493 175.812,363.328 175.797,364.372 177.748 C 365.681 180.194,356.586 211.262,353.188 215.953 C 350.745 219.325,362.418 218.975,245.000 219.200 C 161.247 219.360,140.423 219.501,139.705 219.912 C 137.807 220.996,138.018 223.678,140.614 231.508 C 151.844 265.379,181.940 281.724,220.963 275.146 C 235.986 272.614,248.269 266.223,259.061 255.325 C 266.606 247.706,266.997 247.539,271.224 250.139 C 275.162 252.561,288.518 261.008,292.800 263.784 C 307.947 273.605,308.013 273.659,308.289 276.677 C 308.843 282.728,295.037 297.906,279.800 307.996 C 250.995 327.072,203.151 333.270,167.600 322.530 C 124.991 309.659,92.590 273.454,83.968 229.079 C 82.732 222.720,81.986 220.653,80.648 219.886 C 80.025 219.529,74.231 219.347,58.800 219.200 C 30.738 218.933,33.847 221.532,33.680 198.200 C 33.549 179.909,33.646 178.873,35.668 176.934 L 36.852 175.800 59.326 175.600 C 76.201 175.450,82.016 175.276,82.669 174.903 C 84.211 174.020,85.190 172.352,86.227 168.839 C 102.815 112.683,155.555 76.875,213.795 82.225 M191.470 129.198 C 169.869 131.904,153.700 143.656,143.976 163.716 C 140.016 171.885,139.985 174.591,143.843 175.277 C 146.118 175.682,251.876 175.628,253.985 175.221 C 258.498 174.350,258.055 169.241,252.503 158.126 C 242.291 137.681,217.509 125.935,191.470 129.198 M214.200 130.717 C 234.384 135.113,249.117 147.779,255.214 165.978 C 256.601 170.118,256.722 172.314,255.635 173.656 L 254.871 174.600 199.077 174.600 C 144.773 174.600,143.262 174.580,142.442 173.838 C 139.466 171.145,147.641 155.485,156.772 146.388 C 166.289 136.906,176.772 131.953,191.800 129.839 C 195.252 129.353,210.723 129.960,214.200 130.717 " stroke="none" fill="#c4cccc" fill-rule="evenodd"></path><path id="path6" d="M192.600 83.067 C 143.116 87.170,101.167 120.915,87.516 167.600 C 84.764 177.013,87.417 176.157,60.218 176.400 C 35.368 176.622,36.464 176.493,35.175 179.332 C 34.242 181.386,34.023 212.195,34.923 214.763 C 36.024 217.905,35.069 217.775,58.747 218.000 C 84.349 218.243,82.794 217.756,84.212 225.964 C 93.508 279.771,136.631 320.568,190.151 326.188 C 237.113 331.120,284.619 313.306,304.745 283.218 C 310.054 275.282,310.958 276.284,282.000 257.996 C 277.930 255.426,273.453 252.579,272.052 251.670 C 267.109 248.465,267.007 248.503,259.000 256.597 C 229.757 286.156,174.540 284.397,151.007 253.157 C 141.922 241.097,135.104 222.675,138.544 219.487 C 140.188 217.963,137.538 218.000,246.069 218.000 C 359.726 218.000,350.599 218.228,352.568 215.337 C 353.734 213.624,363.452 184.789,363.856 181.842 C 364.147 179.721,363.497 177.803,362.245 177.085 C 361.624 176.728,355.580 176.547,339.400 176.400 C 312.824 176.158,315.026 176.787,313.157 168.910 C 300.067 113.752,250.260 78.286,192.600 83.067 M215.800 83.802 C 263.779 88.882,301.923 122.533,312.798 169.375 C 313.254 171.342,313.971 173.502,314.391 174.175 C 315.959 176.691,314.927 176.581,339.000 176.800 C 362.966 177.018,362.266 176.945,363.247 179.313 C 363.930 180.961,363.406 182.965,358.158 198.800 C 353.402 213.153,352.553 215.166,350.671 216.562 L 349.541 217.400 244.653 217.600 C 145.846 217.788,139.703 217.840,138.702 218.496 C 133.750 221.741,142.283 244.080,153.332 256.800 C 173.049 279.497,212.127 284.793,243.190 268.977 C 250.560 265.224,253.264 263.184,260.236 256.115 C 267.783 248.462,265.991 248.392,279.400 256.870 C 282.700 258.957,287.470 262.013,290.000 263.662 C 292.530 265.311,296.580 267.896,299.000 269.407 C 308.817 275.536,309.056 277.234,301.463 286.922 C 271.001 325.789,198.499 338.559,149.114 313.757 C 115.599 296.925,91.575 264.444,84.821 226.832 C 83.079 217.131,85.058 217.845,59.200 217.600 C 35.463 217.375,36.424 217.506,35.323 214.363 C 34.649 212.441,34.649 181.959,35.323 180.037 C 36.429 176.878,35.291 177.025,60.529 176.800 C 87.712 176.558,85.237 177.314,87.742 168.492 C 103.331 113.582,157.668 77.646,215.800 83.802 M192.600 127.610 C 168.832 130.294,150.483 144.080,141.446 166.042 C 138.770 172.544,138.769 175.126,141.441 176.243 C 143.451 177.083,254.170 177.074,256.181 176.234 C 258.724 175.171,259.067 172.396,257.375 166.545 C 249.930 140.786,222.408 124.243,192.600 127.610 M211.200 128.613 C 233.136 132.133,249.798 145.584,256.460 165.151 C 258.762 171.914,258.421 175.112,255.304 175.978 C 253.220 176.557,144.388 176.559,142.305 175.980 C 138.884 175.030,139.324 170.935,143.807 162.000 C 156.365 136.968,182.519 124.011,211.200 128.613 " stroke="none" fill="#849c9c" fill-rule="evenodd"></path><path id="path7" d="M188.153 80.414 C 139.877 85.215,97.944 120.638,84.376 168.079 C 83.826 170.003,83.128 171.504,82.516 172.079 L 81.536 173.000 59.268 173.200 C 33.616 173.430,34.693 173.275,32.800 177.021 L 31.800 179.000 31.684 196.158 C 31.497 223.686,29.053 221.329,57.986 221.525 C 69.923 221.606,78.870 221.824,79.282 222.044 C 80.467 222.678,81.139 224.497,82.022 229.460 C 89.922 273.849,124.810 312.603,168.000 324.964 C 193.276 332.198,225.307 331.507,252.000 323.152 C 274.741 316.034,295.166 302.143,306.126 286.341 C 313.103 276.281,312.450 273.834,300.800 266.390 C 298.270 264.773,293.230 261.537,289.600 259.199 C 285.970 256.861,282.280 254.521,281.400 253.999 C 280.520 253.476,277.574 251.611,274.853 249.854 C 266.999 244.780,265.580 244.952,259.671 251.691 C 248.739 264.160,233.981 271.537,215.801 273.621 C 179.089 277.828,151.879 261.493,141.968 229.296 C 140.705 225.193,140.491 222.755,141.332 222.056 C 141.716 221.737,170.673 221.585,245.632 221.507 C 358.141 221.391,350.836 221.544,353.338 219.246 C 355.164 217.567,356.451 214.514,360.523 202.200 C 367.553 180.944,367.848 179.665,366.442 176.570 C 364.976 173.342,365.631 173.427,340.465 173.200 L 318.330 173.000 317.422 171.943 C 316.839 171.266,316.110 169.256,315.389 166.343 C 301.227 109.081,249.713 74.291,188.153 80.414 M216.800 81.587 C 264.913 86.948,303.952 121.356,314.618 167.800 C 316.206 174.714,314.069 174.162,340.200 174.400 C 371.114 174.681,369.332 172.105,359.346 202.084 C 354.709 216.006,353.743 218.011,351.095 219.213 C 349.437 219.966,347.166 219.983,246.200 219.993 C 136.180 220.005,140.384 219.924,139.643 222.048 C 137.908 227.025,146.632 245.712,155.338 255.666 C 179.804 283.638,235.107 281.947,260.603 252.447 C 266.746 245.339,264.711 244.754,289.905 260.871 C 312.868 275.561,312.679 275.236,304.683 286.384 C 275.109 327.619,198.079 341.853,147.400 315.448 C 113.914 298.001,90.282 266.363,83.174 229.463 C 81.208 219.255,83.337 220.051,57.926 220.023 C 37.046 219.999,36.658 219.967,34.742 218.140 C 32.854 216.339,32.751 215.131,32.880 196.400 C 33.048 171.999,29.766 174.668,59.935 174.400 L 82.470 174.200 83.426 173.089 C 83.951 172.477,84.843 170.407,85.408 168.489 C 100.087 118.630,140.882 85.852,194.200 81.078 C 199.298 80.621,210.373 80.871,216.800 81.587 M193.973 130.004 C 171.021 131.745,152.810 144.931,143.640 166.449 C 141.756 170.870,141.554 172.842,142.889 173.777 C 144.096 174.623,253.128 174.727,254.800 173.884 C 256.285 173.136,256.357 170.209,254.992 166.130 C 246.827 141.728,223.269 127.781,193.973 130.004 M210.200 131.642 C 221.792 133.056,234.489 139.263,242.287 147.328 C 250.480 155.802,257.156 170.304,253.911 172.577 C 252.369 173.658,144.805 173.511,143.824 172.427 C 142.860 171.361,143.208 169.970,145.803 164.518 C 154.841 145.526,171.069 133.862,191.800 131.459 C 194.716 131.121,206.926 131.242,210.200 131.642 " stroke="none" fill="#cfdcdc" fill-rule="evenodd"></path><path id="path8" d="M199.521 81.099 C 201.788 81.170,205.388 81.170,207.521 81.098 C 209.655 81.026,207.800 80.968,203.400 80.968 C 199.000 80.968,197.255 81.027,199.521 81.099 M191.500 81.482 C 191.995 81.578,192.805 81.578,193.300 81.482 C 193.795 81.387,193.390 81.309,192.400 81.309 C 191.410 81.309,191.005 81.387,191.500 81.482 M213.105 81.483 C 213.602 81.579,214.322 81.575,214.705 81.475 C 215.087 81.375,214.680 81.296,213.800 81.301 C 212.920 81.305,212.607 81.387,213.105 81.483 M187.105 81.883 C 187.602 81.979,188.322 81.975,188.705 81.875 C 189.087 81.775,188.680 81.696,187.800 81.701 C 186.920 81.705,186.607 81.787,187.105 81.883 M216.705 81.883 C 217.202 81.979,217.922 81.975,218.305 81.875 C 218.687 81.775,218.280 81.696,217.400 81.701 C 216.520 81.705,216.207 81.787,216.705 81.883 M183.300 82.276 C 183.685 82.376,184.315 82.376,184.700 82.276 C 185.085 82.175,184.770 82.093,184.000 82.093 C 183.230 82.093,182.915 82.175,183.300 82.276 M220.500 82.276 C 220.885 82.376,221.515 82.376,221.900 82.276 C 222.285 82.175,221.970 82.093,221.200 82.093 C 220.430 82.093,220.115 82.175,220.500 82.276 M236.200 85.600 C 236.640 85.789,237.270 85.944,237.600 85.944 C 237.978 85.944,237.904 85.817,237.400 85.600 C 236.960 85.411,236.330 85.256,236.000 85.256 C 235.622 85.256,235.696 85.383,236.200 85.600 M242.400 87.533 C 242.730 87.736,243.450 88.024,244.000 88.171 C 244.695 88.357,244.817 88.325,244.400 88.067 C 244.070 87.864,243.350 87.576,242.800 87.429 C 242.105 87.243,241.983 87.275,242.400 87.533 M249.233 90.155 C 249.640 90.533,261.600 96.384,261.600 96.205 C 261.600 95.984,249.774 90.000,249.338 90.000 C 249.189 90.000,249.142 90.070,249.233 90.155 M153.200 91.000 C 152.650 91.314,152.380 91.572,152.600 91.572 C 152.820 91.572,153.450 91.314,154.000 91.000 C 154.550 90.686,154.820 90.428,154.600 90.428 C 154.380 90.428,153.750 90.686,153.200 91.000 M146.700 94.024 C 144.555 95.115,142.800 96.098,142.800 96.208 C 142.800 96.386,150.760 92.530,151.167 92.154 C 151.765 91.601,150.065 92.313,146.700 94.024 M135.295 100.611 C 134.143 101.386,133.200 102.108,133.200 102.215 C 133.200 102.321,134.190 101.751,135.400 100.947 C 137.322 99.671,137.887 99.200,137.495 99.200 C 137.437 99.200,136.447 99.835,135.295 100.611 M269.600 101.327 C 269.600 101.424,270.635 102.281,271.900 103.230 C 273.165 104.179,273.983 104.687,273.718 104.359 C 273.175 103.685,269.600 101.054,269.600 101.327 M274.400 104.933 C 274.400 105.043,275.120 105.703,276.000 106.400 C 276.880 107.097,277.600 107.577,277.600 107.467 C 277.600 107.357,276.880 106.697,276.000 106.000 C 275.120 105.303,274.400 104.823,274.400 104.933 M122.900 110.028 C 120.865 111.795,119.200 113.330,119.200 113.438 C 119.200 113.546,120.910 112.160,123.000 110.359 C 126.364 107.458,127.072 106.779,126.700 106.808 C 126.645 106.812,124.935 108.261,122.900 110.028 M284.420 114.200 C 288.056 117.940,291.712 121.810,292.545 122.800 C 293.567 124.014,293.468 123.819,292.243 122.200 C 291.244 120.880,287.587 117.010,284.118 113.600 L 277.810 107.400 284.420 114.200 M115.988 116.300 L 113.400 119.000 116.100 116.412 C 117.585 114.988,118.800 113.773,118.800 113.712 C 118.800 113.417,118.393 113.792,115.988 116.300 M112.175 120.500 L 111.000 121.800 112.300 120.625 C 113.512 119.530,113.784 119.200,113.475 119.200 C 113.406 119.200,112.821 119.785,112.175 120.500 M109.771 123.300 C 107.502 125.785,106.662 126.800,106.870 126.800 C 106.986 126.800,108.019 125.720,109.167 124.400 C 111.362 121.877,111.803 121.073,109.771 123.300 M298.255 130.800 C 299.280 132.340,300.192 133.600,300.282 133.600 C 300.495 133.600,300.198 133.101,298.315 130.300 C 297.466 129.035,296.685 128.000,296.582 128.000 C 296.478 128.000,297.231 129.260,298.255 130.800 M193.891 129.889 C 194.601 129.977,195.861 129.979,196.691 129.892 C 197.521 129.805,196.940 129.733,195.400 129.731 C 193.860 129.729,193.181 129.800,193.891 129.889 M203.491 129.889 C 204.201 129.977,205.461 129.979,206.291 129.892 C 207.121 129.805,206.540 129.733,205.000 129.731 C 203.460 129.729,202.781 129.800,203.491 129.889 M189.700 130.276 C 190.085 130.376,190.715 130.376,191.100 130.276 C 191.485 130.175,191.170 130.093,190.400 130.093 C 189.630 130.093,189.315 130.175,189.700 130.276 M209.300 130.276 C 209.685 130.376,210.315 130.376,210.700 130.276 C 211.085 130.175,210.770 130.093,210.000 130.093 C 209.230 130.093,208.915 130.175,209.300 130.276 M224.833 134.154 C 225.240 134.529,232.400 137.987,232.400 137.808 C 232.400 137.586,225.377 134.000,224.941 134.000 C 224.790 134.000,224.742 134.069,224.833 134.154 M164.539 139.801 C 162.770 141.011,160.980 142.397,160.561 142.881 C 160.143 143.365,160.610 143.118,161.600 142.334 C 162.590 141.549,164.435 140.227,165.700 139.397 C 167.734 138.061,168.293 137.600,167.878 137.600 C 167.811 137.600,166.309 138.590,164.539 139.801 M232.800 138.097 C 232.910 138.219,234.260 139.145,235.800 140.156 C 237.340 141.167,238.020 141.491,237.310 140.876 C 236.202 139.916,232.238 137.473,232.800 138.097 M97.400 140.400 C 97.059 141.060,96.869 141.600,96.979 141.600 C 97.089 141.600,97.459 141.060,97.800 140.400 C 98.141 139.740,98.331 139.200,98.221 139.200 C 98.111 139.200,97.741 139.740,97.400 140.400 M305.478 142.995 C 305.844 143.762,306.214 144.319,306.301 144.232 C 306.484 144.049,305.270 141.600,304.996 141.600 C 304.895 141.600,305.112 142.228,305.478 142.995 M95.600 143.600 C 95.151 144.480,94.874 145.200,94.984 145.200 C 95.094 145.200,95.551 144.480,96.000 143.600 C 96.449 142.720,96.726 142.000,96.616 142.000 C 96.506 142.000,96.049 142.720,95.600 143.600 M242.400 145.800 C 244.481 147.890,246.274 149.600,246.384 149.600 C 246.494 149.600,244.881 147.890,242.800 145.800 C 240.719 143.710,238.926 142.000,238.816 142.000 C 238.706 142.000,240.319 143.710,242.400 145.800 M156.400 146.600 C 154.761 148.250,153.510 149.600,153.620 149.600 C 153.730 149.600,155.161 148.250,156.800 146.600 C 158.439 144.950,159.690 143.600,159.580 143.600 C 159.470 143.600,158.039 144.950,156.400 146.600 M150.800 153.200 C 150.330 153.860,150.036 154.400,150.146 154.400 C 150.256 154.400,150.730 153.860,151.200 153.200 C 151.670 152.540,151.964 152.000,151.854 152.000 C 151.744 152.000,151.270 152.540,150.800 153.200 M250.600 156.400 C 250.941 157.060,251.311 157.600,251.421 157.600 C 251.531 157.600,251.341 157.060,251.000 156.400 C 250.659 155.740,250.289 155.200,250.179 155.200 C 250.069 155.200,250.259 155.740,250.600 156.400 M146.200 160.400 C 145.859 161.060,145.669 161.600,145.779 161.600 C 145.889 161.600,146.259 161.060,146.600 160.400 C 146.941 159.740,147.131 159.200,147.021 159.200 C 146.911 159.200,146.541 159.740,146.200 160.400 M252.828 160.600 C 252.828 160.820,253.086 161.450,253.400 162.000 C 253.714 162.550,253.972 162.820,253.972 162.600 C 253.972 162.380,253.714 161.750,253.400 161.200 C 253.086 160.650,252.828 160.380,252.828 160.600 M144.065 164.617 C 143.395 166.088,143.523 166.402,144.247 165.065 C 144.586 164.440,144.788 163.854,144.696 163.763 C 144.605 163.671,144.321 164.056,144.065 164.617 M256.114 171.000 C 256.117 172.100,256.195 172.503,256.287 171.895 C 256.379 171.286,256.377 170.386,256.282 169.895 C 256.187 169.403,256.111 169.900,256.114 171.000 M84.832 170.444 C 84.814 170.798,84.328 171.784,83.752 172.633 C 83.175 173.483,83.007 173.926,83.378 173.618 C 84.288 172.863,85.294 170.857,85.056 170.273 C 84.945 170.001,84.850 170.074,84.832 170.444 M141.667 171.638 C 141.603 173.006,142.488 174.400,143.420 174.400 C 143.617 174.400,143.389 174.127,142.913 173.794 C 142.361 173.407,141.991 172.648,141.891 171.694 L 141.734 170.200 141.667 171.638 M315.953 172.691 C 316.454 173.649,317.921 174.613,318.301 174.232 C 318.429 174.105,318.315 174.000,318.048 174.000 C 317.780 174.000,317.095 173.505,316.525 172.900 C 315.667 171.989,315.569 171.953,315.953 172.691 M49.300 174.700 C 55.185 174.762,64.815 174.762,70.700 174.700 C 76.585 174.637,71.770 174.586,60.000 174.586 C 48.230 174.586,43.415 174.637,49.300 174.700 M171.300 174.700 C 186.425 174.758,211.175 174.758,226.300 174.700 C 241.425 174.642,229.050 174.594,198.800 174.594 C 168.550 174.594,156.175 174.642,171.300 174.700 M329.328 174.700 C 335.229 174.762,344.769 174.762,350.528 174.700 C 356.288 174.637,351.460 174.586,339.800 174.586 C 328.140 174.586,323.428 174.637,329.328 174.700 M35.719 175.584 C 34.473 176.344,33.191 178.231,33.209 179.280 C 33.214 179.566,33.568 179.029,33.995 178.086 C 34.589 176.778,35.178 176.189,36.486 175.595 C 37.429 175.168,37.930 174.814,37.600 174.810 C 37.270 174.806,36.424 175.154,35.719 175.584 M362.267 175.239 C 362.964 175.441,363.999 176.158,364.567 176.834 C 365.135 177.509,365.594 177.913,365.587 177.731 C 365.548 176.713,363.029 174.782,361.811 174.836 C 361.271 174.860,361.423 174.995,362.267 175.239 M365.709 180.000 C 365.709 180.990,365.787 181.395,365.882 180.900 C 365.978 180.405,365.978 179.595,365.882 179.100 C 365.787 178.605,365.709 179.010,365.709 180.000 M32.893 181.200 C 32.893 181.970,32.975 182.285,33.076 181.900 C 33.176 181.515,33.176 180.885,33.076 180.500 C 32.975 180.115,32.893 180.430,32.893 181.200 M32.893 213.600 C 32.893 214.370,32.975 214.685,33.076 214.300 C 33.176 213.915,33.176 213.285,33.076 212.900 C 32.975 212.515,32.893 212.830,32.893 213.600 M353.906 216.019 C 353.201 217.283,352.283 218.254,351.308 218.769 C 350.478 219.207,349.980 219.572,350.200 219.581 C 351.552 219.636,355.877 214.944,355.147 214.214 C 355.065 214.132,354.507 214.944,353.906 216.019 M33.600 216.670 C 33.600 217.241,36.270 219.600,36.914 219.599 C 37.181 219.598,36.836 219.253,36.147 218.833 C 35.457 218.412,34.602 217.653,34.247 217.145 C 33.891 216.637,33.600 216.423,33.600 216.670 M38.100 219.876 C 38.485 219.976,39.115 219.976,39.500 219.876 C 39.885 219.775,39.570 219.693,38.800 219.693 C 38.030 219.693,37.715 219.775,38.100 219.876 M346.905 219.887 C 347.514 219.979,348.414 219.977,348.905 219.882 C 349.397 219.787,348.900 219.711,347.800 219.714 C 346.700 219.717,346.297 219.795,346.905 219.887 M79.115 220.451 C 79.921 220.684,80.734 221.328,81.214 222.115 C 81.645 222.822,81.998 223.161,81.999 222.869 C 82.001 221.970,79.725 219.998,78.731 220.036 C 77.985 220.065,78.062 220.148,79.115 220.451 M140.000 220.800 C 139.560 221.240,139.214 221.915,139.232 222.300 C 139.252 222.742,139.411 222.596,139.664 221.903 C 139.929 221.177,140.494 220.682,141.332 220.439 C 142.330 220.150,142.408 220.064,141.700 220.036 C 141.205 220.016,140.440 220.360,140.000 220.800 M148.267 246.806 C 148.659 247.470,149.398 248.505,149.910 249.106 C 150.421 249.708,150.175 249.165,149.363 247.900 C 147.824 245.503,147.028 244.707,148.267 246.806 M267.651 248.007 C 268.670 248.179,269.885 248.524,270.351 248.774 C 270.818 249.024,271.200 249.123,271.200 248.994 C 271.200 248.526,268.393 247.601,267.113 247.647 C 265.994 247.687,266.074 247.740,267.651 248.007 M263.585 249.229 L 262.200 250.458 263.800 249.345 C 264.680 248.733,265.475 248.180,265.567 248.116 C 265.658 248.052,265.562 248.000,265.352 248.000 C 265.142 248.000,264.347 248.553,263.585 249.229 M151.591 251.588 C 152.057 252.241,152.642 252.902,152.891 253.056 C 153.141 253.211,152.841 252.676,152.225 251.868 C 150.888 250.115,150.384 249.892,151.591 251.588 M260.778 252.300 L 259.400 253.800 260.900 252.422 C 262.296 251.138,262.584 250.800,262.278 250.800 C 262.212 250.800,261.537 251.475,260.778 252.300 M275.800 252.207 C 276.240 252.566,276.960 253.035,277.400 253.251 L 278.200 253.644 277.400 252.993 C 276.960 252.634,276.240 252.165,275.800 251.949 L 275.000 251.556 275.800 252.207 M153.200 253.725 C 153.200 253.794,153.785 254.379,154.500 255.025 L 155.800 256.200 154.625 254.900 C 153.530 253.688,153.200 253.416,153.200 253.725 M256.987 256.500 L 254.600 259.000 257.100 256.613 C 258.475 255.299,259.600 254.174,259.600 254.113 C 259.600 253.817,259.205 254.178,256.987 256.500 M282.200 256.207 C 282.640 256.566,283.360 257.035,283.800 257.251 L 284.600 257.644 283.800 256.993 C 283.360 256.634,282.640 256.165,282.200 255.949 L 281.400 255.556 282.200 256.207 M157.183 258.100 C 158.841 259.866,159.200 260.184,159.200 259.883 C 159.200 259.819,158.345 258.964,157.300 257.983 L 155.400 256.200 157.183 258.100 M92.000 257.341 C 92.000 257.776,95.986 265.600,96.207 265.600 C 96.386 265.600,92.530 257.640,92.154 257.233 C 92.069 257.142,92.000 257.190,92.000 257.341 M285.400 258.207 C 285.840 258.566,286.560 259.035,287.000 259.251 L 287.800 259.644 287.000 258.993 C 286.560 258.634,285.840 258.165,285.400 257.949 L 284.600 257.556 285.400 258.207 M252.975 260.100 L 251.800 261.400 253.100 260.225 C 253.815 259.579,254.400 258.994,254.400 258.925 C 254.400 258.616,254.070 258.888,252.975 260.100 M160.102 260.671 C 160.832 261.499,164.400 264.170,164.400 263.889 C 164.400 263.801,163.275 262.861,161.900 261.802 C 160.525 260.742,159.716 260.233,160.102 260.671 M249.978 262.327 C 249.196 262.917,248.116 263.723,247.578 264.117 C 246.638 264.807,246.651 264.807,247.930 264.117 C 249.195 263.436,252.024 261.220,251.600 261.244 C 251.490 261.250,250.760 261.737,249.978 262.327 M241.600 267.200 C 239.070 268.497,237.138 269.568,237.307 269.579 C 237.732 269.608,246.400 265.239,246.400 264.997 C 246.400 264.724,246.682 264.594,241.600 267.200 M97.000 267.200 C 97.341 267.860,97.711 268.400,97.821 268.400 C 97.931 268.400,97.741 267.860,97.400 267.200 C 97.059 266.540,96.689 266.000,96.579 266.000 C 96.469 266.000,96.659 266.540,97.000 267.200 M170.000 267.398 C 170.000 267.665,175.649 270.485,175.827 270.306 C 175.907 270.227,174.628 269.497,172.986 268.684 C 171.344 267.871,170.000 267.293,170.000 267.398 M302.800 269.324 C 302.800 269.417,303.565 269.998,304.500 270.615 C 305.435 271.232,305.989 271.480,305.731 271.168 C 305.234 270.567,302.800 269.036,302.800 269.324 M177.600 271.133 C 177.930 271.336,178.650 271.624,179.200 271.771 C 179.895 271.957,180.017 271.925,179.600 271.667 C 179.270 271.464,178.550 271.176,178.000 271.029 C 177.305 270.843,177.183 270.875,177.600 271.133 M230.400 271.800 C 228.970 272.316,227.990 272.752,228.222 272.769 C 228.758 272.808,233.600 271.183,233.600 270.963 C 233.600 270.694,233.120 270.819,230.400 271.800 M307.078 272.406 C 307.562 272.956,308.230 274.034,308.563 274.803 C 308.896 275.571,309.176 275.966,309.184 275.680 C 309.209 274.849,308.162 273.066,307.141 272.202 L 306.200 271.406 307.078 272.406 M192.900 275.076 C 193.285 275.176,193.915 275.176,194.300 275.076 C 194.685 274.975,194.370 274.893,193.600 274.893 C 192.830 274.893,192.515 274.975,192.900 275.076 M215.700 275.076 C 216.085 275.176,216.715 275.176,217.100 275.076 C 217.485 274.975,217.170 274.893,216.400 274.893 C 215.630 274.893,215.315 274.975,215.700 275.076 M196.705 275.483 C 197.202 275.579,197.922 275.575,198.305 275.475 C 198.687 275.375,198.280 275.296,197.400 275.301 C 196.520 275.305,196.207 275.387,196.705 275.483 M212.305 275.483 C 212.802 275.579,213.522 275.575,213.905 275.475 C 214.287 275.375,213.880 275.296,213.000 275.301 C 212.120 275.305,211.807 275.387,212.305 275.483 M202.082 275.896 C 203.558 275.973,206.078 275.973,207.682 275.897 C 209.287 275.821,208.080 275.758,205.000 275.758 C 201.920 275.757,200.607 275.819,202.082 275.896 M104.000 278.000 C 104.470 278.660,104.944 279.200,105.054 279.200 C 105.164 279.200,104.870 278.660,104.400 278.000 C 103.930 277.340,103.456 276.800,103.346 276.800 C 103.236 276.800,103.530 277.340,104.000 278.000 M107.596 282.794 C 108.290 283.671,109.067 284.518,109.323 284.676 C 109.578 284.834,109.093 284.116,108.245 283.081 C 107.397 282.047,106.620 281.200,106.518 281.200 C 106.416 281.200,106.901 281.918,107.596 282.794 M306.185 283.700 C 305.568 284.635,305.320 285.189,305.632 284.931 C 306.233 284.434,307.764 282.000,307.476 282.000 C 307.383 282.000,306.802 282.765,306.185 283.700 M111.600 287.400 C 112.795 288.610,113.863 289.600,113.973 289.600 C 114.083 289.600,113.195 288.610,112.000 287.400 C 110.805 286.190,109.737 285.200,109.627 285.200 C 109.517 285.200,110.405 286.190,111.600 287.400 M116.600 292.800 C 117.906 294.120,119.065 295.200,119.175 295.200 C 119.285 295.200,118.306 294.120,117.000 292.800 C 115.694 291.480,114.535 290.400,114.425 290.400 C 114.315 290.400,115.294 291.480,116.600 292.800 M296.194 295.700 L 291.000 301.000 296.300 295.806 C 301.223 290.981,301.781 290.400,301.494 290.400 C 301.436 290.400,299.051 292.785,296.194 295.700 M122.000 297.800 C 123.417 299.230,124.667 300.400,124.777 300.400 C 124.887 300.400,123.817 299.230,122.400 297.800 C 120.983 296.370,119.733 295.200,119.623 295.200 C 119.513 295.200,120.583 296.370,122.000 297.800 M125.324 300.677 C 125.660 301.221,128.800 303.755,128.800 303.482 C 128.800 303.380,127.953 302.603,126.919 301.755 C 125.884 300.907,125.166 300.422,125.324 300.677 M287.728 303.133 C 284.211 305.910,283.545 306.599,286.147 304.769 C 288.131 303.374,291.162 300.820,290.800 300.849 C 290.690 300.858,289.308 301.886,287.728 303.133 M129.297 303.833 C 129.427 304.044,130.391 304.832,131.437 305.584 C 132.484 306.335,133.233 306.778,133.103 306.567 C 132.973 306.356,132.009 305.568,130.963 304.816 C 129.916 304.065,129.167 303.622,129.297 303.833 M139.800 311.007 C 140.240 311.366,140.960 311.835,141.400 312.051 L 142.200 312.444 141.400 311.793 C 140.960 311.434,140.240 310.965,139.800 310.749 L 139.000 310.356 139.800 311.007 M275.500 311.429 C 274.005 312.240,274.096 312.578,275.600 311.800 C 276.260 311.459,276.800 311.094,276.800 310.990 C 276.800 310.732,276.757 310.747,275.500 311.429 M144.400 313.799 C 144.400 314.064,152.448 318.085,152.626 317.908 C 152.703 317.830,150.885 316.830,148.584 315.685 C 146.283 314.541,144.400 313.692,144.400 313.799 M263.600 317.400 C 263.050 317.714,262.780 317.972,263.000 317.972 C 263.220 317.972,263.850 317.714,264.400 317.400 C 264.950 317.086,265.220 316.828,265.000 316.828 C 264.780 316.828,264.150 317.086,263.600 317.400 M254.800 320.600 C 253.370 321.116,252.390 321.552,252.622 321.569 C 253.158 321.608,258.000 319.983,258.000 319.763 C 258.000 319.494,257.520 319.619,254.800 320.600 M160.400 321.133 C 160.730 321.336,161.450 321.624,162.000 321.771 C 162.695 321.957,162.817 321.925,162.400 321.667 C 162.070 321.464,161.350 321.176,160.800 321.029 C 160.105 320.843,159.983 320.875,160.400 321.133 M187.505 327.883 C 188.002 327.979,188.722 327.975,189.105 327.875 C 189.487 327.775,189.080 327.696,188.200 327.701 C 187.320 327.705,187.007 327.787,187.505 327.883 M222.300 327.882 C 222.795 327.978,223.605 327.978,224.100 327.882 C 224.595 327.787,224.190 327.709,223.200 327.709 C 222.210 327.709,221.805 327.787,222.300 327.882 M192.105 328.287 C 192.714 328.379,193.614 328.377,194.105 328.282 C 194.597 328.187,194.100 328.111,193.000 328.114 C 191.900 328.117,191.497 328.195,192.105 328.287 M217.107 328.290 C 217.826 328.379,218.906 328.377,219.507 328.286 C 220.108 328.195,219.520 328.122,218.200 328.124 C 216.880 328.126,216.388 328.201,217.107 328.290 M201.280 328.698 C 203.194 328.771,206.434 328.771,208.480 328.698 C 210.526 328.626,208.960 328.566,205.000 328.565 C 201.040 328.565,199.366 328.624,201.280 328.698 " stroke="none" fill="#c4d4d4" fill-rule="evenodd"></path></g></svg>