<?xml version="1.0" standalone="no"?>
<!DOCTYPE svg PUBLIC "-//W3C//DTD SVG 20010904//EN"
 "http://www.w3.org/TR/2001/REC-SVG-20010904/DTD/svg10.dtd">
<svg version="1.0" xmlns="http://www.w3.org/2000/svg"
 width="1000.000000pt" height="1000.000000pt" viewBox="0 0 1000.000000 1000.000000"
 preserveAspectRatio="xMidYMid meet">

<g transform="translate(0.000000,1000.000000) scale(0.100000,-0.100000)"
fill="#000000" stroke="none">
<path d="M4660 9989 c-1058 -77 -2032 -467 -2853 -1143 l-97 -81 1047 -1047
1048 -1048 1462 0 1463 0 0 -1462 0 -1463 1016 -1016 1017 -1017 77 92 c772
919 1188 2112 1156 3316 -7 269 -24 449 -66 705 -184 1106 -751 2137 -1585
2884 -810 726 -1762 1149 -2845 1266 -174 19 -664 27 -840 14z"/>
<path d="M1150 8187 c-954 -1155 -1342 -2669 -1059 -4137 189 -978 667 -1877
1374 -2585 280 -279 564 -504 916 -725 171 -108 588 -316 784 -393 1707 -666
3625 -357 5028 811 l91 76 -1019 1013 -1020 1013 -1462 0 -1463 0 0 1463 0
1462 -1047 1047 -1048 1046 -75 -91z"/>
</g>
</svg>
