<svg id="svg" version="1.1" xmlns="http://www.w3.org/2000/svg" xmlns:xlink="http://www.w3.org/1999/xlink" width="400" height="400" viewBox="0, 0, 400,400"><g id="svgg"><path id="path0" d="M162.000 66.461 C 162.000 66.684,161.775 66.785,161.500 66.686 C 161.225 66.586,160.730 66.738,160.400 67.022 C 159.989 67.377,158.163 67.570,154.600 67.634 C 150.071 67.716,149.333 67.823,148.877 68.464 C 148.467 69.042,147.828 69.200,145.903 69.200 C 144.028 69.200,143.257 69.382,142.626 69.976 C 142.038 70.527,141.131 70.778,139.481 70.845 C 138.205 70.896,137.068 71.090,136.953 71.276 C 136.839 71.461,136.573 71.507,136.362 71.377 C 136.152 71.247,136.030 71.379,136.090 71.670 C 136.164 72.028,135.663 72.239,134.543 72.321 C 133.529 72.395,132.612 72.744,132.181 73.221 C 131.793 73.649,131.066 74.000,130.564 74.000 C 129.135 74.000,127.600 74.720,127.600 75.390 C 127.600 75.832,127.172 76.000,126.047 76.000 C 124.830 76.000,124.448 76.173,124.284 76.800 C 124.125 77.409,123.738 77.600,122.664 77.600 C 121.605 77.600,121.191 77.799,121.000 78.400 C 120.775 79.110,119.404 79.485,117.900 79.247 C 117.735 79.221,117.621 79.335,117.647 79.500 C 117.792 80.415,117.500 80.800,116.662 80.800 C 116.146 80.800,115.398 81.160,115.000 81.600 C 114.602 82.040,113.927 82.400,113.501 82.400 C 113.062 82.400,112.634 82.747,112.516 83.200 C 112.401 83.640,112.084 84.000,111.812 84.000 C 111.540 84.000,110.831 84.450,110.238 85.000 C 109.644 85.550,108.881 86.000,108.542 86.000 C 108.203 86.000,107.831 86.360,107.716 86.800 C 107.600 87.243,107.170 87.600,106.753 87.600 C 106.267 87.600,106.000 87.883,106.000 88.400 C 106.000 88.915,105.733 89.200,105.253 89.200 C 104.333 89.200,99.200 93.102,99.200 93.801 C 99.200 94.079,98.840 94.401,98.400 94.516 C 97.960 94.631,97.600 94.991,97.600 95.316 C 97.600 95.641,97.240 96.001,96.800 96.116 C 96.360 96.231,96.000 96.591,96.000 96.916 C 96.000 97.241,95.640 97.601,95.200 97.716 C 94.760 97.831,94.400 98.212,94.400 98.563 C 94.400 98.913,94.160 99.200,93.867 99.200 C 93.383 99.200,90.800 102.044,90.800 102.577 C 90.800 102.699,90.440 103.160,90.000 103.600 C 89.560 104.040,89.200 104.760,89.200 105.200 C 89.200 105.733,88.933 106.000,88.400 106.000 C 87.883 106.000,87.600 106.267,87.600 106.753 C 87.600 107.170,87.243 107.600,86.800 107.716 C 86.313 107.843,86.000 108.262,86.000 108.786 C 86.000 109.260,85.835 109.545,85.634 109.421 C 85.433 109.297,84.938 109.904,84.534 110.769 C 84.130 111.635,83.485 112.430,83.100 112.535 C 82.715 112.639,82.400 113.096,82.400 113.548 C 82.400 114.001,82.040 114.565,81.600 114.800 C 81.101 115.067,80.800 115.638,80.800 116.318 C 80.800 116.974,80.482 117.606,80.000 117.907 C 79.515 118.210,79.200 118.840,79.200 119.507 C 79.200 120.174,78.885 120.804,78.400 121.107 C 77.848 121.452,77.600 122.040,77.600 123.003 C 77.600 124.133,77.447 124.400,76.800 124.400 C 76.133 124.400,76.000 124.667,76.000 126.000 C 76.000 127.167,75.835 127.600,75.390 127.600 C 74.748 127.600,74.000 129.119,74.000 130.421 C 74.000 130.845,73.685 131.556,73.300 132.002 C 72.915 132.448,72.510 133.575,72.400 134.507 C 72.290 135.438,72.040 136.140,71.845 136.066 C 71.188 135.818,70.812 136.985,70.806 139.297 C 70.801 141.156,70.648 141.688,70.000 142.093 C 69.320 142.517,69.200 143.026,69.200 145.474 C 69.200 147.815,69.062 148.452,68.464 148.877 C 67.823 149.333,67.716 150.071,67.634 154.600 C 67.570 158.163,67.377 159.989,67.022 160.400 C 66.738 160.730,66.586 161.225,66.686 161.500 C 66.785 161.775,66.684 162.000,66.461 162.000 C 65.587 162.000,65.948 177.093,66.828 177.323 C 67.538 177.509,67.931 182.939,67.709 189.488 C 67.700 189.756,68.032 190.083,68.446 190.215 C 69.077 190.415,69.201 190.859,69.205 192.927 C 69.212 195.947,69.518 197.200,70.247 197.200 C 70.630 197.200,70.802 197.722,70.805 198.900 C 70.813 201.179,71.176 202.400,71.847 202.400 C 72.252 202.400,72.400 202.999,72.400 204.637 C 72.400 206.538,72.520 206.906,73.200 207.084 C 73.771 207.233,74.000 207.630,74.000 208.467 C 74.000 209.727,75.003 212.000,75.559 212.000 C 75.745 212.000,76.014 212.727,76.156 213.615 C 76.298 214.504,76.681 215.333,77.007 215.458 C 77.333 215.583,77.600 216.116,77.600 216.643 C 77.600 217.169,77.960 217.960,78.400 218.400 C 78.840 218.840,79.200 219.532,79.200 219.938 C 79.200 220.344,79.560 221.002,80.000 221.400 C 80.440 221.798,80.800 222.546,80.800 223.062 C 80.800 223.733,81.027 224.000,81.600 224.000 C 82.142 224.000,82.400 224.267,82.400 224.826 C 82.400 225.990,83.121 227.200,83.814 227.200 C 84.136 227.200,84.379 227.335,84.353 227.500 C 84.182 228.579,84.492 229.200,85.200 229.200 C 85.733 229.200,86.000 229.467,86.000 230.000 C 86.000 230.440,86.360 231.160,86.800 231.600 C 87.240 232.040,87.600 232.760,87.600 233.200 C 87.600 233.733,87.867 234.000,88.400 234.000 C 88.924 234.000,89.200 234.267,89.200 234.773 C 89.200 235.198,89.560 235.660,90.000 235.800 C 90.440 235.940,90.800 236.329,90.800 236.664 C 90.800 237.000,91.160 237.369,91.600 237.484 C 92.043 237.600,92.400 238.030,92.400 238.447 C 92.400 238.933,92.683 239.200,93.200 239.200 C 93.640 239.200,94.000 239.398,94.000 239.640 C 94.000 240.254,96.365 242.400,97.042 242.400 C 97.349 242.400,97.600 242.760,97.600 243.200 C 97.600 243.733,97.867 244.000,98.400 244.000 C 98.945 244.000,99.200 244.267,99.200 244.837 C 99.200 245.338,99.521 245.759,100.000 245.884 C 100.440 245.999,100.800 246.359,100.800 246.684 C 100.800 247.009,101.143 247.365,101.563 247.474 C 101.983 247.584,102.416 248.017,102.526 248.437 C 102.642 248.881,103.075 249.200,103.563 249.200 C 104.133 249.200,104.400 249.455,104.400 250.000 C 104.400 250.533,104.667 250.800,105.200 250.800 C 105.640 250.800,106.360 251.160,106.800 251.600 C 107.240 252.040,107.960 252.400,108.400 252.400 C 108.924 252.400,109.200 252.667,109.200 253.172 C 109.200 253.668,109.522 253.990,110.100 254.072 C 110.671 254.154,110.980 254.457,110.944 254.903 C 110.902 255.425,111.290 255.669,112.459 255.856 C 113.393 256.005,114.191 256.409,114.429 256.853 C 114.648 257.264,115.092 257.600,115.414 257.600 C 115.736 257.600,116.360 257.960,116.800 258.400 C 117.240 258.840,117.939 259.200,118.353 259.200 C 118.770 259.200,119.200 259.557,119.316 260.000 C 119.475 260.606,119.862 260.800,120.916 260.800 C 121.970 260.800,122.357 260.994,122.516 261.600 C 122.681 262.231,123.062 262.400,124.316 262.400 C 125.570 262.400,125.951 262.569,126.116 263.200 C 126.339 264.054,130.486 264.432,130.973 263.643 C 131.722 262.432,130.529 256.123,128.825 252.279 C 127.737 249.828,127.284 247.363,126.600 240.200 C 125.470 228.360,124.064 224.000,121.375 224.000 C 121.059 224.000,120.800 223.640,120.800 223.200 C 120.800 222.667,120.533 222.400,120.000 222.400 C 119.535 222.400,119.200 222.133,119.200 221.763 C 119.200 221.412,118.840 221.031,118.400 220.916 C 117.960 220.801,117.600 220.441,117.600 220.116 C 117.600 219.791,117.257 219.435,116.837 219.326 C 116.417 219.216,115.984 218.783,115.874 218.363 C 115.763 217.936,115.326 217.600,114.882 217.600 C 114.292 217.600,114.022 217.241,113.826 216.200 C 113.682 215.430,113.387 214.800,113.172 214.800 C 112.956 214.800,112.607 214.345,112.396 213.790 C 112.185 213.234,111.739 212.675,111.406 212.547 C 111.073 212.419,110.800 211.974,110.800 211.557 C 110.800 211.067,110.518 210.800,110.000 210.800 C 109.467 210.800,109.200 210.533,109.200 210.000 C 109.200 209.560,108.840 208.840,108.400 208.400 C 107.960 207.960,107.600 207.358,107.600 207.062 C 107.600 206.766,107.240 206.198,106.800 205.800 C 106.360 205.402,106.000 204.759,106.000 204.371 C 106.000 203.134,105.537 202.400,104.757 202.400 C 104.140 202.400,104.000 202.103,104.000 200.800 C 104.000 199.467,103.867 199.200,103.200 199.200 C 102.533 199.200,102.400 198.933,102.400 197.600 C 102.400 196.533,102.133 195.733,101.600 195.200 C 101.041 194.641,100.800 193.867,100.800 192.633 C 100.800 190.521,100.496 189.600,99.801 189.600 C 99.441 189.600,99.241 188.688,99.134 186.561 C 99.018 184.268,98.811 183.397,98.290 183.017 C 97.143 182.178,97.245 157.155,98.400 156.000 C 99.056 155.344,99.200 154.667,99.200 152.247 C 99.200 149.630,99.291 149.269,100.000 149.084 C 100.690 148.904,100.800 148.538,100.800 146.437 C 100.800 144.267,100.888 144.000,101.600 144.000 C 102.264 144.000,102.400 143.733,102.400 142.427 C 102.400 141.205,102.579 140.797,103.200 140.600 C 103.816 140.405,104.000 139.995,104.000 138.820 C 104.000 137.647,104.179 137.246,104.774 137.091 C 105.282 136.958,105.640 136.395,105.818 135.444 C 105.974 134.616,106.324 134.000,106.640 134.000 C 106.971 134.000,107.290 133.376,107.441 132.435 C 107.611 131.369,107.932 130.807,108.446 130.672 C 108.882 130.558,109.200 130.122,109.200 129.637 C 109.200 129.177,109.451 128.800,109.757 128.800 C 110.369 128.800,110.800 127.959,110.800 126.767 C 110.800 126.267,111.078 126.000,111.600 126.000 C 112.187 126.000,112.400 125.733,112.400 125.000 C 112.400 124.267,112.613 124.000,113.200 124.000 C 113.717 124.000,114.000 123.733,114.000 123.247 C 114.000 122.830,114.357 122.400,114.800 122.284 C 115.240 122.169,115.600 121.788,115.600 121.437 C 115.600 121.087,115.887 120.800,116.237 120.800 C 116.588 120.800,116.965 120.457,117.074 120.037 C 117.184 119.617,117.631 119.181,118.067 119.067 C 118.503 118.953,118.953 118.503,119.067 118.067 C 119.181 117.631,119.617 117.184,120.037 117.074 C 120.457 116.965,120.800 116.609,120.800 116.284 C 120.800 115.959,121.160 115.599,121.600 115.484 C 122.040 115.369,122.400 114.988,122.400 114.637 C 122.400 114.267,122.735 114.000,123.200 114.000 C 123.733 114.000,124.000 113.733,124.000 113.200 C 124.000 112.613,124.267 112.400,125.000 112.400 C 125.733 112.400,126.000 112.187,126.000 111.600 C 126.000 111.078,126.267 110.800,126.767 110.800 C 127.959 110.800,128.800 110.369,128.800 109.757 C 128.800 109.451,129.177 109.200,129.637 109.200 C 130.128 109.200,130.558 108.881,130.677 108.429 C 130.815 107.900,131.370 107.574,132.439 107.393 C 133.319 107.245,134.000 106.903,134.000 106.609 C 134.000 106.323,134.650 105.967,135.444 105.818 C 136.395 105.640,136.958 105.282,137.091 104.774 C 137.246 104.179,137.647 104.000,138.820 104.000 C 139.995 104.000,140.405 103.816,140.600 103.200 C 140.797 102.579,141.205 102.400,142.427 102.400 C 143.733 102.400,144.000 102.264,144.000 101.600 C 144.000 100.888,144.267 100.800,146.437 100.800 C 148.538 100.800,148.904 100.690,149.084 100.000 C 149.268 99.298,149.630 99.200,152.028 99.200 C 154.664 99.200,156.800 98.634,156.800 97.936 C 156.800 97.751,162.650 97.600,169.800 97.600 C 180.602 97.600,182.800 97.694,182.800 98.153 C 182.800 98.871,184.047 99.188,186.900 99.195 C 188.662 99.199,189.387 99.387,190.000 100.000 C 190.563 100.563,191.333 100.800,192.600 100.800 C 193.867 100.800,194.637 101.037,195.200 101.600 C 195.733 102.133,196.533 102.400,197.600 102.400 C 198.933 102.400,199.200 102.533,199.200 103.200 C 199.200 103.867,199.467 104.000,200.800 104.000 C 202.103 104.000,202.400 104.140,202.400 104.757 C 202.400 105.537,203.134 106.000,204.371 106.000 C 204.759 106.000,205.402 106.360,205.800 106.800 C 206.198 107.240,206.766 107.600,207.062 107.600 C 207.358 107.600,207.960 107.960,208.400 108.400 C 208.840 108.840,209.560 109.200,210.000 109.200 C 210.452 109.200,210.800 109.467,210.800 109.813 C 210.800 110.149,211.115 110.543,211.500 110.686 C 211.885 110.830,212.435 111.274,212.723 111.674 C 213.010 112.073,213.465 112.400,213.734 112.400 C 214.002 112.400,214.530 112.760,214.907 113.200 C 215.284 113.640,216.044 114.000,216.596 114.000 C 217.348 114.000,217.600 114.210,217.600 114.837 C 217.600 115.338,217.921 115.759,218.400 115.884 C 218.840 115.999,219.200 116.359,219.200 116.684 C 219.200 117.009,219.543 117.365,219.963 117.474 C 220.383 117.584,220.816 118.017,220.926 118.437 C 221.035 118.857,221.412 119.200,221.763 119.200 C 222.126 119.200,222.400 119.532,222.400 119.972 C 222.400 120.466,222.725 120.794,223.300 120.882 C 223.795 120.957,224.161 121.220,224.114 121.467 C 224.067 121.713,224.464 122.383,224.995 122.957 L 225.962 124.000 223.481 124.067 C 221.800 124.113,221.483 124.185,222.500 124.291 C 223.325 124.378,224.000 124.645,224.000 124.886 C 224.000 125.127,224.450 125.914,225.000 126.636 C 226.601 128.735,225.266 130.608,223.600 128.600 C 222.437 127.199,219.515 128.654,219.592 130.596 C 219.635 131.679,219.472 132.104,218.646 133.065 C 217.382 134.534,216.413 133.847,216.372 131.451 C 216.329 128.948,215.960 128.248,215.039 128.922 C 213.971 129.703,213.687 133.151,214.579 134.512 C 215.473 135.876,215.274 143.709,214.278 146.400 C 213.911 147.390,213.518 148.683,213.405 149.273 C 213.285 149.897,212.847 150.458,212.359 150.613 C 211.022 151.037,211.992 151.518,214.739 151.794 C 216.484 151.969,217.195 151.916,217.015 151.624 C 216.717 151.142,217.311 151.044,217.767 151.500 C 217.932 151.665,218.547 151.834,219.133 151.876 C 220.021 151.939,222.412 152.145,224.700 152.354 C 224.975 152.379,225.200 152.591,225.200 152.824 C 225.200 153.057,224.975 153.133,224.700 152.994 C 224.425 152.855,224.549 153.024,224.976 153.370 C 225.690 153.949,232.715 154.315,237.300 154.012 C 237.905 153.972,238.400 154.144,238.400 154.393 C 238.400 154.643,238.222 154.737,238.005 154.603 C 237.778 154.463,237.711 154.623,237.846 154.977 C 237.977 155.317,238.233 155.504,238.414 155.391 C 238.596 155.279,238.858 155.370,238.996 155.593 C 239.134 155.817,239.576 156.000,239.978 156.000 C 240.564 156.000,240.763 156.439,240.986 158.225 C 241.154 159.570,241.488 160.536,241.832 160.668 C 242.750 161.020,242.660 177.450,241.734 178.473 C 241.264 178.993,241.016 180.182,240.893 182.505 C 240.768 184.879,240.542 185.939,240.085 186.298 C 239.672 186.623,239.389 187.662,239.272 189.281 C 239.105 191.580,238.435 193.102,237.848 192.514 C 237.711 192.378,237.600 193.107,237.600 194.133 C 237.600 195.467,237.371 196.229,236.800 196.800 C 236.267 197.333,236.000 198.133,236.000 199.200 C 236.000 200.338,235.831 200.800,235.414 200.800 C 234.677 200.800,234.000 202.032,234.000 203.374 C 234.000 204.093,233.786 204.400,233.285 204.400 C 232.865 204.400,232.546 204.719,232.512 205.173 C 232.480 205.598,232.082 206.318,231.627 206.773 C 231.172 207.228,230.800 207.960,230.800 208.400 C 230.800 208.933,230.533 209.200,230.000 209.200 C 229.411 209.200,229.200 209.467,229.200 210.213 C 229.200 210.873,228.911 211.333,228.370 211.533 C 227.914 211.701,227.554 211.966,227.570 212.120 C 227.705 213.388,227.484 213.983,226.800 214.200 C 226.360 214.340,226.000 214.802,226.000 215.227 C 226.000 215.733,225.724 216.000,225.200 216.000 C 224.751 216.000,224.400 216.267,224.400 216.609 C 224.400 216.943,223.943 217.425,223.385 217.680 C 222.826 217.934,222.457 218.371,222.564 218.651 C 222.671 218.930,222.408 219.270,221.980 219.406 C 221.551 219.543,221.200 219.917,221.200 220.240 C 221.200 220.562,220.885 220.944,220.500 221.090 C 220.115 221.236,219.139 222.040,218.331 222.878 C 217.524 223.715,216.669 224.400,216.431 224.400 C 216.194 224.400,216.000 224.747,216.000 225.172 C 216.000 225.668,215.678 225.990,215.100 226.072 C 214.499 226.158,214.239 226.433,214.318 226.900 C 214.402 227.404,214.168 227.600,213.480 227.600 C 212.954 227.600,212.198 227.960,211.800 228.400 C 211.402 228.840,210.654 229.200,210.138 229.200 C 209.467 229.200,209.200 229.427,209.200 230.000 C 209.200 230.582,208.933 230.800,208.223 230.800 C 207.685 230.800,206.986 231.170,206.670 231.621 C 206.354 232.073,205.714 232.471,205.247 232.506 C 204.724 232.546,204.400 232.844,204.400 233.285 C 204.400 233.910,203.712 234.214,202.684 234.042 C 202.047 233.936,200.800 234.844,200.800 235.414 C 200.800 235.825,200.350 236.000,199.296 236.000 C 198.226 236.000,197.649 236.230,197.293 236.800 C 196.911 237.411,196.360 237.600,194.959 237.600 C 193.462 237.600,193.087 237.747,192.916 238.400 C 192.736 239.089,192.367 239.201,190.253 239.206 C 187.556 239.213,187.144 239.374,186.448 240.696 C 186.071 241.412,186.099 241.831,186.588 242.777 C 187.644 244.820,187.377 246.059,185.453 248.039 C 184.492 249.027,183.585 250.217,183.437 250.682 C 183.290 251.147,182.910 251.743,182.593 252.006 C 182.214 252.321,182.133 252.709,182.357 253.142 C 182.544 253.504,182.823 256.214,182.976 259.165 C 183.250 264.428,183.277 264.551,184.427 265.626 C 185.678 266.794,185.858 267.571,185.172 268.852 C 184.861 269.434,184.874 269.807,185.221 270.226 C 185.796 270.918,185.160 271.000,184.480 270.320 C 184.107 269.947,184.000 269.952,184.000 270.344 C 184.000 270.621,183.817 270.734,183.593 270.596 C 183.370 270.458,183.311 270.132,183.462 269.872 C 183.614 269.613,183.345 269.744,182.866 270.164 C 182.387 270.585,181.876 270.810,181.731 270.664 C 181.586 270.519,181.677 270.400,181.933 270.400 C 182.190 270.400,182.400 270.209,182.400 269.976 C 182.400 269.743,182.233 269.656,182.029 269.782 C 181.825 269.908,181.551 269.677,181.422 269.268 C 181.020 268.004,179.010 268.373,178.960 269.720 C 178.916 270.897,179.178 271.062,179.920 270.320 C 180.293 269.947,180.400 269.952,180.400 270.344 C 180.400 270.621,180.580 270.736,180.800 270.600 C 181.020 270.464,181.200 270.551,181.200 270.794 C 181.200 271.037,180.975 271.206,180.700 271.170 C 179.386 271.000,178.834 271.224,179.068 271.834 C 179.264 272.344,179.377 272.363,179.650 271.934 C 179.911 271.521,179.989 271.516,179.994 271.909 C 179.998 272.288,180.282 272.251,181.100 271.767 C 182.144 271.149,182.159 271.150,181.400 271.798 C 180.632 272.454,180.687 272.473,182.740 272.267 C 183.917 272.149,185.191 271.770,185.571 271.426 C 186.094 270.953,187.168 270.800,189.969 270.800 C 193.270 270.800,193.697 270.717,193.873 270.042 C 194.040 269.403,194.534 269.260,197.024 269.135 C 199.129 269.028,200.123 268.800,200.488 268.340 C 200.770 267.984,201.779 267.598,202.731 267.481 C 203.683 267.364,204.777 266.983,205.163 266.634 C 205.548 266.285,206.266 266.000,206.758 266.000 C 207.982 266.000,209.200 265.295,209.200 264.586 C 209.200 264.158,209.686 264.000,211.004 264.000 C 212.313 264.000,212.996 263.780,213.493 263.200 C 213.870 262.760,214.588 262.400,215.089 262.400 C 215.590 262.400,216.360 262.040,216.800 261.600 C 217.240 261.160,217.960 260.800,218.400 260.800 C 218.840 260.800,219.560 260.440,220.000 260.000 C 220.440 259.560,221.087 259.200,221.437 259.200 C 221.788 259.200,222.166 258.853,222.277 258.429 C 222.415 257.900,222.970 257.574,224.039 257.393 C 224.992 257.232,225.600 256.910,225.600 256.565 C 225.600 256.254,225.939 256.000,226.354 256.000 C 226.769 256.000,227.403 255.550,227.763 255.000 C 228.181 254.363,228.791 254.000,229.447 254.000 C 230.138 254.000,230.543 253.738,230.684 253.200 C 230.800 252.757,231.230 252.400,231.647 252.400 C 232.133 252.400,232.400 252.117,232.400 251.600 C 232.400 251.082,232.667 250.800,233.157 250.800 C 233.574 250.800,234.021 250.521,234.152 250.181 C 234.283 249.841,234.936 249.372,235.603 249.139 C 236.271 248.906,236.999 248.375,237.223 247.958 C 237.446 247.541,237.880 247.200,238.187 247.200 C 238.495 247.200,238.854 246.859,238.986 246.443 C 239.118 246.027,239.581 245.594,240.013 245.481 C 240.446 245.367,240.800 244.988,240.800 244.637 C 240.800 244.267,241.135 244.000,241.600 244.000 C 242.133 244.000,242.400 243.733,242.400 243.200 C 242.400 242.667,242.667 242.400,243.200 242.400 C 243.733 242.400,244.000 242.133,244.000 241.600 C 244.000 241.067,244.267 240.800,244.800 240.800 C 245.324 240.800,245.600 240.533,245.600 240.027 C 245.600 239.602,245.960 239.140,246.400 239.000 C 246.840 238.860,247.200 238.495,247.200 238.187 C 247.200 237.880,247.541 237.446,247.958 237.223 C 248.375 236.999,248.906 236.271,249.139 235.603 C 249.372 234.936,249.841 234.283,250.181 234.152 C 250.521 234.021,250.800 233.574,250.800 233.157 C 250.800 232.667,251.082 232.400,251.600 232.400 C 252.117 232.400,252.400 232.133,252.400 231.647 C 252.400 231.230,252.757 230.800,253.200 230.684 C 253.738 230.543,254.000 230.138,254.000 229.447 C 254.000 228.791,254.363 228.181,255.000 227.763 C 255.550 227.403,256.000 226.899,256.000 226.643 C 256.000 226.387,256.360 225.870,256.800 225.493 C 257.271 225.089,257.600 224.313,257.600 223.604 C 257.600 222.667,257.777 222.400,258.400 222.400 C 258.933 222.400,259.200 222.133,259.200 221.600 C 259.200 221.160,259.560 220.440,260.000 220.000 C 260.440 219.560,260.800 218.750,260.800 218.200 C 260.800 217.612,261.030 217.200,261.357 217.200 C 261.988 217.200,262.400 216.353,262.400 215.056 C 262.400 214.573,262.760 213.870,263.200 213.493 C 263.780 212.996,264.000 212.313,264.000 211.004 C 264.000 209.501,264.126 209.200,264.757 209.200 C 265.597 209.200,266.000 208.458,266.000 206.911 C 266.000 206.349,266.294 205.674,266.652 205.411 C 267.055 205.117,267.383 204.122,267.509 202.811 C 267.635 201.493,267.995 200.405,268.456 199.944 C 269.029 199.371,269.200 198.601,269.200 196.600 C 269.200 194.644,269.338 194.000,269.757 194.000 C 270.601 194.000,270.800 193.073,270.800 189.151 C 270.800 186.119,270.923 185.434,271.600 184.708 C 272.783 183.438,272.810 170.639,271.635 167.951 C 271.214 166.988,270.758 164.940,270.622 163.400 C 269.927 155.519,267.205 142.387,265.248 137.474 C 264.480 135.543,265.058 131.618,266.023 132.214 C 266.447 132.476,266.261 131.581,265.667 130.500 C 265.395 130.005,264.908 129.600,264.586 129.600 C 264.167 129.600,264.000 129.134,264.000 127.963 C 264.000 126.662,263.836 126.282,263.200 126.116 C 262.569 125.951,262.400 125.570,262.400 124.316 C 262.400 123.062,262.231 122.681,261.600 122.516 C 260.994 122.357,260.800 121.970,260.800 120.916 C 260.800 119.862,260.606 119.475,260.000 119.316 C 259.557 119.200,259.200 118.770,259.200 118.353 C 259.200 117.939,258.866 117.266,258.458 116.858 C 258.050 116.450,257.597 115.641,257.451 115.060 C 257.305 114.480,256.978 114.049,256.723 114.102 C 256.469 114.156,256.102 113.438,255.908 112.507 C 255.714 111.576,255.431 110.833,255.278 110.855 C 254.405 110.980,254.000 110.709,254.000 110.000 C 254.000 109.467,253.733 109.200,253.200 109.200 C 252.667 109.200,252.400 108.933,252.400 108.400 C 252.400 107.960,252.040 107.240,251.600 106.800 C 251.160 106.360,250.800 105.640,250.800 105.200 C 250.800 104.667,250.533 104.400,250.000 104.400 C 249.455 104.400,249.200 104.133,249.200 103.563 C 249.200 103.075,248.881 102.642,248.437 102.526 C 248.017 102.416,247.584 101.983,247.474 101.563 C 247.365 101.143,247.009 100.800,246.684 100.800 C 246.359 100.800,245.999 100.440,245.884 100.000 C 245.759 99.521,245.338 99.200,244.837 99.200 C 244.267 99.200,244.000 98.945,244.000 98.400 C 244.000 97.867,243.733 97.600,243.200 97.600 C 242.667 97.600,242.400 97.333,242.400 96.800 C 242.400 96.267,242.133 96.000,241.600 96.000 C 241.055 96.000,240.800 95.733,240.800 95.163 C 240.800 94.662,240.479 94.241,240.000 94.116 C 239.560 94.001,239.200 93.652,239.200 93.341 C 239.200 93.030,238.903 92.661,238.541 92.522 C 237.762 92.223,235.600 90.031,235.600 89.541 C 235.600 89.353,235.240 89.200,234.800 89.200 C 234.298 89.200,234.000 88.933,234.000 88.485 C 234.000 88.042,233.676 87.746,233.148 87.706 C 232.680 87.671,231.903 87.272,231.422 86.821 C 230.942 86.369,230.245 86.000,229.874 86.000 C 229.503 86.000,229.200 85.724,229.200 85.387 C 229.200 85.051,228.885 84.660,228.500 84.519 C 228.115 84.379,227.291 83.844,226.669 83.332 C 226.047 82.819,225.192 82.400,224.769 82.400 C 224.298 82.400,224.000 82.124,224.000 81.687 C 224.000 81.197,223.657 80.948,222.900 80.890 C 222.295 80.844,221.501 80.445,221.136 80.003 C 220.771 79.561,220.124 79.200,219.698 79.200 C 219.272 79.200,218.598 78.840,218.200 78.400 C 217.802 77.960,217.127 77.600,216.701 77.600 C 216.275 77.600,215.469 77.240,214.909 76.800 C 214.350 76.360,213.475 76.000,212.966 76.000 C 212.457 76.000,211.896 75.756,211.720 75.458 C 211.241 74.647,209.800 74.000,208.473 74.000 C 207.630 74.000,207.234 73.772,207.084 73.200 C 206.906 72.520,206.538 72.400,204.637 72.400 C 202.999 72.400,202.400 72.252,202.400 71.847 C 202.400 71.176,201.179 70.813,198.900 70.805 C 197.722 70.802,197.200 70.630,197.200 70.247 C 197.200 69.518,195.947 69.212,192.927 69.205 C 190.859 69.201,190.415 69.077,190.215 68.446 C 190.083 68.032,189.756 67.700,189.488 67.709 C 182.939 67.931,177.509 67.538,177.323 66.828 C 177.093 65.948,162.000 65.587,162.000 66.461 M180.442 241.234 C 179.915 241.445,179.573 241.706,179.681 241.815 C 179.790 241.923,180.491 241.747,181.239 241.422 C 182.721 240.779,182.003 240.610,180.442 241.234 M168.700 242.682 C 169.195 242.778,170.005 242.778,170.500 242.682 C 170.995 242.587,170.590 242.509,169.600 242.509 C 168.610 242.509,168.205 242.587,168.700 242.682 " stroke="none" fill="#e55087" fill-rule="evenodd"></path><path id="path1" d="M177.279 66.721 C 177.384 67.273,177.958 67.422,180.339 67.518 C 182.303 67.597,183.184 67.499,183.011 67.218 C 182.869 66.988,182.087 66.800,181.274 66.800 C 180.460 66.800,179.199 66.629,178.472 66.421 C 177.328 66.093,177.167 66.133,177.279 66.721 M155.200 67.200 C 155.200 67.422,156.259 67.600,157.576 67.600 C 158.883 67.600,160.064 67.420,160.200 67.200 C 160.355 66.949,159.471 66.800,157.824 66.800 C 156.341 66.800,155.200 66.974,155.200 67.200 M147.544 68.387 C 146.639 69.141,146.634 69.174,147.420 69.187 C 148.243 69.200,149.200 68.519,149.200 67.920 C 149.200 67.376,148.531 67.564,147.544 68.387 M190.006 67.838 C 190.018 68.532,190.711 69.296,191.184 69.139 C 191.493 69.036,191.367 68.713,190.831 68.228 C 190.374 67.814,190.003 67.639,190.006 67.838 M141.200 70.000 C 140.868 70.620,140.896 70.800,141.324 70.800 C 141.628 70.800,142.202 70.440,142.600 70.000 C 143.302 69.224,143.299 69.200,142.476 69.200 C 142.010 69.200,141.435 69.560,141.200 70.000 M196.500 69.476 C 196.885 69.576,197.200 69.915,197.200 70.229 C 197.200 70.543,197.380 70.800,197.600 70.800 C 197.820 70.800,198.000 70.656,198.000 70.480 C 198.000 69.927,197.066 69.198,196.420 69.246 C 195.944 69.282,195.962 69.335,196.500 69.476 M201.700 71.076 C 202.085 71.176,202.400 71.515,202.400 71.829 C 202.400 72.158,202.781 72.394,203.300 72.387 L 204.200 72.373 203.256 71.587 C 202.736 71.154,202.016 70.821,201.656 70.846 C 201.095 70.886,201.102 70.919,201.700 71.076 M131.741 72.797 C 130.684 73.224,130.150 74.000,130.914 74.000 C 131.223 74.000,131.802 73.640,132.200 73.200 C 133.000 72.317,132.978 72.298,131.741 72.797 M211.483 75.188 C 212.229 76.060,212.629 75.973,212.262 75.017 C 212.132 74.678,211.751 74.400,211.416 74.400 C 210.894 74.400,210.903 74.512,211.483 75.188 M214.033 76.113 C 214.125 76.175,214.515 76.467,214.900 76.762 C 215.499 77.221,215.600 77.204,215.600 76.649 C 215.600 76.250,215.266 76.000,214.733 76.000 C 214.257 76.000,213.942 76.051,214.033 76.113 M218.202 78.402 C 219.018 79.304,219.345 79.242,218.967 78.257 C 218.828 77.896,218.436 77.600,218.095 77.600 C 217.572 77.600,217.588 77.724,218.202 78.402 M220.800 79.564 C 220.800 80.075,221.983 80.951,222.276 80.657 C 222.418 80.516,222.313 80.400,222.043 80.400 C 221.773 80.400,221.652 80.239,221.774 80.042 C 221.896 79.845,221.726 79.581,221.398 79.454 C 221.069 79.328,220.800 79.377,220.800 79.564 M226.727 83.400 C 227.381 83.950,228.034 84.400,228.178 84.400 C 228.323 84.400,227.956 83.950,227.362 83.400 C 226.769 82.850,226.116 82.400,225.911 82.400 C 225.706 82.400,226.073 82.850,226.727 83.400 M110.100 84.412 C 109.605 84.611,109.200 85.084,109.200 85.464 C 109.200 86.056,109.270 86.072,109.700 85.576 C 109.975 85.259,110.461 84.775,110.780 84.500 C 111.447 83.925,111.346 83.912,110.100 84.412 M231.402 86.802 C 232.198 87.682,232.634 87.588,232.262 86.617 C 232.132 86.278,231.722 86.000,231.351 86.000 C 230.735 86.000,230.740 86.070,231.402 86.802 M104.800 88.400 C 104.360 88.840,103.751 89.200,103.447 89.200 C 103.142 89.200,102.799 89.560,102.684 89.999 C 102.475 90.799,102.475 90.799,103.492 89.999 C 104.051 89.560,104.844 89.200,105.254 89.200 C 105.733 89.200,106.000 88.914,106.000 88.400 C 106.000 87.960,105.910 87.600,105.800 87.600 C 105.690 87.600,105.240 87.960,104.800 88.400 M240.709 95.037 C 240.827 95.656,241.167 96.000,241.661 96.000 C 242.288 96.000,242.355 95.863,242.025 95.247 C 241.378 94.038,240.491 93.896,240.709 95.037 M242.400 96.967 C 242.400 97.315,242.685 97.600,243.033 97.600 C 243.740 97.600,243.617 96.739,242.875 96.492 C 242.614 96.405,242.400 96.618,242.400 96.967 M156.800 97.973 C 156.800 98.178,156.426 98.465,155.970 98.610 C 154.289 99.143,155.469 99.117,157.560 98.574 C 160.314 97.860,160.556 97.600,158.467 97.600 C 157.550 97.600,156.800 97.768,156.800 97.973 M178.567 97.947 C 178.685 98.138,179.551 98.396,180.491 98.521 C 181.431 98.647,182.560 98.825,183.000 98.917 C 183.440 99.010,183.575 99.008,183.300 98.913 C 183.025 98.819,182.800 98.485,182.800 98.171 C 182.800 97.745,182.235 97.600,180.576 97.600 C 179.353 97.600,178.449 97.756,178.567 97.947 M149.086 99.993 C 148.910 100.668,148.992 100.725,149.639 100.379 C 150.525 99.905,150.649 99.200,149.847 99.200 C 149.542 99.200,149.200 99.557,149.086 99.993 M189.000 100.000 C 189.398 100.440,189.966 100.800,190.262 100.800 C 190.625 100.800,190.540 100.540,190.000 100.000 C 189.560 99.560,188.992 99.200,188.738 99.200 C 188.476 99.200,188.589 99.546,189.000 100.000 M194.406 101.500 C 194.402 102.170,194.630 102.398,195.300 102.394 C 195.963 102.389,196.056 102.296,195.653 102.041 C 195.352 101.850,194.950 101.448,194.759 101.147 C 194.504 100.744,194.411 100.837,194.406 101.500 M197.843 102.969 C 198.207 103.915,199.200 104.075,199.200 103.187 C 199.200 102.671,198.929 102.400,198.413 102.400 C 197.896 102.400,197.700 102.596,197.843 102.969 M89.316 103.600 C 89.201 104.040,88.954 104.400,88.767 104.400 C 88.581 104.400,88.235 104.760,88.000 105.200 C 87.637 105.878,87.696 106.000,88.386 106.000 C 88.933 106.000,89.200 105.738,89.200 105.200 C 89.200 104.760,89.560 104.040,90.000 103.600 C 90.664 102.936,90.692 102.800,90.163 102.800 C 89.812 102.800,89.431 103.160,89.316 103.600 M201.200 104.557 C 201.200 104.864,201.470 105.218,201.800 105.345 C 202.208 105.501,202.400 105.323,202.400 104.787 C 202.400 104.354,202.130 104.000,201.800 104.000 C 201.470 104.000,201.200 104.251,201.200 104.557 M204.487 106.462 C 204.572 106.716,205.071 107.083,205.596 107.277 C 206.536 107.624,206.539 107.617,205.814 106.815 C 205.011 105.928,204.241 105.723,204.487 106.462 M251.500 106.733 C 252.298 107.569,252.609 107.521,252.262 106.617 C 252.132 106.278,251.749 106.000,251.413 106.000 C 250.894 106.000,250.908 106.113,251.500 106.733 M207.600 108.213 C 207.600 108.549,207.878 108.932,208.217 109.062 C 209.121 109.409,209.169 109.098,208.333 108.300 C 207.713 107.708,207.600 107.694,207.600 108.213 M252.400 108.567 C 252.400 108.915,252.685 109.200,253.033 109.200 C 253.740 109.200,253.617 108.339,252.875 108.092 C 252.614 108.005,252.400 108.218,252.400 108.567 M126.000 111.433 C 126.000 111.782,126.214 111.995,126.475 111.908 C 127.217 111.661,127.340 110.800,126.633 110.800 C 126.285 110.800,126.000 111.085,126.000 111.433 M256.000 113.327 C 256.000 114.074,256.652 114.562,256.968 114.052 C 257.091 113.853,256.923 113.468,256.596 113.196 C 256.111 112.794,256.000 112.819,256.000 113.327 M216.492 114.475 C 216.739 115.217,217.600 115.340,217.600 114.633 C 217.600 114.285,217.315 114.000,216.967 114.000 C 216.618 114.000,216.405 114.214,216.492 114.475 M258.300 116.733 C 259.098 117.569,259.409 117.521,259.062 116.617 C 258.932 116.278,258.549 116.000,258.213 116.000 C 257.694 116.000,257.708 116.113,258.300 116.733 M79.829 117.429 C 79.405 117.738,79.136 118.069,79.230 118.163 C 79.324 118.257,79.748 118.081,80.171 117.771 C 80.595 117.462,80.864 117.131,80.770 117.037 C 80.676 116.943,80.252 117.119,79.829 117.429 M78.229 120.629 C 77.805 120.938,77.536 121.269,77.630 121.363 C 77.724 121.457,78.148 121.281,78.571 120.971 C 78.995 120.662,79.264 120.331,79.170 120.237 C 79.076 120.143,78.652 120.319,78.229 120.629 M224.136 122.261 C 224.316 122.576,223.611 122.811,221.899 123.007 C 220.525 123.163,219.059 123.471,218.643 123.690 C 218.227 123.910,216.562 124.089,214.943 124.089 C 213.324 124.089,212.000 124.213,212.000 124.364 C 212.000 124.516,211.388 124.568,210.639 124.480 C 209.643 124.364,209.053 124.547,208.436 125.164 C 207.729 125.871,207.086 126.012,204.434 126.041 C 201.678 126.070,201.248 126.172,201.074 126.837 C 200.907 127.478,200.500 127.600,198.534 127.600 C 196.626 127.600,196.100 127.748,195.693 128.400 C 195.295 129.038,194.760 129.200,193.059 129.200 C 191.432 129.200,190.752 129.390,190.200 130.000 C 189.713 130.538,188.968 130.800,187.925 130.800 C 186.814 130.800,186.302 130.998,186.117 131.500 C 185.745 132.506,185.249 132.738,183.917 132.528 C 182.995 132.383,182.696 132.512,182.535 133.126 C 182.393 133.671,181.856 133.985,180.765 134.159 C 179.554 134.353,179.200 134.589,179.200 135.205 C 179.200 135.866,178.930 136.000,177.600 136.000 C 176.267 136.000,176.000 136.133,176.000 136.800 C 176.000 137.452,175.733 137.600,174.563 137.600 C 173.462 137.600,173.076 137.787,172.916 138.400 C 172.781 138.918,172.370 139.200,171.753 139.200 C 171.077 139.200,170.800 139.425,170.800 139.976 C 170.800 140.584,170.475 140.779,169.300 140.876 C 168.120 140.974,167.774 141.183,167.678 141.857 C 167.592 142.461,167.343 142.658,166.833 142.525 C 166.404 142.412,166.009 142.600,165.861 142.986 C 165.724 143.343,164.979 143.900,164.206 144.223 C 163.433 144.546,162.800 145.078,162.800 145.405 C 162.800 145.742,162.437 146.000,161.963 146.000 C 161.462 146.000,161.041 146.321,160.916 146.800 C 160.800 147.243,160.370 147.600,159.953 147.600 C 159.467 147.600,159.200 147.883,159.200 148.400 C 159.200 148.933,158.933 149.200,158.400 149.200 C 157.867 149.200,157.600 149.467,157.600 150.000 C 157.600 150.533,157.333 150.800,156.800 150.800 C 156.267 150.800,156.000 151.067,156.000 151.600 C 156.000 152.124,155.733 152.400,155.227 152.400 C 154.802 152.400,154.343 152.751,154.206 153.180 C 154.070 153.608,153.608 154.070,153.180 154.206 C 152.751 154.343,152.400 154.802,152.400 155.227 C 152.400 155.733,152.124 156.000,151.600 156.000 C 151.067 156.000,150.800 156.267,150.800 156.800 C 150.800 157.333,150.533 157.600,150.000 157.600 C 149.467 157.600,149.200 157.867,149.200 158.400 C 149.200 158.933,148.933 159.200,148.400 159.200 C 147.883 159.200,147.600 159.467,147.600 159.953 C 147.600 160.370,147.243 160.800,146.800 160.916 C 146.340 161.036,146.000 161.462,146.000 161.916 C 146.000 162.361,145.662 162.795,145.226 162.909 C 144.718 163.042,144.360 163.605,144.182 164.556 C 143.984 165.609,143.707 166.000,143.155 166.000 C 142.667 166.000,142.400 166.282,142.400 166.800 C 142.400 167.240,142.149 167.600,141.843 167.600 C 141.198 167.600,140.800 168.452,140.800 169.833 C 140.800 170.533,140.579 170.800,140.000 170.800 C 139.455 170.800,139.200 171.067,139.200 171.637 C 139.200 172.138,138.879 172.559,138.400 172.684 C 137.853 172.827,137.600 173.230,137.600 173.958 C 137.600 174.565,137.255 175.272,136.800 175.600 C 136.243 176.002,136.000 176.635,136.000 177.688 C 136.000 178.910,135.853 179.200,135.235 179.200 C 134.658 179.200,134.406 179.583,134.207 180.761 C 134.026 181.830,133.700 182.385,133.171 182.523 C 132.573 182.680,132.400 183.081,132.400 184.316 C 132.400 185.570,132.231 185.951,131.600 186.116 C 130.971 186.280,130.800 186.662,130.800 187.901 C 130.800 188.968,130.542 189.709,130.000 190.200 C 129.434 190.712,129.200 191.432,129.200 192.662 C 129.200 193.867,128.955 194.645,128.400 195.200 C 127.780 195.820,127.600 196.533,127.600 198.373 C 127.600 200.395,127.482 200.784,126.800 201.000 C 126.083 201.227,126.000 201.605,126.000 204.627 C 126.000 206.527,125.831 208.000,125.614 208.000 C 124.818 208.000,124.367 209.722,124.015 214.095 C 123.816 216.573,123.480 219.500,123.268 220.600 C 122.966 222.168,123.003 222.737,123.441 223.231 C 124.369 224.279,124.145 224.835,122.975 224.391 L 121.951 224.001 123.020 225.101 C 124.999 227.134,125.592 229.638,126.600 240.200 C 127.284 247.363,127.737 249.828,128.825 252.279 C 131.328 257.923,131.925 264.000,129.976 264.000 C 129.467 264.000,129.200 264.275,129.200 264.800 C 129.200 265.333,129.467 265.600,130.000 265.600 C 130.529 265.600,130.800 265.867,130.800 266.386 C 130.800 266.818,131.160 267.365,131.600 267.600 C 132.101 267.868,132.400 268.438,132.400 269.125 C 132.400 269.729,132.760 270.530,133.200 270.907 C 133.640 271.284,134.000 272.019,134.000 272.540 C 134.000 273.084,134.426 273.808,135.000 274.239 C 135.680 274.750,136.000 275.376,136.000 276.199 C 136.000 276.974,136.287 277.587,136.800 277.907 C 137.310 278.226,137.600 278.840,137.600 279.603 C 137.600 280.533,137.778 280.800,138.400 280.800 C 138.987 280.800,139.200 281.067,139.200 281.800 C 139.200 282.350,139.560 283.160,140.000 283.600 C 140.440 284.040,140.800 284.658,140.800 284.973 C 140.800 285.288,141.160 285.660,141.600 285.800 C 142.045 285.941,142.400 286.405,142.400 286.846 C 142.400 287.282,142.850 288.055,143.400 288.565 C 143.950 289.075,144.400 289.786,144.400 290.146 C 144.400 290.533,144.726 290.800,145.200 290.800 C 145.733 290.800,146.000 291.067,146.000 291.600 C 146.000 292.133,146.267 292.400,146.800 292.400 C 147.333 292.400,147.600 292.667,147.600 293.200 C 147.600 293.733,147.867 294.000,148.400 294.000 C 148.929 294.000,149.200 294.267,149.200 294.786 C 149.200 295.218,149.560 295.765,150.000 296.000 C 150.440 296.235,150.800 296.692,150.800 297.014 C 150.800 297.791,153.831 300.800,154.613 300.800 C 154.951 300.800,155.594 301.422,156.043 302.182 C 156.491 302.943,157.210 303.676,157.640 303.813 C 158.070 303.949,158.707 304.497,159.057 305.030 C 159.406 305.564,159.941 306.000,160.246 306.000 C 160.551 306.000,160.800 306.287,160.800 306.637 C 160.800 306.988,161.154 307.367,161.587 307.481 C 162.019 307.594,162.482 308.027,162.614 308.443 C 162.746 308.859,163.202 309.200,163.627 309.200 C 164.053 309.200,164.400 309.474,164.400 309.810 C 164.400 310.171,164.902 310.520,165.632 310.666 C 166.309 310.802,167.073 311.247,167.328 311.656 C 167.583 312.065,168.088 312.400,168.450 312.400 C 168.811 312.400,169.201 312.760,169.316 313.200 C 169.476 313.813,169.862 314.000,170.963 314.000 C 172.129 314.000,172.400 314.150,172.400 314.792 C 172.400 315.298,172.752 315.673,173.371 315.828 C 173.905 315.963,174.436 316.316,174.550 316.614 C 174.664 316.912,175.381 317.273,176.142 317.416 C 177.029 317.582,177.598 317.949,177.726 318.438 C 177.872 318.996,178.284 319.200,179.266 319.200 C 180.174 319.200,180.769 319.458,181.107 320.000 C 181.452 320.552,182.040 320.800,183.003 320.800 C 183.867 320.800,184.706 321.106,185.200 321.600 C 185.733 322.133,186.533 322.400,187.600 322.400 C 188.933 322.400,189.200 322.533,189.200 323.200 C 189.200 323.882,189.467 324.000,191.013 324.000 C 192.215 324.000,192.899 324.192,193.045 324.572 C 193.320 325.289,195.306 326.000,197.031 326.000 C 197.753 326.000,198.641 326.298,199.005 326.662 C 199.462 327.119,200.619 327.386,202.733 327.521 C 204.912 327.661,205.933 327.903,206.266 328.359 C 206.649 328.883,207.770 329.024,212.429 329.131 C 216.916 329.235,218.340 329.404,219.143 329.931 C 220.884 331.074,232.522 331.156,234.037 330.036 C 235.061 329.279,235.712 329.200,240.922 329.200 C 246.168 329.200,246.740 329.129,247.400 328.400 C 247.987 327.752,248.632 327.600,250.800 327.600 C 252.913 327.600,253.620 327.441,254.158 326.847 C 254.638 326.316,255.561 326.041,257.279 325.917 C 259.168 325.780,259.878 325.544,260.424 324.870 C 260.895 324.288,261.575 324.000,262.476 324.000 C 263.365 324.000,264.020 323.728,264.400 323.200 C 264.836 322.595,265.435 322.400,266.861 322.400 C 268.395 322.400,268.793 322.251,269.000 321.600 C 269.194 320.990,269.605 320.800,270.731 320.800 C 271.774 320.800,272.354 320.565,272.707 320.000 C 273.024 319.493,273.640 319.200,274.389 319.200 C 275.162 319.200,275.720 318.923,276.000 318.400 C 276.250 317.933,276.838 317.600,277.411 317.600 C 277.960 317.600,278.613 317.247,278.893 316.800 C 279.168 316.360,279.643 316.000,279.950 316.000 C 280.257 316.000,280.925 315.550,281.435 315.000 C 281.945 314.450,282.730 314.000,283.181 314.000 C 283.733 314.000,284.000 313.740,284.000 313.200 C 284.000 312.621,284.267 312.400,284.967 312.400 C 286.348 312.400,287.200 312.002,287.200 311.357 C 287.200 311.051,287.577 310.800,288.037 310.800 C 288.538 310.800,288.959 310.479,289.084 310.000 C 289.200 309.557,289.630 309.200,290.047 309.200 C 290.533 309.200,290.800 308.917,290.800 308.400 C 290.800 307.861,291.067 307.600,291.618 307.600 C 292.068 307.600,292.860 307.176,293.378 306.658 C 293.896 306.140,294.608 305.606,294.960 305.471 C 295.312 305.336,295.600 304.949,295.600 304.613 C 295.600 304.274,295.946 304.000,296.373 304.000 C 296.798 304.000,297.254 303.659,297.386 303.243 C 297.518 302.827,297.981 302.394,298.413 302.281 C 298.846 302.167,299.200 301.809,299.200 301.484 C 299.200 301.159,299.560 300.799,300.000 300.684 C 300.440 300.569,300.800 300.209,300.800 299.884 C 300.800 299.559,301.160 299.199,301.600 299.084 C 302.040 298.969,302.400 298.600,302.400 298.264 C 302.400 297.929,302.760 297.540,303.200 297.400 C 303.640 297.260,304.000 296.798,304.000 296.373 C 304.000 295.947,304.274 295.600,304.610 295.600 C 304.945 295.600,305.375 295.195,305.564 294.700 C 305.753 294.205,306.289 293.457,306.754 293.038 C 307.219 292.619,307.600 291.944,307.600 291.538 C 307.600 291.067,307.889 290.800,308.400 290.800 C 308.917 290.800,309.200 290.533,309.200 290.047 C 309.200 289.630,309.557 289.200,310.000 289.084 C 310.479 288.959,310.800 288.538,310.800 288.037 C 310.800 287.577,311.051 287.200,311.357 287.200 C 312.002 287.200,312.400 286.348,312.400 284.967 C 312.400 284.267,312.621 284.000,313.200 284.000 C 313.740 284.000,314.000 283.733,314.000 283.181 C 314.000 282.730,314.450 281.945,315.000 281.435 C 315.550 280.925,316.000 280.304,316.000 280.054 C 316.000 279.804,316.360 279.240,316.800 278.800 C 317.240 278.360,317.600 277.562,317.600 277.027 C 317.600 276.405,317.889 275.962,318.400 275.800 C 318.960 275.622,319.200 275.195,319.200 274.376 C 319.200 273.640,319.496 273.022,320.000 272.707 C 320.565 272.354,320.800 271.774,320.800 270.731 C 320.800 269.605,320.990 269.194,321.600 269.000 C 322.251 268.793,322.400 268.395,322.400 266.861 C 322.400 265.435,322.595 264.836,323.200 264.400 C 323.753 264.002,324.000 263.365,324.000 262.339 C 324.000 261.237,324.194 260.792,324.752 260.615 C 325.558 260.359,326.000 258.870,326.000 256.412 C 326.000 255.432,326.273 254.677,326.800 254.200 C 327.442 253.619,327.600 252.968,327.600 250.901 C 327.600 248.932,327.788 248.087,328.400 247.309 C 329.114 246.402,329.200 245.686,329.200 240.678 C 329.200 235.892,329.303 234.949,329.900 234.290 C 330.922 233.160,330.948 220.696,329.931 219.144 C 329.404 218.340,329.235 216.916,329.131 212.429 C 329.024 207.770,328.883 206.649,328.359 206.266 C 327.903 205.933,327.661 204.912,327.521 202.733 C 327.386 200.619,327.119 199.462,326.662 199.005 C 326.298 198.641,326.000 197.753,326.000 197.031 C 326.000 195.306,325.289 193.320,324.572 193.045 C 324.192 192.899,324.000 192.215,324.000 191.013 C 324.000 189.467,323.882 189.200,323.200 189.200 C 322.542 189.200,322.400 188.933,322.400 187.696 C 322.400 186.626,322.170 186.049,321.600 185.693 C 321.017 185.328,320.800 184.760,320.800 183.593 C 320.800 182.487,320.553 181.780,320.000 181.307 C 319.560 180.930,319.200 180.212,319.200 179.711 C 319.200 179.210,318.840 178.440,318.400 178.000 C 317.960 177.560,317.600 176.964,317.600 176.675 C 317.600 176.387,317.269 175.796,316.865 175.362 C 316.461 174.928,316.007 174.084,315.857 173.487 C 315.676 172.762,315.321 172.400,314.792 172.400 C 314.150 172.400,314.000 172.129,314.000 170.963 C 314.000 169.862,313.813 169.476,313.200 169.316 C 312.760 169.201,312.400 168.811,312.400 168.450 C 312.400 168.088,312.040 167.568,311.600 167.293 C 311.160 167.018,310.800 166.436,310.800 166.000 C 310.800 165.564,310.440 164.982,310.000 164.707 C 309.560 164.432,309.200 163.903,309.200 163.531 C 309.200 163.158,308.859 162.746,308.443 162.614 C 308.027 162.482,307.594 162.019,307.481 161.587 C 307.367 161.154,306.988 160.800,306.637 160.800 C 306.287 160.800,306.000 160.614,306.000 160.388 C 306.000 159.782,301.991 156.000,301.349 156.000 C 301.047 156.000,300.800 155.602,300.800 155.115 C 300.800 154.168,297.780 150.800,296.931 150.800 C 296.654 150.800,296.235 150.440,296.000 150.000 C 295.765 149.560,295.218 149.200,294.786 149.200 C 294.267 149.200,294.000 148.929,294.000 148.400 C 294.000 147.867,293.733 147.600,293.200 147.600 C 292.667 147.600,292.400 147.333,292.400 146.800 C 292.400 146.267,292.133 146.000,291.600 146.000 C 291.067 146.000,290.800 145.733,290.800 145.200 C 290.800 144.740,290.533 144.400,290.173 144.400 C 289.829 144.400,288.957 143.950,288.236 143.400 C 287.514 142.850,286.729 142.400,286.489 142.400 C 286.250 142.400,285.940 142.040,285.800 141.600 C 285.660 141.160,285.288 140.800,284.973 140.800 C 284.658 140.800,284.040 140.440,283.600 140.000 C 283.160 139.560,282.350 139.200,281.800 139.200 C 281.067 139.200,280.800 138.987,280.800 138.400 C 280.800 137.778,280.533 137.600,279.603 137.600 C 278.840 137.600,278.226 137.310,277.907 136.800 C 277.535 136.203,276.974 136.000,275.704 136.000 C 274.299 136.000,274.000 135.867,274.000 135.243 C 274.000 134.421,273.260 134.000,271.814 134.000 C 271.230 134.000,270.817 133.708,270.684 133.200 C 270.534 132.626,270.138 132.400,269.286 132.400 C 268.509 132.400,267.897 132.099,267.520 131.530 C 267.122 130.930,266.719 130.745,266.226 130.935 C 265.609 131.171,265.586 131.303,266.055 131.882 C 266.355 132.251,266.401 132.435,266.158 132.289 C 265.076 131.641,264.418 135.389,265.248 137.474 C 267.202 142.380,269.918 155.473,270.625 163.400 C 270.763 164.940,271.204 167.010,271.606 168.000 C 272.008 168.990,272.501 170.340,272.702 171.000 C 272.902 171.660,273.383 172.261,273.769 172.336 C 274.156 172.411,274.787 172.771,275.170 173.136 C 275.554 173.501,276.258 174.065,276.734 174.388 C 277.210 174.712,277.600 175.195,277.600 175.461 C 277.600 175.728,277.960 176.060,278.400 176.200 C 278.840 176.340,279.200 176.700,279.200 177.000 C 279.200 177.300,279.542 177.655,279.960 177.787 C 280.378 177.920,280.841 178.509,280.988 179.096 C 281.136 179.684,281.604 180.407,282.028 180.705 C 282.453 181.002,282.800 181.484,282.800 181.776 C 282.800 182.068,283.160 182.401,283.600 182.516 C 284.040 182.631,284.400 183.012,284.400 183.363 C 284.400 183.733,284.735 184.000,285.200 184.000 C 285.773 184.000,286.000 184.267,286.000 184.938 C 286.000 185.454,286.360 186.202,286.800 186.600 C 287.240 186.998,287.600 187.673,287.600 188.099 C 287.600 188.538,287.947 188.966,288.400 189.084 C 288.966 189.232,289.200 189.630,289.200 190.443 C 289.200 191.160,289.501 191.781,290.000 192.093 C 290.440 192.368,290.800 192.866,290.800 193.200 C 290.800 193.534,291.135 194.017,291.544 194.272 C 292.032 194.577,292.361 195.381,292.499 196.599 C 292.641 197.865,292.974 198.646,293.538 199.041 C 293.993 199.361,294.273 199.866,294.158 200.164 C 293.892 200.859,295.025 203.600,295.580 203.600 C 295.815 203.600,296.000 204.440,296.000 205.504 C 296.000 206.974,296.182 207.521,296.800 207.907 C 297.476 208.329,297.600 208.840,297.600 211.203 C 297.600 213.733,297.676 214.000,298.400 214.000 C 299.183 214.000,299.200 214.267,299.200 226.504 C 299.200 238.574,299.172 239.025,298.400 239.507 C 297.738 239.920,297.600 240.440,297.600 242.515 C 297.600 244.565,297.454 245.129,296.800 245.600 C 296.194 246.037,296.000 246.635,296.000 248.066 C 296.000 249.497,295.807 250.089,295.205 250.511 C 294.693 250.870,294.358 251.644,294.265 252.687 C 294.180 253.627,293.758 254.693,293.259 255.228 C 292.692 255.838,292.400 256.669,292.400 257.675 C 292.400 258.933,292.260 259.200,291.600 259.200 C 290.955 259.200,290.800 259.467,290.800 260.573 C 290.800 261.595,290.595 262.011,290.000 262.200 C 289.503 262.358,289.200 262.805,289.200 263.380 C 289.200 263.970,288.909 264.383,288.400 264.516 C 287.860 264.657,287.600 265.062,287.600 265.759 C 287.600 266.360,287.265 267.003,286.800 267.293 C 286.360 267.568,286.000 268.109,286.000 268.496 C 286.000 268.883,285.726 269.200,285.390 269.200 C 284.820 269.200,283.777 271.110,284.145 271.479 C 284.363 271.697,281.581 274.400,281.139 274.400 C 280.952 274.400,280.800 274.760,280.800 275.200 C 280.800 275.733,280.533 276.000,280.000 276.000 C 279.467 276.000,279.200 276.267,279.200 276.800 C 279.200 277.333,278.933 277.600,278.400 277.600 C 277.867 277.600,277.600 277.867,277.600 278.400 C 277.600 278.933,277.333 279.200,276.800 279.200 C 276.267 279.200,276.000 279.467,276.000 280.000 C 276.000 280.524,275.733 280.800,275.227 280.800 C 274.802 280.800,274.340 281.160,274.200 281.600 C 274.060 282.040,273.695 282.400,273.387 282.400 C 273.080 282.400,272.643 282.745,272.417 283.167 C 272.191 283.590,271.443 284.059,270.755 284.210 C 270.013 284.373,269.422 284.793,269.305 285.242 C 269.196 285.659,268.768 286.000,268.353 286.000 C 267.867 286.000,267.600 286.283,267.600 286.800 C 267.600 287.452,267.333 287.600,266.163 287.600 C 265.062 287.600,264.676 287.787,264.516 288.400 C 264.383 288.909,263.970 289.200,263.380 289.200 C 262.805 289.200,262.358 289.503,262.200 290.000 C 262.020 290.568,261.595 290.800,260.736 290.800 C 259.862 290.800,259.467 291.022,259.316 291.600 C 259.155 292.215,258.770 292.400,257.650 292.400 C 256.662 292.400,256.043 292.640,255.728 293.144 C 255.425 293.629,254.575 293.980,253.288 294.151 C 252.086 294.310,251.031 294.723,250.594 295.206 C 250.075 295.780,249.363 296.000,248.026 296.000 C 246.635 296.000,246.034 296.198,245.600 296.800 C 245.148 297.426,244.565 297.600,242.908 297.600 C 241.287 297.600,240.632 297.787,240.107 298.400 C 239.449 299.169,238.927 299.200,226.758 299.200 C 214.430 299.200,214.088 299.179,213.884 298.400 C 213.702 297.704,213.338 297.600,211.099 297.600 C 209.032 297.600,208.381 297.442,207.800 296.800 C 207.275 296.220,206.568 296.000,205.226 296.000 C 203.845 296.000,203.233 295.800,202.809 295.213 C 202.470 294.742,201.549 294.321,200.521 294.167 C 199.532 294.019,198.800 293.693,198.800 293.401 C 198.800 292.836,197.572 292.414,195.903 292.405 C 195.244 292.402,194.607 292.081,194.307 291.600 C 194.032 291.160,193.581 290.800,193.304 290.800 C 193.027 290.800,192.440 290.440,192.000 290.000 C 191.560 289.560,190.771 289.200,190.247 289.200 C 189.630 289.200,189.219 288.918,189.084 288.400 C 188.966 287.947,188.538 287.600,188.099 287.600 C 187.673 287.600,186.998 287.240,186.600 286.800 C 186.202 286.360,185.454 286.000,184.938 286.000 C 184.286 286.000,184.000 285.770,184.000 285.247 C 184.000 284.830,183.643 284.400,183.200 284.284 C 182.760 284.169,182.400 283.808,182.400 283.481 C 182.400 283.154,181.950 282.774,181.400 282.636 C 180.850 282.498,180.400 282.132,180.400 281.824 C 180.400 281.516,179.868 281.147,179.218 281.004 C 178.555 280.858,177.929 280.405,177.791 279.972 C 177.656 279.547,177.198 279.200,176.773 279.200 C 176.348 279.200,176.000 278.994,176.000 278.743 C 176.000 278.492,175.505 277.771,174.900 277.141 C 172.984 275.147,172.486 274.500,172.221 273.665 C 172.079 273.218,171.656 272.771,171.281 272.672 C 170.728 272.526,175.543 272.276,178.524 272.295 C 178.974 272.298,179.167 272.092,179.036 271.750 C 178.837 271.231,179.470 271.010,180.700 271.170 C 180.975 271.206,181.200 271.037,181.200 270.794 C 181.200 270.551,181.020 270.464,180.800 270.600 C 180.580 270.736,180.400 270.621,180.400 270.344 C 180.400 269.952,180.293 269.947,179.920 270.320 C 179.178 271.062,178.916 270.897,178.960 269.720 C 179.010 268.373,181.020 268.004,181.422 269.268 C 181.551 269.677,181.825 269.908,182.029 269.782 C 182.233 269.656,182.400 269.743,182.400 269.976 C 182.400 270.209,182.190 270.400,181.933 270.400 C 181.677 270.400,181.586 270.519,181.731 270.664 C 181.876 270.810,182.387 270.585,182.866 270.164 C 183.345 269.744,183.614 269.613,183.462 269.872 C 183.311 270.132,183.370 270.458,183.593 270.596 C 183.817 270.734,184.000 270.621,184.000 270.344 C 184.000 269.952,184.107 269.947,184.480 270.320 C 185.160 271.000,185.796 270.918,185.221 270.226 C 184.874 269.807,184.861 269.434,185.172 268.852 C 185.858 267.571,185.678 266.794,184.427 265.626 C 183.277 264.551,183.250 264.428,182.976 259.165 C 182.823 256.214,182.544 253.504,182.357 253.142 C 182.133 252.709,182.214 252.321,182.593 252.006 C 182.910 251.743,183.290 251.147,183.437 250.682 C 183.585 250.217,184.492 249.027,185.453 248.039 C 187.377 246.059,187.644 244.820,186.588 242.777 C 185.959 241.561,186.273 240.232,187.360 239.506 C 187.627 239.328,187.511 239.210,187.064 239.206 C 186.659 239.203,186.007 239.597,185.614 240.082 C 184.974 240.872,184.555 240.958,181.568 240.911 C 178.436 240.863,176.935 241.206,176.348 242.106 C 175.766 242.998,162.592 242.609,161.392 241.665 C 160.587 241.032,159.738 240.800,158.226 240.800 L 156.160 240.800 155.615 236.700 C 154.752 230.213,154.647 222.393,155.378 219.178 C 155.720 217.673,156.000 215.393,156.000 214.110 C 156.000 212.585,156.230 211.450,156.664 210.830 C 157.074 210.245,157.399 208.771,157.514 206.975 C 157.669 204.559,157.828 204.034,158.450 203.871 C 159.008 203.725,159.200 203.306,159.200 202.237 C 159.200 201.333,159.497 200.503,160.000 200.000 C 160.440 199.560,160.800 198.823,160.800 198.363 C 160.800 197.903,161.160 197.069,161.600 196.509 C 162.040 195.950,162.400 194.978,162.400 194.349 C 162.400 193.640,162.703 193.017,163.200 192.707 C 163.640 192.432,164.000 191.900,164.000 191.524 C 164.000 191.149,164.450 190.356,165.000 189.762 C 165.550 189.169,166.000 188.483,166.000 188.238 C 166.000 187.993,166.360 187.568,166.800 187.293 C 167.240 187.018,167.600 186.525,167.600 186.197 C 167.600 185.868,167.778 185.600,167.995 185.600 C 168.212 185.600,168.654 184.967,168.977 184.194 C 169.300 183.421,169.842 182.682,170.182 182.552 C 170.522 182.421,170.800 181.974,170.800 181.557 C 170.800 181.067,171.082 180.800,171.600 180.800 C 172.133 180.800,172.400 180.533,172.400 180.000 C 172.400 179.535,172.667 179.200,173.037 179.200 C 173.388 179.200,173.767 178.846,173.881 178.413 C 173.994 177.981,174.440 177.514,174.872 177.377 C 175.304 177.240,175.577 176.918,175.479 176.662 C 175.255 176.078,176.063 175.288,176.675 175.492 C 176.926 175.575,177.243 175.294,177.379 174.865 C 177.515 174.437,177.981 173.994,178.413 173.881 C 178.846 173.767,179.200 173.388,179.200 173.037 C 179.200 172.667,179.535 172.400,180.000 172.400 C 180.533 172.400,180.800 172.133,180.800 171.600 C 180.800 171.067,181.067 170.800,181.600 170.800 C 182.118 170.800,182.400 170.533,182.400 170.045 C 182.400 169.496,182.789 169.216,183.821 169.022 C 184.603 168.876,185.342 168.496,185.464 168.178 C 185.586 167.860,185.932 167.600,186.234 167.600 C 186.535 167.600,187.075 167.152,187.435 166.603 C 187.794 166.055,188.225 165.692,188.393 165.796 C 188.562 165.900,189.181 165.538,189.770 164.993 C 190.359 164.447,191.149 164.000,191.524 164.000 C 191.900 164.000,192.432 163.640,192.707 163.200 C 193.025 162.690,193.640 162.400,194.400 162.400 C 195.160 162.400,195.775 162.110,196.093 161.600 C 196.426 161.066,197.026 160.800,197.896 160.800 C 198.705 160.800,199.533 160.467,200.077 159.923 C 200.663 159.337,201.410 159.059,202.325 159.085 C 203.355 159.114,203.744 158.935,203.894 158.362 C 204.004 157.943,204.297 157.588,204.547 157.573 C 204.796 157.559,206.080 157.498,207.400 157.439 C 208.961 157.368,210.263 157.045,211.126 156.514 C 212.155 155.880,212.940 155.733,214.626 155.857 C 216.016 155.959,216.800 155.861,216.800 155.585 C 216.800 155.347,216.984 155.267,217.209 155.406 C 217.731 155.728,223.200 154.731,223.200 154.313 C 223.200 154.141,223.650 154.000,224.200 154.000 C 224.750 154.000,225.200 154.180,225.200 154.400 C 225.200 154.620,225.819 154.800,226.576 154.800 C 227.333 154.800,228.064 154.620,228.200 154.400 C 228.346 154.164,227.896 154.000,227.100 154.000 C 226.359 154.000,225.404 153.717,224.976 153.370 C 224.549 153.024,224.425 152.855,224.700 152.994 C 224.975 153.133,225.200 153.057,225.200 152.824 C 225.200 152.591,224.975 152.379,224.700 152.354 C 222.412 152.145,220.021 151.939,219.133 151.876 C 218.547 151.834,217.932 151.665,217.767 151.500 C 217.311 151.044,216.717 151.142,217.015 151.624 C 217.195 151.916,216.484 151.969,214.739 151.794 C 211.992 151.518,211.022 151.037,212.359 150.613 C 212.847 150.458,213.285 149.897,213.405 149.273 C 213.518 148.683,213.911 147.390,214.278 146.400 C 215.274 143.709,215.473 135.876,214.579 134.512 C 213.687 133.151,213.971 129.703,215.039 128.922 C 215.960 128.248,216.329 128.948,216.372 131.451 C 216.413 133.847,217.382 134.534,218.646 133.065 C 219.472 132.104,219.635 131.679,219.592 130.596 C 219.515 128.654,222.437 127.199,223.600 128.600 C 225.266 130.608,226.601 128.735,225.000 126.636 C 224.450 125.914,224.000 125.116,224.000 124.862 C 224.000 124.607,223.328 124.369,222.500 124.331 C 221.437 124.282,221.700 124.195,223.400 124.031 L 225.800 123.800 224.837 122.800 C 224.307 122.250,223.992 122.007,224.136 122.261 M110.800 126.649 C 110.800 127.180,110.909 127.208,111.400 126.800 C 111.730 126.526,112.000 126.234,112.000 126.151 C 112.000 126.068,111.730 126.000,111.400 126.000 C 111.070 126.000,110.800 126.292,110.800 126.649 M73.347 130.856 C 72.396 132.078,72.280 133.076,73.204 132.086 C 73.673 131.583,73.993 130.979,73.914 130.742 C 73.823 130.469,73.616 130.511,73.347 130.856 M69.771 141.371 C 69.348 141.681,69.140 142.074,69.310 142.243 C 69.480 142.413,69.919 142.252,70.286 141.886 C 71.150 141.021,70.770 140.641,69.771 141.371 M68.232 147.712 C 67.825 148.324,67.610 148.944,67.755 149.089 C 68.197 149.531,69.287 148.144,69.125 147.347 C 68.992 146.698,68.876 146.746,68.232 147.712 M99.900 149.076 C 99.515 149.176,99.200 149.515,99.200 149.829 C 99.200 150.661,99.904 150.527,100.400 149.600 C 100.635 149.160,100.777 148.821,100.714 148.846 C 100.651 148.872,100.285 148.975,99.900 149.076 M230.197 154.395 C 230.335 154.618,231.236 154.800,232.200 154.800 C 233.164 154.800,234.064 154.980,234.200 155.200 C 234.577 155.811,236.905 155.713,236.594 155.100 C 236.455 154.825,236.599 154.915,236.914 155.300 C 237.515 156.033,239.435 156.304,238.996 155.593 C 238.858 155.370,238.596 155.279,238.414 155.391 C 238.233 155.504,237.977 155.317,237.846 154.977 C 237.711 154.623,237.778 154.463,238.005 154.603 C 238.222 154.737,238.400 154.673,238.400 154.460 C 238.400 154.238,236.602 154.055,234.173 154.031 C 231.412 154.004,230.033 154.130,230.197 154.395 M66.800 157.824 C 66.800 159.471,66.949 160.355,67.200 160.200 C 67.420 160.064,67.600 158.883,67.600 157.576 C 67.600 156.259,67.422 155.200,67.200 155.200 C 66.974 155.200,66.800 156.341,66.800 157.824 M98.300 156.067 C 97.687 156.709,97.199 160.535,97.807 159.926 C 98.012 159.721,99.197 155.433,99.067 155.367 C 99.030 155.349,98.685 155.663,98.300 156.067 M240.854 159.313 C 240.825 159.925,241.104 161.095,241.475 161.913 L 242.149 163.400 242.305 162.266 C 242.399 161.574,242.225 160.950,241.858 160.666 C 241.527 160.410,241.178 159.750,241.083 159.200 C 240.915 158.234,240.907 158.237,240.854 159.313 M241.264 177.419 C 241.009 177.979,240.825 178.924,240.854 179.519 C 240.900 180.418,240.938 180.453,241.078 179.729 C 241.172 179.250,241.507 178.643,241.824 178.380 C 242.442 177.867,242.620 176.400,242.064 176.400 C 241.880 176.400,241.520 176.858,241.264 177.419 M66.421 178.472 C 66.629 179.199,66.800 180.460,66.800 181.274 C 66.800 182.087,66.988 182.869,67.218 183.011 C 67.499 183.184,67.597 182.303,67.518 180.339 C 67.422 177.958,67.273 177.384,66.721 177.279 C 66.133 177.167,66.093 177.328,66.421 178.472 M97.600 180.576 C 97.600 181.838,97.779 182.800,98.013 182.800 C 98.240 182.800,98.604 183.205,98.821 183.700 C 99.167 184.487,99.189 184.449,98.996 183.400 C 98.874 182.740,98.667 181.431,98.534 180.491 C 98.179 177.966,97.600 178.019,97.600 180.576 M271.479 184.817 C 270.752 185.666,270.591 186.400,271.132 186.400 C 271.540 186.400,272.608 184.475,272.346 184.213 C 272.242 184.109,271.852 184.381,271.479 184.817 M239.899 185.777 C 239.515 186.058,239.214 186.628,239.232 187.044 C 239.256 187.618,239.319 187.655,239.496 187.200 C 239.625 186.870,240.015 186.390,240.364 186.133 C 240.713 185.876,240.909 185.575,240.799 185.465 C 240.689 185.355,240.284 185.496,239.899 185.777 M99.200 188.938 C 99.200 189.302,99.455 189.600,99.767 189.600 C 100.078 189.600,100.424 189.825,100.535 190.100 C 100.652 190.389,100.750 190.415,100.768 190.162 C 100.786 189.921,100.440 189.398,100.000 189.000 C 99.281 188.349,99.200 188.343,99.200 188.938 M68.228 190.831 C 68.713 191.367,69.036 191.493,69.139 191.184 C 69.226 190.922,69.051 190.551,68.749 190.360 C 67.751 189.728,67.464 189.987,68.228 190.831 M238.261 190.882 C 237.416 192.136,237.715 193.142,238.653 192.204 C 238.985 191.872,239.196 191.196,239.123 190.701 C 238.992 189.813,238.980 189.816,238.261 190.882 M270.400 193.533 C 270.400 193.790,270.130 194.000,269.800 194.000 C 269.400 194.000,269.200 194.400,269.200 195.200 C 269.200 195.860,269.299 196.400,269.420 196.400 C 269.767 196.400,270.873 193.540,270.623 193.290 C 270.501 193.167,270.400 193.277,270.400 193.533 M101.147 194.759 C 101.448 194.950,101.850 195.352,102.041 195.653 C 102.296 196.056,102.389 195.963,102.394 195.300 C 102.398 194.630,102.170 194.402,101.500 194.406 C 100.837 194.411,100.744 194.504,101.147 194.759 M236.500 195.798 C 235.603 196.817,235.875 197.725,236.800 196.800 C 237.604 195.996,237.859 195.187,237.300 195.215 C 237.135 195.224,236.775 195.486,236.500 195.798 M69.246 196.420 C 69.198 197.066,69.927 198.000,70.480 198.000 C 70.656 198.000,70.800 197.820,70.800 197.600 C 70.800 197.380,70.543 197.200,70.229 197.200 C 69.915 197.200,69.576 196.885,69.476 196.500 C 69.335 195.962,69.282 195.944,69.246 196.420 M102.400 198.567 C 102.400 198.915,102.685 199.200,103.033 199.200 C 103.740 199.200,103.617 198.339,102.875 198.092 C 102.614 198.005,102.400 198.218,102.400 198.567 M268.300 200.083 C 267.915 200.478,267.600 201.020,267.600 201.289 C 267.600 201.561,267.975 201.403,268.447 200.931 C 268.913 200.465,269.228 199.922,269.147 199.725 C 269.066 199.528,268.685 199.689,268.300 200.083 M234.646 200.586 C 234.291 201.128,234.005 201.713,234.012 201.886 C 234.019 202.059,234.208 201.885,234.432 201.500 C 234.656 201.115,235.101 200.800,235.420 200.800 C 235.739 200.800,236.000 200.530,236.000 200.200 C 236.000 199.298,235.373 199.477,234.646 200.586 M70.846 201.656 C 70.821 202.016,71.154 202.736,71.587 203.256 L 72.373 204.200 72.387 203.300 C 72.394 202.781,72.158 202.400,71.829 202.400 C 71.515 202.400,71.176 202.085,71.076 201.700 C 70.919 201.102,70.886 201.095,70.846 201.656 M104.000 201.800 C 104.000 202.130,104.354 202.400,104.787 202.400 C 105.323 202.400,105.501 202.208,105.345 201.800 C 105.218 201.470,104.864 201.200,104.557 201.200 C 104.251 201.200,104.000 201.470,104.000 201.800 M233.067 203.067 C 232.579 203.554,232.791 204.400,233.400 204.400 C 233.733 204.400,234.000 204.044,234.000 203.600 C 234.000 202.803,233.574 202.560,233.067 203.067 M106.000 204.705 C 106.000 204.909,106.367 205.408,106.815 205.814 C 107.617 206.539,107.624 206.536,107.277 205.596 C 106.925 204.645,106.000 203.999,106.000 204.705 M230.938 206.617 C 230.591 207.521,230.902 207.569,231.700 206.733 C 232.292 206.113,232.306 206.000,231.787 206.000 C 231.451 206.000,231.068 206.278,230.938 206.617 M108.300 208.333 C 109.098 209.169,109.409 209.121,109.062 208.217 C 108.932 207.878,108.549 207.600,108.213 207.600 C 107.694 207.600,107.708 207.713,108.300 208.333 M74.400 211.413 C 74.400 211.749,74.678 212.132,75.017 212.262 C 75.921 212.609,75.969 212.298,75.133 211.500 C 74.513 210.908,74.400 210.894,74.400 211.413 M227.800 211.200 C 227.664 211.420,227.823 211.600,228.153 211.600 C 228.483 211.600,228.864 211.420,229.000 211.200 C 229.136 210.980,228.977 210.800,228.647 210.800 C 228.317 210.800,227.936 210.980,227.800 211.200 M77.600 218.213 C 77.600 218.549,77.878 218.932,78.217 219.062 C 79.121 219.409,79.169 219.098,78.333 218.300 C 77.713 217.708,77.600 217.694,77.600 218.213 M220.926 219.963 C 220.816 220.383,220.383 220.816,219.963 220.926 C 219.543 221.035,219.214 221.367,219.232 221.663 C 219.255 222.067,219.313 222.076,219.465 221.700 C 219.576 221.425,219.927 221.200,220.246 221.200 C 220.564 221.200,220.941 220.885,221.083 220.500 C 221.225 220.115,221.535 219.668,221.771 219.506 C 222.052 219.314,222.015 219.210,221.663 219.206 C 221.367 219.203,221.035 219.543,220.926 219.963 M259.900 220.067 C 259.308 220.687,259.294 220.800,259.813 220.800 C 260.149 220.800,260.532 220.522,260.662 220.183 C 261.009 219.279,260.698 219.231,259.900 220.067 M79.600 221.600 C 79.835 222.040,80.230 222.400,80.476 222.400 C 80.722 222.400,80.598 222.040,80.200 221.600 C 79.802 221.160,79.408 220.800,79.324 220.800 C 79.240 220.800,79.365 221.160,79.600 221.600 M82.412 226.251 C 82.394 226.911,83.491 227.709,84.087 227.469 C 84.417 227.337,84.358 227.252,83.920 227.232 C 83.546 227.214,83.056 226.885,82.832 226.500 C 82.608 226.115,82.419 226.003,82.412 226.251 M213.400 226.800 C 212.698 227.576,212.701 227.600,213.513 227.600 C 214.104 227.600,214.333 227.364,214.290 226.800 C 214.257 226.360,214.206 226.000,214.177 226.000 C 214.148 226.000,213.798 226.360,213.400 226.800 M210.938 228.217 C 210.566 229.188,211.002 229.282,211.798 228.402 C 212.460 227.670,212.465 227.600,211.849 227.600 C 211.478 227.600,211.068 227.878,210.938 228.217 M254.480 228.080 C 253.763 228.797,253.899 229.152,254.800 228.916 C 255.240 228.801,255.600 228.458,255.600 228.153 C 255.600 227.473,255.119 227.441,254.480 228.080 M86.000 231.413 C 86.000 231.749,86.278 232.132,86.617 232.262 C 87.521 232.609,87.569 232.298,86.733 231.500 C 86.113 230.908,86.000 230.894,86.000 231.413 M206.138 231.417 C 205.778 232.355,206.167 232.466,206.719 231.582 C 207.028 231.087,207.054 230.800,206.791 230.800 C 206.562 230.800,206.268 231.078,206.138 231.417 M203.067 233.067 C 202.485 233.649,202.825 234.319,203.600 234.116 C 204.040 234.001,204.400 233.658,204.400 233.353 C 204.400 232.782,203.537 232.596,203.067 233.067 M200.500 234.670 C 199.465 235.392,199.328 236.000,200.200 236.000 C 200.530 236.000,200.800 235.739,200.800 235.420 C 200.800 235.101,201.115 234.656,201.500 234.432 C 201.885 234.208,202.020 234.028,201.800 234.033 C 201.580 234.038,200.995 234.324,200.500 234.670 M249.592 234.610 C 249.314 234.945,249.197 235.331,249.333 235.467 C 249.624 235.757,250.800 234.863,250.800 234.351 C 250.800 233.800,250.148 233.940,249.592 234.610 M195.700 236.598 C 195.020 237.370,195.071 237.600,195.920 237.600 C 196.662 237.600,197.600 236.885,197.600 236.320 C 197.600 235.790,196.236 235.990,195.700 236.598 M248.100 237.020 C 247.605 237.495,247.200 238.075,247.200 238.309 C 247.200 238.542,246.975 238.824,246.700 238.935 C 246.308 239.093,246.311 239.144,246.713 239.168 C 246.994 239.186,247.346 238.885,247.493 238.500 C 247.640 238.115,248.130 237.500,248.581 237.134 C 249.031 236.768,249.310 236.399,249.200 236.313 C 249.090 236.227,248.595 236.545,248.100 237.020 M190.744 238.387 L 189.800 239.173 191.253 239.187 C 192.377 239.197,192.754 239.018,192.916 238.400 C 193.194 237.335,192.015 237.328,190.744 238.387 M93.625 240.300 C 94.694 241.519,97.273 244.000,97.473 244.000 C 97.543 244.000,97.600 243.640,97.600 243.200 C 97.600 242.760,97.349 242.400,97.042 242.400 C 96.365 242.400,94.000 240.254,94.000 239.640 C 94.000 239.398,93.699 239.200,93.330 239.200 C 92.775 239.200,92.826 239.389,93.625 240.300 M238.800 246.800 C 238.800 247.020,238.596 247.200,238.346 247.200 C 238.096 247.200,237.475 247.650,236.965 248.200 C 236.455 248.750,236.199 249.200,236.396 249.200 C 236.593 249.200,236.990 248.873,237.277 248.474 C 237.565 248.074,238.115 247.630,238.500 247.486 C 239.121 247.255,239.515 246.400,239.000 246.400 C 238.890 246.400,238.800 246.580,238.800 246.800 M234.392 249.810 C 234.114 250.145,233.997 250.531,234.133 250.667 C 234.424 250.957,235.600 250.063,235.600 249.551 C 235.600 249.000,234.948 249.140,234.392 249.810 M106.000 251.413 C 106.000 251.749,106.278 252.132,106.617 252.262 C 107.521 252.609,107.569 252.298,106.733 251.500 C 106.113 250.908,106.000 250.894,106.000 251.413 M108.092 252.875 C 108.339 253.617,109.200 253.740,109.200 253.033 C 109.200 252.685,108.915 252.400,108.567 252.400 C 108.218 252.400,108.005 252.614,108.092 252.875 M228.028 254.566 C 227.730 254.925,227.605 255.338,227.750 255.483 C 228.123 255.857,228.922 254.967,228.730 254.391 C 228.620 254.060,228.403 254.114,228.028 254.566 M112.887 256.462 C 112.972 256.716,113.441 257.071,113.930 257.252 C 114.724 257.546,114.773 257.497,114.395 256.790 C 113.949 255.958,112.623 255.669,112.887 256.462 M116.000 258.213 C 116.000 258.549,116.278 258.932,116.617 259.062 C 117.521 259.409,117.569 259.098,116.733 258.300 C 116.113 257.708,116.000 257.694,116.000 258.213 M219.900 260.067 C 219.308 260.687,219.294 260.800,219.813 260.800 C 220.149 260.800,220.532 260.522,220.662 260.183 C 221.009 259.279,220.698 259.231,219.900 260.067 M121.800 261.600 C 122.198 262.040,122.569 262.400,122.625 262.400 C 122.680 262.400,122.631 262.040,122.516 261.600 C 122.401 261.160,122.030 260.800,121.691 260.800 C 121.174 260.800,121.191 260.927,121.800 261.600 M216.700 261.667 C 216.167 262.225,216.133 262.400,216.557 262.400 C 216.864 262.400,217.228 262.104,217.367 261.743 C 217.717 260.831,217.520 260.808,216.700 261.667 M209.200 264.580 C 209.200 264.899,208.885 265.344,208.500 265.568 C 208.115 265.792,207.941 265.981,208.114 265.988 C 208.624 266.008,210.400 264.739,210.400 264.354 C 210.400 264.159,210.130 264.000,209.800 264.000 C 209.470 264.000,209.200 264.261,209.200 264.580 M204.400 267.061 C 203.849 267.352,203.669 267.588,204.000 267.588 C 204.690 267.588,205.870 266.920,205.588 266.689 C 205.485 266.604,204.950 266.771,204.400 267.061 M200.520 268.141 C 200.344 268.439,199.930 268.785,199.600 268.910 C 199.090 269.103,199.095 269.142,199.638 269.168 C 199.989 269.186,200.602 268.840,201.000 268.400 C 201.398 267.960,201.525 267.600,201.282 267.600 C 201.039 267.600,200.696 267.844,200.520 268.141 M193.894 269.963 C 193.715 270.645,193.816 270.683,194.848 270.323 C 196.459 269.762,196.670 269.200,195.270 269.200 C 194.449 269.200,194.033 269.430,193.894 269.963 M185.783 271.228 C 185.637 271.463,185.132 271.812,184.659 272.003 C 183.807 272.346,183.808 272.350,184.726 272.375 C 185.813 272.404,187.200 271.738,187.200 271.186 C 187.200 270.663,186.112 270.695,185.783 271.228 " stroke="none" fill="#6b68e0" fill-rule="evenodd"></path></g></svg>