<svg id="svg" version="1.1" xmlns="http://www.w3.org/2000/svg" xmlns:xlink="http://www.w3.org/1999/xlink" width="400" height="409.9800399201597" viewBox="0, 0, 400,409.9800399201597"><g id="svgg"><path id="path0" d="M158.882 86.255 C 136.597 93.027,117.914 98.824,117.365 99.139 C 113.162 101.546,115.157 108.590,120.040 108.581 C 120.655 108.580,138.806 103.219,160.376 96.669 L 199.594 84.758 238.966 96.671 C 260.621 103.222,278.865 108.583,279.508 108.583 C 284.303 108.583,286.172 101.875,282.118 99.219 C 281.487 98.805,206.495 75.877,199.851 74.066 C 199.604 73.999,181.168 79.484,158.882 86.255 M85.387 109.180 C 83.142 110.400,82.689 111.890,81.634 121.523 C 80.205 134.559,80.206 155.206,81.637 169.046 C 89.311 243.315,128.815 301.105,194.112 333.583 L 199.601 336.314 205.090 333.583 C 281.589 295.533,324.332 219.122,318.559 130.739 C 317.355 112.313,316.387 109.108,311.895 108.690 C 308.054 108.332,309.817 105.350,283.467 156.788 L 259.694 203.196 199.669 203.095 L 139.645 202.994 115.830 156.487 C 93.573 113.023,91.923 109.934,90.618 109.282 C 88.946 108.446,86.813 108.405,85.387 109.180 M110.584 168.862 C 120.971 189.172,142.471 231.007,158.362 261.829 C 174.252 292.651,187.193 317.930,187.120 318.003 C 186.896 318.227,175.916 311.216,171.009 307.716 C 121.472 272.383,94.394 220.795,91.003 155.289 C 90.561 146.757,90.832 130.953,91.408 131.607 C 91.568 131.788,100.198 148.553,110.584 168.862 M308.433 147.705 C 307.382 215.942,279.852 270.870,228.258 307.669 C 222.840 311.533,212.837 317.862,212.423 317.688 C 212.261 317.620,225.343 292.030,241.494 260.821 C 257.644 229.611,279.212 187.741,289.421 167.774 C 311.141 125.299,308.739 127.834,308.433 147.705 M253.892 214.013 C 253.892 214.564,199.891 318.962,199.606 318.962 C 199.385 318.962,145.309 214.250,145.309 213.822 C 145.309 213.685,169.741 213.573,199.601 213.573 C 238.864 213.573,253.892 213.695,253.892 214.013 " stroke="none" fill="#fbfbfa" fill-rule="evenodd"></path><path id="path1" d="M193.413 14.242 C 55.635 18.942,-32.159 163.843,27.523 288.037 C 74.616 386.035,195.561 425.170,290.757 373.214 C 412.948 306.524,425.502 135.931,314.371 52.305 C 281.777 27.777,235.589 12.545,198.403 14.060 C 197.415 14.100,195.170 14.182,193.413 14.242 M241.006 86.221 C 264.513 93.321,282.291 98.890,282.737 99.294 C 285.711 101.986,285.070 106.706,281.517 108.278 C 279.246 109.282,283.537 110.428,238.621 96.829 L 199.607 85.017 161.580 96.562 C 116.274 110.316,120.553 109.119,118.592 108.591 C 114.536 107.498,113.492 100.881,117.070 98.940 C 118.147 98.355,198.292 73.952,199.328 73.894 C 199.727 73.871,218.483 79.418,241.006 86.221 M90.440 108.936 C 92.358 109.807,89.634 104.736,119.092 162.275 L 139.939 202.994 199.722 202.994 L 259.505 202.994 283.151 156.823 C 296.156 131.429,307.137 110.275,307.553 109.815 C 309.897 107.225,314.735 108.181,316.478 111.578 C 317.746 114.049,319.028 130.561,319.035 144.511 C 319.077 230.061,277.813 298.012,203.493 334.781 L 199.601 336.707 195.709 334.781 C 123.233 298.925,82.342 233.586,80.378 150.499 C 80.007 134.779,81.478 114.374,83.226 110.992 C 84.464 108.598,87.678 107.682,90.440 108.936 M286.767 173.544 C 275.097 196.328,253.752 237.758,239.333 265.610 C 209.296 323.630,212.175 317.794,214.199 316.576 C 265.721 285.574,296.982 238.423,305.953 178.184 C 307.861 165.375,308.898 147.049,308.284 137.017 L 307.984 132.118 286.767 173.544 M91.189 133.944 C 91.035 134.764,91.013 141.205,91.139 148.257 C 92.462 222.092,125.305 280.989,185.003 316.584 C 187.058 317.810,189.903 323.597,158.508 262.697 C 143.391 233.373,122.186 192.136,111.386 171.058 C 88.962 127.297,91.545 132.045,91.189 133.944 M145.775 214.327 C 146.204 215.472,199.437 318.536,199.601 318.539 C 199.758 318.542,229.662 260.891,250.360 220.681 L 253.813 213.972 199.728 213.972 C 168.295 213.972,145.698 214.121,145.775 214.327 " stroke="none" fill="#e4ac4c" fill-rule="evenodd"></path><path id="path2" d="M80.332 136.128 C 80.332 136.896,80.414 137.211,80.515 136.826 C 80.615 136.442,80.615 135.813,80.515 135.429 C 80.414 135.045,80.332 135.359,80.332 136.128 M308.284 137.924 C 308.289 138.802,308.370 139.115,308.466 138.618 C 308.561 138.122,308.558 137.403,308.458 137.021 C 308.358 136.640,308.280 137.046,308.284 137.924 M319.096 144.511 C 319.096 146.158,319.167 146.831,319.253 146.008 C 319.339 145.185,319.339 143.837,319.253 143.014 C 319.167 142.191,319.096 142.864,319.096 144.511 M308.292 151.697 C 308.292 152.685,308.370 153.089,308.465 152.595 C 308.561 152.101,308.561 151.292,308.465 150.798 C 308.370 150.304,308.292 150.709,308.292 151.697 M80.332 153.693 C 80.332 154.461,80.414 154.775,80.515 154.391 C 80.615 154.007,80.615 153.378,80.515 152.994 C 80.414 152.610,80.332 152.924,80.332 153.693 M172.355 213.872 C 187.340 213.930,211.861 213.930,226.846 213.872 C 241.831 213.814,229.571 213.767,199.601 213.767 C 169.631 213.767,157.370 213.814,172.355 213.872 M252.884 286.727 L 250.100 289.621 252.994 286.837 C 255.682 284.252,256.071 283.832,255.778 283.832 C 255.717 283.832,254.415 285.135,252.884 286.727 M145.908 286.627 C 147.212 287.944,148.368 289.022,148.478 289.022 C 148.588 289.022,147.611 287.944,146.307 286.627 C 145.004 285.309,143.847 284.232,143.738 284.232 C 143.628 284.232,144.605 285.309,145.908 286.627 " stroke="none" fill="#edcc94" fill-rule="evenodd"></path><path id="path3" d="M318.655 133.333 C 318.655 134.102,318.738 134.416,318.838 134.032 C 318.938 133.648,318.938 133.019,318.838 132.635 C 318.738 132.250,318.655 132.565,318.655 133.333 M308.284 135.130 C 308.289 136.008,308.370 136.320,308.466 135.824 C 308.561 135.327,308.558 134.609,308.458 134.227 C 308.358 133.845,308.280 134.251,308.284 135.130 M80.374 140.120 C 80.374 141.766,80.444 142.440,80.530 141.617 C 80.616 140.793,80.616 139.446,80.530 138.623 C 80.444 137.799,80.374 138.473,80.374 140.120 M90.778 145.110 C 90.779 148.403,90.841 149.697,90.916 147.986 C 90.991 146.274,90.990 143.580,90.915 141.998 C 90.839 140.416,90.778 141.816,90.778 145.110 M80.374 149.701 C 80.374 151.347,80.444 152.021,80.530 151.198 C 80.616 150.374,80.616 149.027,80.530 148.204 C 80.444 147.380,80.374 148.054,80.374 149.701 M308.276 154.491 C 308.276 155.259,308.358 155.574,308.459 155.190 C 308.559 154.805,308.559 154.177,308.459 153.792 C 308.358 153.408,308.276 153.723,308.276 154.491 M318.655 156.088 C 318.655 156.856,318.738 157.171,318.838 156.786 C 318.938 156.402,318.938 155.773,318.838 155.389 C 318.738 155.005,318.655 155.319,318.655 156.088 " stroke="none" fill="#f4d4ac" fill-rule="evenodd"></path><path id="path4" d="" stroke="none" fill="#ecbc74" fill-rule="evenodd"></path><path id="path5" d="M263.052 291.717 L 261.677 293.214 263.174 291.838 C 263.997 291.081,264.671 290.408,264.671 290.341 C 264.671 290.036,264.333 290.323,263.052 291.717 M138.323 294.212 C 140.070 295.968,141.588 297.405,141.698 297.405 C 141.808 297.405,140.469 295.968,138.723 294.212 C 136.976 292.455,135.458 291.018,135.348 291.018 C 135.238 291.018,136.577 292.455,138.323 294.212 M258.262 296.507 L 256.886 298.004 258.383 296.628 C 259.777 295.348,260.064 295.010,259.759 295.010 C 259.692 295.010,259.019 295.684,258.262 296.507 " stroke="none" fill="#e4b464" fill-rule="evenodd"></path><path id="path6" d="" stroke="none" fill="#f4b054" fill-rule="evenodd"></path><path id="path7" d="" stroke="none" fill="#e4b058" fill-rule="evenodd"></path></g></svg>