<svg id="svg" version="1.1" xmlns="http://www.w3.org/2000/svg" xmlns:xlink="http://www.w3.org/1999/xlink" width="400" height="400" viewBox="0, 0, 400,400"><g id="svgg"><path id="path0" d="M0.000 200.000 L 0.000 400.000 200.000 400.000 L 400.000 400.000 400.000 200.000 L 400.000 0.000 200.000 0.000 L 0.000 0.000 0.000 200.000 M213.800 81.788 C 217.251 82.424,223.142 83.449,227.000 84.085 C 228.320 84.303,230.390 84.814,231.600 85.221 C 232.810 85.627,234.520 86.137,235.400 86.353 C 240.438 87.588,253.395 93.706,258.501 97.259 C 259.107 97.681,260.277 98.464,261.101 98.999 C 265.651 101.953,272.755 108.466,277.274 113.827 C 281.941 119.364,285.634 125.589,289.751 134.860 C 291.969 139.855,288.929 144.382,282.402 145.802 C 281.632 145.970,280.462 146.334,279.802 146.612 C 279.141 146.890,277.160 147.513,275.400 147.996 C 273.640 148.479,271.300 149.204,270.200 149.607 C 269.100 150.010,267.570 150.458,266.800 150.602 C 266.030 150.746,263.330 151.557,260.800 152.403 C 258.270 153.250,254.850 154.331,253.200 154.806 C 251.550 155.280,249.164 156.013,247.898 156.434 C 242.730 158.154,237.953 156.815,236.546 153.253 C 235.802 151.370,234.470 148.417,233.906 147.400 C 233.662 146.960,233.008 145.724,232.451 144.654 C 229.481 138.945,220.615 132.219,213.400 130.203 C 211.125 129.567,209.925 129.333,204.154 128.397 C 198.361 127.457,184.543 128.278,181.738 129.729 C 181.097 130.060,179.867 130.464,179.004 130.626 C 178.142 130.787,176.618 131.427,175.618 132.047 C 174.618 132.667,173.150 133.531,172.355 133.967 C 164.189 138.448,162.522 152.133,169.214 159.755 C 171.383 162.225,176.231 164.926,180.800 166.208 C 181.350 166.363,182.340 166.723,183.000 167.010 C 184.966 167.863,189.657 169.144,191.800 169.412 C 192.900 169.550,194.700 169.908,195.800 170.208 C 196.900 170.508,200.050 171.134,202.800 171.599 C 208.341 172.537,212.290 173.269,216.800 174.197 C 218.450 174.536,221.330 175.107,223.200 175.465 C 225.070 175.823,229.195 176.900,232.366 177.858 C 235.537 178.816,238.417 179.603,238.766 179.607 C 239.488 179.615,245.240 181.453,249.400 183.005 C 254.411 184.875,256.569 185.634,258.400 186.172 C 261.530 187.090,269.627 191.304,274.481 194.542 C 285.495 201.887,295.935 215.331,297.411 224.068 C 297.565 224.976,297.918 226.277,298.196 226.959 C 298.474 227.642,298.824 229.100,298.975 230.200 C 299.125 231.300,299.530 233.626,299.874 235.368 C 300.568 238.879,300.444 249.506,299.662 253.600 C 299.430 254.810,299.058 256.970,298.834 258.400 C 298.382 261.286,297.022 266.561,296.410 267.800 C 296.193 268.240,295.492 270.043,294.852 271.807 C 290.865 282.799,280.763 294.822,269.600 301.861 C 264.382 305.151,256.226 309.278,253.112 310.203 C 251.950 310.548,250.460 311.022,249.800 311.257 C 244.981 312.967,236.237 315.052,230.000 315.978 C 228.350 316.223,225.920 316.631,224.600 316.884 C 219.790 317.807,190.655 317.544,184.600 316.523 C 181.740 316.041,178.140 315.441,176.600 315.190 C 168.028 313.793,166.203 313.354,161.600 311.579 C 160.610 311.198,159.046 310.762,158.123 310.611 C 157.201 310.461,155.768 309.992,154.939 309.569 C 154.109 309.146,153.201 308.800,152.920 308.800 C 152.263 308.800,141.343 303.370,138.200 301.481 C 135.101 299.618,131.030 296.621,126.400 292.793 C 125.850 292.338,124.523 291.249,123.451 290.373 C 122.379 289.496,120.669 287.744,119.651 286.478 C 118.633 285.213,117.402 283.784,116.915 283.304 C 116.429 282.824,114.950 280.759,113.629 278.715 C 112.309 276.672,110.944 274.596,110.597 274.103 C 109.462 272.488,106.743 267.134,106.201 265.449 C 105.910 264.542,105.190 262.540,104.603 261.000 C 99.128 246.648,99.904 243.624,109.800 240.762 C 112.000 240.126,114.160 239.603,114.600 239.600 C 115.424 239.595,123.365 237.393,124.020 236.988 C 124.222 236.863,125.515 236.514,126.893 236.213 C 131.176 235.277,134.917 234.381,137.000 233.791 C 151.238 229.764,153.135 230.305,156.347 239.306 C 158.048 244.075,158.936 246.219,159.461 246.833 C 159.759 247.181,160.281 248.282,160.620 249.278 C 162.413 254.539,172.970 263.658,181.000 266.882 C 193.214 271.785,219.151 271.950,229.075 267.188 C 230.436 266.534,231.682 266.000,231.844 266.000 C 232.279 266.000,238.100 261.184,238.800 260.245 C 242.653 255.082,243.704 251.032,242.863 244.600 C 241.906 237.283,235.177 231.371,224.000 228.025 C 222.350 227.532,220.010 226.804,218.800 226.408 C 216.239 225.570,210.957 224.447,202.800 223.006 C 199.610 222.442,195.920 221.727,194.600 221.416 C 193.280 221.105,190.973 220.743,189.473 220.611 C 187.974 220.480,186.084 220.109,185.273 219.788 C 184.463 219.467,182.990 219.039,182.000 218.838 C 178.229 218.071,167.789 215.150,166.600 214.529 C 166.160 214.299,165.102 214.004,164.248 213.872 C 162.740 213.640,159.227 212.411,157.200 211.406 C 156.650 211.134,155.608 210.799,154.885 210.662 C 153.758 210.449,145.198 206.601,142.509 205.098 C 130.670 198.481,119.702 188.629,115.681 181.000 C 113.966 177.747,111.200 171.559,111.200 170.976 C 111.200 170.645,110.914 169.705,110.565 168.887 C 109.806 167.112,108.953 161.702,108.321 154.669 C 107.523 145.786,109.710 130.034,112.271 126.211 C 112.562 125.777,112.803 125.057,112.806 124.611 C 112.809 124.165,113.067 123.350,113.380 122.800 C 113.692 122.250,114.591 120.467,115.376 118.838 C 116.162 117.209,117.434 115.109,118.203 114.171 C 118.971 113.233,119.600 112.338,119.600 112.182 C 119.600 111.675,125.058 105.400,126.558 104.183 C 127.359 103.532,128.986 102.190,130.172 101.200 C 132.210 99.500,134.954 97.469,136.365 96.616 C 136.714 96.405,137.450 95.939,138.000 95.582 C 138.829 95.042,143.552 92.468,148.000 90.130 C 148.550 89.841,149.200 89.604,149.445 89.602 C 149.689 89.601,151.129 89.030,152.645 88.334 C 155.397 87.070,160.423 85.508,164.200 84.743 C 165.300 84.521,167.100 84.090,168.200 83.786 C 169.300 83.482,172.810 82.870,176.000 82.427 C 179.190 81.984,182.250 81.551,182.800 81.465 C 185.913 80.979,210.810 81.238,213.800 81.788 " stroke="none" fill="#eb0c7b" fill-rule="evenodd"></path><path id="path1" d="M182.800 81.465 C 182.250 81.551,179.190 81.984,176.000 82.427 C 172.810 82.870,169.300 83.482,168.200 83.786 C 167.100 84.090,165.300 84.521,164.200 84.743 C 160.423 85.508,155.397 87.070,152.645 88.334 C 151.129 89.030,149.689 89.601,149.445 89.602 C 149.200 89.604,148.550 89.841,148.000 90.130 C 143.552 92.468,138.829 95.042,138.000 95.582 C 137.450 95.939,136.714 96.405,136.365 96.616 C 134.954 97.469,132.210 99.500,130.172 101.200 C 128.986 102.190,127.359 103.532,126.558 104.183 C 125.058 105.400,119.600 111.675,119.600 112.182 C 119.600 112.338,118.971 113.233,118.203 114.171 C 117.434 115.109,116.162 117.209,115.376 118.838 C 114.591 120.467,113.692 122.250,113.380 122.800 C 113.067 123.350,112.809 124.165,112.806 124.611 C 112.803 125.057,112.562 125.777,112.271 126.211 C 109.710 130.034,107.523 145.786,108.321 154.669 C 108.953 161.702,109.806 167.112,110.565 168.887 C 110.914 169.705,111.200 170.645,111.200 170.976 C 111.200 171.559,113.966 177.747,115.681 181.000 C 119.702 188.629,130.670 198.481,142.509 205.098 C 145.198 206.601,153.758 210.449,154.885 210.662 C 155.608 210.799,156.650 211.134,157.200 211.406 C 159.227 212.411,162.740 213.640,164.248 213.872 C 165.102 214.004,166.160 214.299,166.600 214.529 C 167.789 215.150,178.229 218.071,182.000 218.838 C 182.990 219.039,184.463 219.467,185.273 219.788 C 186.084 220.109,187.974 220.480,189.473 220.611 C 190.973 220.743,193.280 221.105,194.600 221.416 C 195.920 221.727,199.610 222.442,202.800 223.006 C 210.957 224.447,216.239 225.570,218.800 226.408 C 220.010 226.804,222.350 227.532,224.000 228.025 C 242.365 233.523,248.604 247.105,238.800 260.245 C 238.100 261.184,232.279 266.000,231.844 266.000 C 231.682 266.000,230.436 266.534,229.075 267.188 C 219.151 271.950,193.214 271.785,181.000 266.882 C 172.970 263.658,162.413 254.539,160.620 249.278 C 160.281 248.282,159.759 247.181,159.461 246.833 C 158.936 246.219,158.048 244.075,156.347 239.306 C 153.135 230.305,151.238 229.764,137.000 233.791 C 134.917 234.381,131.176 235.277,126.893 236.213 C 125.515 236.514,124.222 236.863,124.020 236.988 C 123.365 237.393,115.424 239.595,114.600 239.600 C 114.160 239.603,112.000 240.126,109.800 240.762 C 99.904 243.624,99.128 246.648,104.603 261.000 C 105.190 262.540,105.910 264.542,106.201 265.449 C 106.743 267.134,109.462 272.488,110.597 274.103 C 110.944 274.596,112.309 276.672,113.629 278.715 C 114.950 280.759,116.429 282.824,116.915 283.304 C 117.402 283.784,118.633 285.213,119.651 286.478 C 120.669 287.744,122.379 289.496,123.451 290.373 C 124.523 291.249,125.850 292.338,126.400 292.793 C 131.030 296.621,135.101 299.618,138.200 301.481 C 141.343 303.370,152.263 308.800,152.920 308.800 C 153.201 308.800,154.109 309.146,154.939 309.569 C 155.768 309.992,157.201 310.461,158.123 310.611 C 159.046 310.762,160.610 311.198,161.600 311.579 C 166.203 313.354,168.028 313.793,176.600 315.190 C 178.140 315.441,181.740 316.041,184.600 316.523 C 190.655 317.544,219.790 317.807,224.600 316.884 C 225.920 316.631,228.350 316.223,230.000 315.978 C 236.237 315.052,244.981 312.967,249.800 311.257 C 250.460 311.022,251.950 310.548,253.112 310.203 C 256.226 309.278,264.382 305.151,269.600 301.861 C 280.763 294.822,290.865 282.799,294.852 271.807 C 295.492 270.043,296.193 268.240,296.410 267.800 C 297.022 266.561,298.382 261.286,298.834 258.400 C 299.058 256.970,299.430 254.810,299.662 253.600 C 300.444 249.506,300.568 238.879,299.874 235.368 C 299.530 233.626,299.125 231.300,298.975 230.200 C 298.824 229.100,298.474 227.642,298.196 226.959 C 297.918 226.277,297.565 224.976,297.411 224.068 C 295.935 215.331,285.495 201.887,274.481 194.542 C 269.627 191.304,261.530 187.090,258.400 186.172 C 256.569 185.634,254.411 184.875,249.400 183.005 C 245.240 181.453,239.488 179.615,238.766 179.607 C 238.417 179.603,235.537 178.816,232.366 177.858 C 229.195 176.900,225.070 175.823,223.200 175.465 C 221.330 175.107,218.450 174.536,216.800 174.197 C 212.290 173.269,208.341 172.537,202.800 171.599 C 200.050 171.134,196.900 170.508,195.800 170.208 C 194.700 169.908,192.900 169.550,191.800 169.412 C 189.657 169.144,184.966 167.863,183.000 167.010 C 182.340 166.723,181.350 166.363,180.800 166.208 C 176.231 164.926,171.383 162.225,169.214 159.755 C 162.522 152.133,164.189 138.448,172.355 133.967 C 173.150 133.531,174.618 132.667,175.618 132.047 C 176.618 131.427,178.142 130.787,179.004 130.626 C 179.867 130.464,181.097 130.060,181.738 129.729 C 184.543 128.278,198.361 127.457,204.154 128.397 C 209.925 129.333,211.125 129.567,213.400 130.203 C 220.615 132.219,229.481 138.945,232.451 144.654 C 233.008 145.724,233.662 146.960,233.906 147.400 C 234.470 148.417,235.802 151.370,236.546 153.253 C 237.953 156.815,242.730 158.154,247.898 156.434 C 249.164 156.013,251.550 155.280,253.200 154.806 C 254.850 154.331,258.270 153.250,260.800 152.403 C 263.330 151.557,266.030 150.746,266.800 150.602 C 267.570 150.458,269.100 150.010,270.200 149.607 C 271.300 149.204,273.640 148.479,275.400 147.996 C 277.160 147.513,279.141 146.890,279.802 146.612 C 280.462 146.334,281.632 145.970,282.402 145.802 C 288.929 144.382,291.969 139.855,289.751 134.860 C 285.634 125.589,281.941 119.364,277.274 113.827 C 272.755 108.466,265.651 101.953,261.101 98.999 C 260.277 98.464,259.107 97.681,258.501 97.259 C 253.395 93.706,240.438 87.588,235.400 86.353 C 234.520 86.137,232.810 85.627,231.600 85.221 C 230.390 84.814,228.320 84.303,227.000 84.085 C 223.142 83.449,217.251 82.424,213.800 81.788 C 210.810 81.238,185.913 80.979,182.800 81.465 M213.200 83.389 C 216.390 83.726,219.686 84.192,220.523 84.424 C 221.361 84.656,223.521 85.101,225.323 85.413 C 229.996 86.222,231.608 86.674,236.878 88.648 C 239.452 89.611,241.736 90.400,241.954 90.400 C 243.255 90.400,253.029 95.537,258.600 99.149 C 266.554 104.306,275.369 112.926,280.193 120.265 C 281.182 121.769,282.138 123.180,282.317 123.400 C 282.496 123.620,282.921 124.340,283.260 125.000 C 283.599 125.660,284.326 127.027,284.874 128.038 C 291.432 140.129,290.066 142.549,274.400 146.599 C 273.850 146.742,271.510 147.453,269.200 148.181 C 266.890 148.909,263.380 149.987,261.400 150.578 C 259.420 151.169,257.397 151.816,256.904 152.016 C 255.603 152.543,243.699 156.000,243.184 156.000 C 242.944 156.000,241.873 155.624,240.804 155.164 C 238.696 154.257,239.074 154.832,234.965 146.293 C 228.567 133.001,216.199 126.658,196.600 126.619 C 174.586 126.574,162.204 135.076,163.369 149.435 C 164.219 159.915,172.121 166.640,187.600 170.057 C 188.590 170.275,190.399 170.703,191.621 171.007 C 192.842 171.311,195.092 171.752,196.621 171.988 C 198.149 172.224,200.570 172.676,202.000 172.991 C 203.430 173.307,207.300 174.033,210.600 174.605 C 213.900 175.177,217.590 175.898,218.800 176.207 C 220.010 176.517,222.080 176.957,223.400 177.185 C 224.720 177.414,227.330 178.039,229.200 178.574 C 231.070 179.110,233.410 179.756,234.400 180.010 C 238.756 181.128,242.275 182.119,243.200 182.488 C 243.750 182.707,246.090 183.501,248.400 184.251 C 250.710 185.001,252.960 185.791,253.400 186.007 C 253.840 186.223,255.190 186.739,256.400 187.153 C 272.043 192.514,286.654 204.349,292.736 216.585 C 293.871 218.868,294.801 220.976,294.802 221.268 C 294.804 221.561,295.060 222.288,295.371 222.885 C 295.682 223.482,296.146 225.012,296.402 226.285 C 296.658 227.558,297.163 229.590,297.524 230.800 C 300.257 239.963,297.060 265.989,292.167 274.413 C 291.724 275.176,290.934 276.610,290.411 277.600 C 289.522 279.282,287.213 282.832,284.981 285.948 C 282.129 289.929,274.857 296.543,269.174 300.325 C 264.550 303.402,253.740 308.686,250.200 309.598 C 249.540 309.768,247.110 310.480,244.800 311.180 C 231.276 315.277,205.149 317.299,189.652 315.448 C 186.874 315.116,183.430 314.734,182.000 314.600 C 180.570 314.466,178.692 314.171,177.827 313.943 C 176.961 313.716,174.801 313.288,173.027 312.993 C 171.252 312.698,168.180 311.983,166.200 311.405 C 164.220 310.826,161.700 310.103,160.600 309.798 C 155.549 308.399,144.285 303.439,140.609 300.996 C 139.944 300.554,138.877 299.960,138.238 299.677 C 137.599 299.393,136.249 298.529,135.238 297.758 C 134.227 296.986,132.058 295.358,130.417 294.140 C 128.776 292.922,127.246 291.690,127.017 291.401 C 126.788 291.112,125.751 290.154,124.714 289.271 C 121.394 286.446,115.984 279.770,112.341 274.000 C 109.600 269.660,105.164 259.234,103.915 254.200 C 103.697 253.320,103.237 251.675,102.892 250.545 C 101.329 245.421,104.100 243.487,117.400 240.422 C 119.160 240.017,122.310 239.226,124.400 238.665 C 126.490 238.104,130.450 237.090,133.200 236.412 C 135.950 235.735,139.010 234.919,140.000 234.601 C 149.064 231.682,153.333 232.914,154.594 238.811 C 157.800 253.793,172.713 267.991,187.768 270.395 C 189.291 270.638,190.689 270.931,190.875 271.046 C 191.672 271.539,201.838 272.391,206.800 272.381 C 220.434 272.353,230.333 269.627,237.022 264.060 C 245.714 256.823,247.370 244.240,240.720 235.959 C 239.531 234.479,233.715 230.000,232.981 230.000 C 232.818 230.000,231.365 229.365,229.752 228.590 C 225.705 226.643,215.378 223.592,210.800 222.990 C 209.590 222.831,208.150 222.524,207.600 222.307 C 207.050 222.091,205.070 221.682,203.200 221.399 C 195.037 220.160,191.257 219.510,189.200 218.989 C 187.990 218.683,184.750 217.871,182.000 217.184 C 169.601 214.086,165.665 212.941,158.000 210.199 C 128.244 199.553,111.892 181.318,109.982 156.652 C 109.240 147.071,110.427 135.422,112.798 129.000 C 113.204 127.900,113.666 126.550,113.823 126.000 C 114.335 124.219,117.680 117.440,118.755 116.007 C 119.330 115.241,120.250 113.955,120.800 113.149 C 124.259 108.082,127.157 105.249,134.150 100.102 C 139.386 96.247,148.333 91.314,151.450 90.563 C 152.082 90.411,153.254 89.959,154.054 89.559 C 156.965 88.101,160.079 87.239,172.000 84.589 C 174.473 84.039,178.905 83.535,187.800 82.793 C 193.232 82.339,206.132 82.642,213.200 83.389 " stroke="none" fill="#e467a5" fill-rule="evenodd"></path></g></svg>