<svg id="svg" version="1.1" xmlns="http://www.w3.org/2000/svg" xmlns:xlink="http://www.w3.org/1999/xlink" width="400" height="400" viewBox="0, 0, 400,400"><g id="svgg"><path id="path0" d="M142.000 75.564 C 142.851 75.806,142.555 75.985,140.005 76.765 C 135.277 78.211,133.427 80.246,132.576 84.940 C 132.381 86.009,132.192 86.314,131.954 85.940 C 131.487 85.202,131.513 87.489,132.012 90.937 C 132.229 92.443,132.487 96.223,132.584 99.337 C 132.681 102.452,133.031 106.710,133.361 108.800 C 133.692 110.890,134.069 114.400,134.198 116.600 C 134.328 118.800,134.782 123.480,135.207 127.000 C 136.254 135.671,137.179 145.098,137.617 151.555 C 138.080 158.396,139.053 160.147,141.200 158.000 C 142.125 157.075,142.211 155.460,141.594 150.542 C 141.371 148.762,141.026 145.167,140.827 142.553 C 140.628 139.939,140.098 135.010,139.650 131.600 C 138.769 124.900,138.017 117.772,136.803 104.600 C 136.377 99.980,135.843 95.120,135.616 93.800 C 133.462 81.242,135.675 78.144,145.642 79.762 C 149.971 80.465,150.674 80.891,150.934 82.975 C 151.046 83.869,151.320 85.539,151.542 86.686 C 151.791 87.969,151.856 92.665,151.710 98.886 C 151.393 112.346,151.387 111.858,151.951 117.800 C 152.513 123.716,152.329 141.375,151.648 146.800 C 151.414 148.670,151.105 151.674,150.962 153.476 L 150.702 156.752 152.001 157.542 C 152.745 157.995,154.770 158.533,156.749 158.805 C 158.647 159.065,162.000 159.621,164.200 160.041 C 175.983 162.289,181.533 162.792,182.489 161.700 C 183.937 160.046,183.751 80.111,182.294 77.888 C 181.312 76.388,179.893 75.548,178.115 75.412 C 177.282 75.349,176.918 75.378,177.306 75.477 C 180.656 76.332,154.648 76.912,149.356 76.100 L 147.400 75.800 150.200 75.571 C 152.167 75.410,151.214 75.332,147.000 75.311 C 143.700 75.294,141.450 75.408,142.000 75.564 M276.787 77.954 C 277.101 79.049,276.999 80.336,276.005 87.800 C 275.473 91.795,275.398 92.000,274.462 92.000 C 273.302 92.000,272.654 91.020,273.172 90.052 C 273.936 88.624,273.684 83.533,272.797 82.468 C 271.214 80.568,264.012 79.338,249.000 78.401 C 230.320 77.235,228.800 77.960,228.800 88.040 C 228.800 93.995,228.428 95.592,227.036 95.613 C 226.204 95.625,226.203 95.628,227.000 96.238 C 227.488 96.611,228.230 96.766,228.903 96.634 C 229.509 96.516,234.189 96.234,239.303 96.009 C 244.416 95.783,251.930 95.327,256.000 94.996 C 260.070 94.665,266.160 94.241,269.533 94.053 C 277.380 93.617,277.097 93.851,277.852 87.141 C 278.428 82.020,278.305 79.780,277.342 77.900 C 276.613 76.474,276.369 76.498,276.787 77.954 M82.136 98.114 C 81.401 98.527,81.797 98.611,84.775 98.670 C 86.701 98.709,89.700 98.942,91.439 99.188 C 93.177 99.435,99.730 99.981,106.000 100.402 C 112.270 100.824,119.233 101.388,121.472 101.656 C 125.718 102.165,126.800 101.938,126.800 100.541 C 126.800 99.571,125.229 99.307,116.598 98.827 C 104.360 98.146,99.346 97.970,103.092 98.354 C 108.717 98.930,106.502 99.303,99.200 99.009 C 90.389 98.654,85.542 98.078,91.514 98.095 C 93.556 98.101,95.341 97.992,95.480 97.853 C 95.978 97.356,83.034 97.609,82.136 98.114 M243.700 100.676 C 244.085 100.776,244.715 100.776,245.100 100.676 C 245.485 100.575,245.170 100.493,244.400 100.493 C 243.630 100.493,243.315 100.575,243.700 100.676 M77.776 113.400 C 77.776 119.560,77.832 122.024,77.899 118.876 C 77.967 115.727,77.967 110.687,77.899 107.676 C 77.831 104.664,77.776 107.240,77.776 113.400 M192.700 102.801 C 193.855 103.280,193.921 103.114,191.614 105.508 C 189.596 107.601,189.386 107.613,188.782 105.669 C 188.591 105.056,188.482 109.335,188.525 115.686 C 188.593 125.735,188.667 126.839,189.314 127.486 C 189.987 128.159,192.106 128.207,225.914 128.327 C 266.552 128.471,300.003 128.051,291.600 127.502 C 277.781 126.600,276.486 126.228,275.919 123.000 C 275.334 119.664,275.091 118.588,274.836 118.200 C 274.612 117.859,274.863 112.157,275.276 108.212 C 275.602 105.091,268.865 104.259,244.800 104.449 C 215.659 104.680,202.347 104.629,200.689 104.279 C 197.750 103.658,199.704 103.200,205.290 103.200 C 213.789 103.200,211.778 102.938,201.200 102.668 C 195.239 102.516,192.129 102.564,192.700 102.801 M212.905 102.687 C 213.514 102.779,214.414 102.777,214.905 102.682 C 215.397 102.587,214.900 102.511,213.800 102.514 C 212.700 102.517,212.297 102.595,212.905 102.687 M76.499 125.697 C 76.566 125.897,76.791 126.060,77.000 126.060 C 77.209 126.060,77.434 125.897,77.501 125.697 C 77.568 125.497,77.342 125.333,77.000 125.333 C 76.658 125.333,76.432 125.497,76.499 125.697 M230.968 136.568 C 228.426 137.675,228.590 130.527,228.708 235.400 C 228.806 322.416,228.672 339.462,227.882 340.251 C 227.482 340.651,226.470 339.653,226.278 338.671 C 226.152 338.023,226.095 338.107,226.056 339.000 C 225.982 340.671,227.357 342.739,228.996 343.424 C 232.395 344.844,234.093 343.877,241.400 336.363 C 244.695 332.973,249.037 328.580,251.048 326.600 C 256.608 321.126,256.157 323.235,259.011 289.400 C 259.327 285.660,259.766 280.980,259.988 279.000 C 260.392 275.394,261.408 264.722,262.597 251.600 C 262.946 247.750,263.406 243.070,263.620 241.200 C 263.834 239.330,264.368 233.480,264.806 228.200 C 265.593 218.711,266.470 209.365,268.032 193.800 C 268.473 189.400,269.007 183.820,269.218 181.400 C 269.429 178.980,269.772 175.290,269.980 173.200 C 270.188 171.110,270.467 167.690,270.599 165.600 C 270.731 163.510,271.009 160.540,271.218 159.000 C 271.427 157.460,271.870 152.600,272.203 148.200 C 272.537 143.800,272.921 139.339,273.058 138.287 L 273.307 136.373 271.863 137.817 C 271.070 138.610,270.229 139.142,269.995 138.997 C 269.005 138.385,262.059 137.562,254.800 137.197 C 250.510 136.982,244.210 136.629,240.800 136.413 C 232.914 135.914,232.452 135.921,230.968 136.568 M99.600 161.599 C 100.034 161.933,100.067 162.115,99.719 162.257 C 95.757 163.876,95.026 165.631,94.867 173.900 C 94.793 177.722,94.570 180.800,94.367 180.800 C 93.888 180.800,93.908 181.641,94.406 182.400 C 95.256 183.694,95.588 181.696,95.603 175.200 C 95.622 167.515,95.909 165.907,97.556 164.259 L 98.768 163.048 104.484 163.536 C 107.628 163.804,112.720 164.371,115.800 164.796 C 142.312 168.451,143.504 168.636,147.000 169.639 C 152.667 171.264,152.297 170.673,151.380 176.629 C 151.014 179.009,151.961 181.006,153.827 181.785 C 157.481 183.312,176.954 184.467,200.286 184.541 L 218.773 184.600 219.686 183.687 C 220.545 182.829,220.602 182.447,220.632 177.287 C 220.673 170.267,220.654 170.183,219.347 171.490 C 218.305 172.531,211.806 172.717,209.444 171.773 C 208.451 171.377,209.580 170.438,211.176 170.332 C 211.739 170.295,209.950 170.140,207.200 169.987 C 196.773 169.408,188.461 168.738,184.600 168.165 C 182.400 167.838,177.900 167.403,174.600 167.196 C 171.300 166.990,167.430 166.646,166.000 166.433 C 164.570 166.219,160.078 165.842,156.018 165.595 C 151.958 165.348,148.509 165.068,148.355 164.972 C 148.200 164.877,144.232 164.621,139.537 164.404 C 134.842 164.188,128.941 163.738,126.425 163.405 C 123.909 163.072,120.759 162.796,119.425 162.792 C 118.091 162.787,114.300 162.521,111.000 162.201 C 100.307 161.161,98.936 161.089,99.600 161.599 M308.509 170.400 C 308.509 171.390,308.587 171.795,308.682 171.300 C 308.778 170.805,308.778 169.995,308.682 169.500 C 308.587 169.005,308.509 169.410,308.509 170.400 M225.713 179.200 C 225.714 187.865,225.727 188.016,226.065 183.249 C 226.267 180.399,226.267 176.580,226.064 174.249 C 225.751 170.657,225.711 171.217,225.713 179.200 M278.400 184.017 C 277.410 184.464,277.050 184.735,277.600 184.620 C 278.150 184.505,284.900 184.378,292.600 184.339 L 306.600 184.267 296.400 183.986 C 290.790 183.832,284.850 183.593,283.200 183.455 C 280.686 183.245,279.909 183.336,278.400 184.017 M147.200 189.600 C 144.285 189.849,144.263 189.859,146.400 189.951 C 147.610 190.003,149.320 190.183,150.200 190.351 L 151.800 190.656 149.200 190.975 C 145.954 191.373,144.568 192.070,143.532 193.825 C 142.681 195.267,142.174 195.537,141.887 194.700 C 141.792 194.425,141.771 194.548,141.839 194.973 C 141.907 195.398,142.163 198.638,142.407 202.173 C 142.651 205.708,143.108 210.580,143.423 213.000 C 143.737 215.420,144.182 220.010,144.413 223.200 C 144.643 226.390,144.909 229.270,145.005 229.600 C 145.100 229.930,145.454 233.620,145.791 237.800 C 146.129 241.980,146.577 246.930,146.788 248.800 C 146.999 250.670,147.357 254.540,147.583 257.400 C 147.809 260.260,148.262 265.120,148.590 268.200 C 148.919 271.280,149.366 276.050,149.585 278.800 C 149.803 281.550,150.431 288.300,150.980 293.800 C 151.529 299.300,152.170 306.140,152.405 309.000 C 153.675 324.485,154.124 326.036,157.498 326.625 C 158.782 326.850,160.018 327.922,166.000 333.999 C 174.349 342.480,175.792 343.600,178.371 343.600 C 180.571 343.600,181.874 342.799,182.634 340.980 C 183.355 339.254,183.515 190.955,182.797 190.236 C 181.905 189.344,155.692 188.876,147.200 189.600 M171.773 190.258 C 174.870 190.683,173.024 191.187,168.350 191.194 C 166.013 191.197,163.493 191.070,162.750 190.912 L 161.400 190.623 162.800 190.364 C 164.743 190.005,169.513 189.949,171.773 190.258 M150.752 195.243 C 153.272 196.122,153.346 196.618,153.237 211.942 C 153.143 225.117,153.019 227.030,151.991 231.306 C 151.553 233.127,151.588 233.295,152.766 235.075 C 154.500 237.693,154.046 242.936,151.974 244.216 C 150.927 244.863,149.955 239.790,150.415 236.082 C 150.638 234.279,150.580 233.077,150.221 232.056 C 149.939 231.255,149.578 228.980,149.419 227.000 C 149.259 225.020,148.877 221.933,148.569 220.139 C 148.261 218.346,147.821 213.846,147.591 210.139 C 147.360 206.433,147.000 202.320,146.789 201.000 C 145.817 194.909,146.587 193.791,150.752 195.243 " stroke="none" fill="#44b5e9" fill-rule="evenodd"></path><path id="path1" d="M242.200 75.200 C 225.143 75.467,226.007 74.855,226.003 86.667 C 226.000 94.849,226.099 95.600,227.179 95.600 C 228.415 95.600,228.800 93.804,228.800 88.040 C 228.800 77.960,230.320 77.235,249.000 78.401 C 264.012 79.338,271.214 80.568,272.797 82.468 C 273.684 83.533,273.936 88.624,273.172 90.052 C 272.654 91.020,273.302 92.000,274.462 92.000 C 275.514 92.000,275.496 92.076,276.773 81.864 C 277.701 74.441,278.683 74.630,242.200 75.200 M134.028 75.901 C 131.185 77.351,130.382 80.325,131.617 84.833 L 132.101 86.600 132.777 84.200 C 134.149 79.323,135.211 78.231,140.005 76.765 C 142.555 75.985,142.851 75.806,142.000 75.564 C 139.963 74.985,135.451 75.175,134.028 75.901 M150.200 75.571 L 147.400 75.800 149.356 76.100 C 152.105 76.522,177.506 76.476,177.770 76.049 C 178.279 75.225,158.589 74.883,150.200 75.571 M317.400 95.870 C 316.080 95.935,312.030 96.179,308.400 96.413 C 295.688 97.232,284.113 97.958,274.000 98.573 C 268.390 98.914,260.470 99.470,256.400 99.808 C 252.330 100.146,245.474 100.594,241.164 100.803 C 232.358 101.230,224.822 101.760,215.400 102.616 C 211.880 102.935,206.896 103.197,204.324 103.198 C 199.590 103.200,197.925 103.695,200.689 104.279 C 202.347 104.629,215.659 104.680,244.800 104.449 C 268.865 104.259,275.602 105.091,275.276 108.212 C 274.863 112.157,274.612 117.859,274.836 118.200 C 275.091 118.588,275.334 119.664,275.919 123.000 C 276.422 125.866,276.581 125.966,281.622 126.576 C 289.735 127.557,298.733 128.001,310.500 128.001 C 324.339 128.000,323.587 128.281,323.623 123.100 C 323.737 107.024,323.671 98.055,323.435 97.311 C 323.193 96.549,320.768 95.396,320.000 95.678 C 319.890 95.718,318.720 95.805,317.400 95.870 M77.924 97.292 C 76.285 97.838,76.185 98.846,76.400 112.600 C 76.658 129.098,77.322 129.707,77.600 113.701 C 77.828 100.610,77.958 100.062,81.197 98.601 C 82.083 98.202,82.747 97.813,82.671 97.738 C 82.245 97.312,78.828 96.991,77.924 97.292 M89.800 98.383 C 93.228 98.945,106.757 99.285,105.600 98.780 C 105.022 98.528,101.056 98.283,96.200 98.199 C 90.977 98.109,88.556 98.179,89.800 98.383 M189.700 103.002 C 188.723 103.701,188.494 105.480,189.209 106.816 C 189.583 107.515,189.785 107.405,191.610 105.512 C 192.707 104.374,193.462 103.302,193.289 103.129 C 192.598 102.438,190.589 102.366,189.700 103.002 M226.800 134.000 C 226.031 134.769,225.519 158.130,225.967 172.000 C 226.021 173.650,226.095 211.939,226.132 257.086 C 226.196 334.245,226.241 339.213,226.890 339.862 C 228.783 341.754,228.824 339.375,228.709 235.200 C 228.610 145.066,228.645 139.325,229.295 138.133 C 230.412 136.086,231.702 135.877,240.093 136.384 C 244.112 136.627,250.820 136.997,255.000 137.207 C 262.088 137.563,269.013 138.390,269.995 138.997 C 270.756 139.467,273.200 136.612,273.200 135.254 C 273.200 133.192,273.287 133.200,249.626 133.200 C 228.133 133.200,227.581 133.219,226.800 134.000 M95.346 161.268 C 93.874 161.981,93.730 163.069,93.918 172.100 C 94.123 181.983,94.799 183.970,94.802 174.700 C 94.805 166.519,95.609 164.122,98.792 162.803 C 100.329 162.167,100.317 161.789,98.740 161.239 C 97.228 160.712,96.480 160.718,95.346 161.268 M299.800 161.221 C 298.480 161.395,293.170 161.935,288.000 162.421 C 275.390 163.606,275.874 163.327,275.194 169.822 C 274.965 172.010,274.594 175.579,274.369 177.753 C 273.694 184.274,274.514 185.532,278.434 183.986 C 280.318 183.244,280.865 183.216,286.329 183.588 C 297.343 184.338,306.944 184.146,307.838 183.158 C 308.575 182.343,309.199 165.404,308.596 162.569 C 308.240 160.896,305.479 160.473,299.800 161.221 M211.977 170.170 C 207.291 171.198,208.100 171.991,214.146 172.295 C 217.764 172.477,218.304 172.415,219.167 171.712 C 221.557 169.765,217.643 168.926,211.977 170.170 M142.478 190.230 C 141.582 190.858,141.344 192.405,141.852 194.300 C 142.180 195.523,142.660 195.431,143.398 194.004 C 144.290 192.279,145.693 191.518,148.939 191.001 L 151.800 190.544 149.000 190.261 C 147.460 190.105,145.560 189.896,144.778 189.796 C 143.885 189.683,143.029 189.844,142.478 190.230 M162.800 190.364 L 161.400 190.623 162.750 190.912 C 164.610 191.309,172.480 191.264,173.129 190.852 C 174.278 190.124,166.170 189.741,162.800 190.364 " stroke="none" fill="#b0e4e2" fill-rule="evenodd"></path><path id="path2" d="M137.353 79.833 C 135.201 80.895,134.445 86.972,135.616 93.800 C 135.843 95.120,136.377 99.980,136.803 104.600 C 138.017 117.772,138.769 124.900,139.650 131.600 C 140.098 135.010,140.628 139.939,140.827 142.553 C 141.026 145.167,141.371 148.762,141.594 150.542 C 142.259 155.846,142.154 157.095,140.951 158.210 L 139.902 159.183 141.009 159.603 C 141.618 159.835,143.215 160.113,144.558 160.220 C 145.901 160.328,149.880 160.677,153.400 160.996 C 158.999 161.504,163.645 161.905,172.000 162.601 C 175.422 162.886,181.222 162.911,181.491 162.642 C 181.624 162.509,181.091 162.400,180.306 162.400 C 178.609 162.400,169.813 161.112,164.200 160.041 C 162.000 159.621,158.647 159.065,156.749 158.805 C 154.770 158.533,152.745 157.995,152.001 157.542 L 150.702 156.752 150.962 153.476 C 151.105 151.674,151.414 148.670,151.648 146.800 C 152.329 141.375,152.513 123.716,151.951 117.800 C 151.387 111.858,151.393 112.346,151.710 98.886 C 151.856 92.665,151.791 87.969,151.542 86.686 C 151.320 85.539,151.046 83.869,150.934 82.975 C 150.674 80.891,149.971 80.465,145.642 79.762 C 141.227 79.045,138.911 79.065,137.353 79.833 M183.376 92.200 C 183.376 98.360,183.432 100.824,183.499 97.676 C 183.567 94.527,183.567 89.487,183.499 86.476 C 183.431 83.464,183.376 86.040,183.376 92.200 M80.930 98.963 C 78.286 100.157,78.222 100.477,78.000 113.620 C 77.841 123.029,77.683 125.619,77.234 126.159 C 75.295 128.493,79.270 128.847,105.901 128.713 C 133.299 128.575,130.940 129.454,129.809 119.802 C 129.474 116.944,129.200 113.254,129.200 111.602 C 129.200 105.480,127.721 100.205,126.352 101.444 C 125.633 102.094,125.241 102.114,121.684 101.677 C 119.548 101.414,112.490 100.839,106.000 100.398 C 99.510 99.958,93.030 99.431,91.600 99.229 C 86.164 98.459,82.262 98.361,80.930 98.963 M183.381 145.600 C 183.381 153.630,183.434 156.915,183.499 152.900 C 183.565 148.885,183.565 142.315,183.499 138.300 C 183.434 134.285,183.381 137.570,183.381 145.600 M97.443 164.355 C 95.905 165.961,95.621 167.631,95.610 175.126 C 95.604 178.975,95.425 181.980,95.172 182.452 C 94.601 183.519,95.253 184.276,97.190 184.797 C 99.019 185.290,170.330 185.343,182.400 184.861 C 189.445 184.580,189.921 184.524,185.785 184.467 C 174.346 184.308,156.225 182.788,153.827 181.785 C 151.961 181.006,151.014 179.009,151.380 176.629 C 152.169 171.502,152.158 171.360,150.934 170.884 C 146.241 169.055,141.459 168.229,115.800 164.812 C 101.237 162.874,98.918 162.816,97.443 164.355 M183.396 267.000 C 183.396 307.040,183.443 323.361,183.500 303.268 C 183.557 283.176,183.557 250.416,183.500 230.468 C 183.443 210.521,183.396 226.960,183.396 267.000 M146.667 195.067 C 146.286 195.448,146.343 198.202,146.789 201.000 C 147.000 202.320,147.360 206.433,147.591 210.139 C 147.821 213.846,148.261 218.346,148.569 220.139 C 148.877 221.933,149.259 225.020,149.419 227.000 C 149.578 228.980,149.939 231.255,150.221 232.056 C 150.580 233.077,150.638 234.279,150.415 236.082 C 149.955 239.790,150.927 244.863,151.974 244.216 C 154.046 242.936,154.500 237.693,152.766 235.075 C 151.588 233.295,151.553 233.127,151.991 231.306 C 153.019 227.030,153.143 225.117,153.237 211.942 C 153.346 196.618,153.272 196.122,150.752 195.243 C 149.342 194.752,147.080 194.654,146.667 195.067 M157.468 328.095 C 158.531 329.189,160.660 331.093,162.200 332.328 C 163.740 333.563,166.678 336.167,168.728 338.114 C 173.762 342.893,175.582 344.016,178.178 343.944 L 180.200 343.887 178.162 343.638 C 175.422 343.304,174.305 342.417,166.113 334.065 C 159.993 327.826,159.021 326.992,157.381 326.576 L 155.536 326.107 157.468 328.095 M182.800 340.546 C 182.800 340.846,182.422 341.611,181.961 342.246 L 181.122 343.400 182.161 342.278 C 183.080 341.285,183.553 340.000,183.000 340.000 C 182.890 340.000,182.800 340.246,182.800 340.546 " stroke="none" fill="#435bea" fill-rule="evenodd"></path><path id="path3" d="M133.800 73.958 C 129.211 76.083,128.575 78.679,129.767 90.426 C 130.541 98.050,130.272 98.963,127.579 97.861 C 125.752 97.113,123.506 96.892,112.800 96.402 C 107.850 96.175,98.091 95.704,91.112 95.356 C 72.792 94.441,74.316 92.862,74.380 112.696 C 74.436 129.985,74.634 130.655,79.279 129.200 L 81.000 128.661 78.867 128.231 C 75.467 127.544,75.600 128.191,75.600 112.346 L 75.600 98.445 76.521 97.374 L 77.441 96.304 91.221 96.774 C 127.704 98.017,128.400 98.120,128.400 102.302 C 128.400 103.307,128.425 103.319,128.967 102.577 C 129.854 101.364,130.130 102.107,130.428 106.509 C 130.580 108.759,131.016 112.220,131.397 114.200 C 132.346 119.134,131.910 125.763,130.756 123.943 C 130.520 123.569,130.410 123.774,130.404 124.600 C 130.399 125.260,130.137 126.295,129.821 126.900 C 129.102 128.279,129.298 128.291,130.547 126.944 L 131.526 125.888 132.325 127.454 C 133.380 129.522,133.857 132.335,134.619 141.000 C 135.716 153.469,136.303 158.154,136.961 159.686 C 138.123 162.393,136.715 162.423,113.400 160.187 C 90.398 157.981,91.480 157.309,91.680 173.680 C 91.819 185.079,91.982 185.607,95.370 185.594 C 96.916 185.588,99.072 184.824,97.600 184.804 C 93.224 184.743,92.800 183.638,92.801 172.313 C 92.804 158.878,91.731 159.454,113.200 161.361 C 121.202 162.072,135.304 163.034,146.400 163.626 C 165.094 164.623,167.873 164.811,169.400 165.187 C 170.280 165.404,172.744 165.585,174.875 165.590 C 177.572 165.597,179.957 165.893,182.728 166.563 C 185.062 167.129,189.246 167.714,192.853 167.979 C 196.234 168.228,201.272 168.609,204.049 168.826 C 207.541 169.099,210.551 169.085,213.810 168.782 C 220.300 168.178,222.103 168.829,222.629 171.964 C 223.821 179.067,224.477 173.156,224.756 152.800 C 225.017 133.725,224.995 133.921,227.138 132.094 C 228.199 131.190,227.928 130.425,226.540 130.406 C 224.465 130.379,224.212 132.349,224.000 150.239 C 223.773 169.351,223.929 168.493,220.802 167.852 C 219.396 167.564,217.133 167.575,213.295 167.889 C 206.335 168.458,190.195 167.257,184.938 165.780 C 183.798 165.459,181.117 165.194,178.938 165.186 C 176.772 165.178,173.830 164.913,172.400 164.596 C 170.970 164.280,167.100 163.916,163.800 163.789 C 160.500 163.661,155.820 163.213,153.400 162.794 C 149.425 162.106,145.411 161.657,142.857 161.615 C 142.187 161.604,141.981 161.427,142.145 161.000 C 142.317 160.551,142.081 160.400,141.206 160.400 C 138.034 160.400,137.250 159.094,136.760 153.000 C 136.566 150.580,136.229 146.890,136.011 144.800 C 135.793 142.710,135.426 138.722,135.195 135.938 C 134.965 133.154,134.523 129.554,134.215 127.938 C 133.906 126.322,133.534 122.930,133.388 120.400 C 133.241 117.870,132.779 113.323,132.361 110.295 C 131.942 107.266,131.598 102.946,131.595 100.695 C 131.592 98.443,131.326 93.900,131.003 90.600 C 129.315 73.341,128.348 73.866,161.400 74.082 C 180.700 74.208,180.172 74.152,182.500 76.324 C 183.810 77.546,183.958 76.963,182.733 75.405 C 180.991 73.191,181.091 73.199,157.313 73.209 C 136.837 73.217,135.295 73.266,133.800 73.958 M228.501 74.042 C 226.423 75.070,224.966 76.737,224.418 78.712 C 223.920 80.505,223.878 94.791,224.364 96.886 C 224.596 97.883,224.559 98.577,224.252 98.997 C 223.252 100.364,211.167 101.177,198.600 100.722 C 189.315 100.387,188.222 100.545,186.613 102.457 L 185.600 103.661 185.600 115.051 C 185.600 128.368,186.079 130.000,189.987 130.000 C 190.816 130.000,190.370 129.364,189.242 128.938 C 186.730 127.990,186.600 127.343,186.600 115.816 C 186.600 101.020,186.308 101.430,196.764 101.554 C 200.374 101.597,203.484 101.728,203.674 101.846 C 204.324 102.248,222.196 101.159,225.000 100.546 C 226.540 100.210,229.835 99.699,232.323 99.411 C 238.342 98.714,238.447 98.355,232.551 98.631 C 225.020 98.983,224.616 98.360,224.872 86.761 C 225.162 73.589,224.276 74.000,252.400 74.000 C 278.764 74.000,279.029 74.078,279.620 82.000 L 279.873 85.400 279.919 82.400 C 279.991 77.669,278.866 75.360,275.800 73.952 C 273.147 72.734,230.982 72.814,228.501 74.042 M277.347 94.239 C 276.477 95.167,275.587 95.657,274.438 95.840 C 271.451 96.318,272.326 96.716,277.001 97.009 C 281.726 97.304,285.017 97.180,299.200 96.175 C 321.005 94.630,323.264 94.678,324.351 96.708 C 324.955 97.837,325.029 126.425,324.430 127.544 C 323.333 129.594,323.320 129.595,299.120 129.665 L 276.600 129.730 298.800 130.051 C 323.097 130.404,323.540 130.374,324.817 128.280 C 325.860 126.569,326.039 98.009,325.019 96.036 C 323.877 93.828,315.411 93.567,298.400 95.217 C 292.737 95.766,280.699 96.162,279.420 95.841 C 278.403 95.586,278.322 95.435,278.526 94.180 C 278.649 93.421,278.716 92.823,278.675 92.851 C 278.634 92.879,278.036 93.503,277.347 94.239 M272.887 130.451 L 271.574 130.830 272.987 132.162 C 274.472 133.562,274.540 133.831,274.482 138.000 L 274.445 140.600 275.032 137.800 C 275.502 135.554,275.526 134.611,275.154 133.035 C 274.738 131.275,274.765 131.015,275.421 130.535 C 276.331 129.870,275.049 129.827,272.887 130.451 M273.293 152.000 C 273.293 152.770,273.375 153.085,273.476 152.700 C 273.576 152.315,273.576 151.685,273.476 151.300 C 273.375 150.915,273.293 151.230,273.293 152.000 M303.600 159.086 C 302.610 159.149,299.120 159.479,295.845 159.818 C 292.569 160.158,287.026 160.687,283.526 160.994 C 278.070 161.473,276.902 161.698,275.337 162.573 C 274.333 163.134,273.352 163.494,273.156 163.373 C 272.960 163.252,272.800 164.243,272.800 165.576 C 272.800 168.397,272.961 168.545,273.814 166.505 C 275.491 162.492,274.512 162.709,301.600 160.346 C 310.269 159.590,310.200 159.489,310.200 172.982 C 310.200 187.211,311.976 186.000,291.101 186.000 C 274.125 186.000,273.841 185.959,272.597 183.337 C 271.843 181.747,271.873 181.743,271.275 183.514 C 270.980 184.389,270.971 184.741,271.249 184.570 C 271.478 184.428,272.182 184.807,272.813 185.412 L 273.961 186.512 290.419 186.431 C 307.717 186.346,308.010 186.319,309.600 184.611 L 310.600 183.537 310.718 172.776 C 310.868 159.191,310.582 158.642,303.600 159.086 M272.481 172.407 C 271.902 175.784,271.872 176.697,272.356 176.180 C 272.702 175.810,273.419 169.600,273.116 169.600 C 273.032 169.600,272.746 170.863,272.481 172.407 M223.473 182.800 C 223.613 183.570,223.834 219.390,223.964 262.400 C 224.227 349.686,223.966 342.162,226.800 343.933 L 227.800 344.558 226.759 343.379 C 226.186 342.731,225.556 341.840,225.359 341.400 C 225.153 340.942,224.914 307.330,224.798 262.800 C 224.610 190.435,224.548 184.874,223.907 183.200 C 223.292 181.592,223.245 181.549,223.473 182.800 M143.282 187.179 C 139.747 187.754,139.124 189.583,139.869 197.200 C 140.138 199.950,140.547 204.270,140.778 206.800 C 141.010 209.330,141.550 215.000,141.979 219.400 C 142.408 223.800,143.127 231.360,143.576 236.200 C 144.025 241.040,144.745 248.780,145.176 253.400 C 145.606 258.020,146.064 263.240,146.193 265.000 C 146.322 266.760,146.688 270.540,147.006 273.400 C 147.746 280.060,148.763 290.856,149.229 297.000 C 149.429 299.640,149.859 304.230,150.183 307.200 C 150.508 310.170,150.967 314.789,151.204 317.463 C 151.829 324.514,152.447 326.184,154.904 327.453 L 156.200 328.122 154.743 326.508 C 152.918 324.485,152.551 322.862,151.787 313.411 C 150.933 302.841,150.076 293.574,149.610 289.863 C 149.385 288.068,148.924 283.000,148.586 278.600 C 148.248 274.200,147.810 269.520,147.612 268.200 C 147.415 266.880,147.142 264.180,147.007 262.200 C 146.872 260.220,146.593 257.070,146.388 255.200 C 146.183 253.330,145.742 248.380,145.409 244.200 C 145.075 240.020,144.437 233.090,143.990 228.800 C 142.218 211.778,142.006 209.601,141.595 204.200 C 141.361 201.120,141.014 197.070,140.823 195.200 C 140.082 187.928,140.515 187.796,165.800 187.580 C 171.427 187.532,173.672 187.399,172.600 187.177 C 170.680 186.780,145.728 186.782,143.282 187.179 M181.992 187.863 C 183.300 188.556,183.752 189.171,184.740 191.600 C 185.124 192.546,185.147 192.520,185.173 191.122 C 185.207 189.237,183.897 187.683,182.000 187.362 L 180.600 187.125 181.992 187.863 M268.509 203.600 C 268.509 204.590,268.587 204.995,268.682 204.500 C 268.778 204.005,268.778 203.195,268.682 202.700 C 268.587 202.205,268.509 202.610,268.509 203.600 M268.101 207.400 C 268.105 208.280,268.187 208.593,268.283 208.095 C 268.379 207.598,268.375 206.878,268.275 206.495 C 268.175 206.113,268.096 206.520,268.101 207.400 M264.893 242.000 C 264.893 242.770,264.975 243.085,265.076 242.700 C 265.176 242.315,265.176 241.685,265.076 241.300 C 264.975 240.915,264.893 241.230,264.893 242.000 " stroke="none" fill="#566168" fill-rule="evenodd"></path><path id="path4" d="M182.555 75.086 C 183.988 76.794,184.387 80.070,184.394 90.167 C 184.401 100.780,184.925 105.817,185.804 103.725 C 186.080 103.069,186.801 102.142,187.407 101.666 C 188.385 100.896,188.418 100.800,187.703 100.800 C 185.940 100.800,185.811 100.069,185.599 88.839 C 185.383 77.444,185.379 77.423,183.141 75.400 C 182.410 74.740,182.147 74.599,182.555 75.086 M278.138 75.480 C 280.347 78.075,280.510 82.725,278.742 92.743 C 278.289 95.310,278.510 95.988,279.800 95.988 C 280.020 95.988,279.938 95.822,279.618 95.619 C 279.128 95.309,279.112 94.947,279.518 93.326 C 281.341 86.052,280.657 77.143,278.126 75.178 C 277.443 74.647,277.444 74.666,278.138 75.480 M325.701 100.600 C 325.705 101.480,325.787 101.793,325.883 101.295 C 325.979 100.798,325.975 100.078,325.875 99.695 C 325.775 99.313,325.696 99.720,325.701 100.600 M195.105 100.683 C 195.602 100.779,196.322 100.775,196.705 100.675 C 197.087 100.575,196.680 100.496,195.800 100.501 C 194.920 100.505,194.607 100.587,195.105 100.683 M128.733 102.986 C 128.400 103.718,128.402 104.561,128.742 106.253 C 128.994 107.507,129.201 109.898,129.203 111.567 C 129.210 117.841,130.405 124.955,131.302 124.058 C 132.140 123.220,132.111 117.947,131.242 113.214 C 130.779 110.692,130.398 107.542,130.395 106.214 C 130.386 102.233,129.691 100.884,128.733 102.986 M325.771 116.800 C 325.771 121.750,325.828 123.775,325.899 121.300 C 325.969 118.825,325.969 114.775,325.899 112.300 C 325.828 109.825,325.771 111.850,325.771 116.800 M130.662 126.833 C 129.318 128.751,128.330 128.824,103.660 128.817 C 86.567 128.812,80.129 128.938,78.781 129.305 C 76.154 130.020,127.043 130.309,130.014 129.597 C 131.587 129.219,132.144 129.222,132.608 129.607 C 133.462 130.315,133.376 129.513,132.392 127.584 C 131.453 125.745,131.431 125.735,130.662 126.833 M184.841 128.933 C 184.573 130.473,184.400 137.302,184.400 146.353 C 184.400 162.623,184.311 163.306,182.129 163.854 C 180.862 164.172,171.272 163.450,164.600 162.535 C 161.960 162.173,157.550 161.745,154.800 161.583 C 152.050 161.422,148.208 161.071,146.263 160.802 C 143.710 160.451,142.604 160.436,142.289 160.751 C 141.613 161.427,141.960 161.531,145.808 161.808 C 147.784 161.950,151.200 162.396,153.400 162.797 C 155.600 163.199,160.190 163.635,163.600 163.768 C 167.010 163.900,170.520 164.198,171.400 164.431 C 172.280 164.664,175.520 164.993,178.600 165.163 C 181.680 165.333,184.560 165.607,185.000 165.773 C 185.584 165.994,185.650 165.968,185.242 165.678 C 184.787 165.354,184.768 164.949,185.142 163.464 C 185.443 162.269,185.600 156.799,185.600 147.520 C 185.600 130.663,185.764 129.719,188.600 130.229 C 189.260 130.348,197.210 130.480,206.267 130.523 C 222.508 130.599,222.750 130.612,223.915 131.473 L 225.096 132.347 225.563 131.322 C 225.820 130.758,225.934 130.201,225.817 130.083 C 224.997 129.264,194.605 128.849,191.295 129.613 C 189.091 130.121,187.103 129.346,186.216 127.632 C 185.369 125.993,185.350 126.011,184.841 128.933 M275.500 130.432 C 275.115 130.656,274.814 131.236,274.832 131.720 C 274.849 132.204,274.955 132.373,275.066 132.095 C 275.618 130.726,276.885 130.602,292.600 130.379 L 308.200 130.159 292.200 130.092 C 281.932 130.048,275.949 130.170,275.500 130.432 M274.905 138.671 C 274.646 140.180,274.241 143.572,274.006 146.207 C 273.770 148.843,273.402 152.440,273.188 154.200 C 272.691 158.291,272.688 163.084,273.184 163.390 C 273.990 163.888,275.221 162.704,274.470 162.152 C 273.611 161.520,273.688 157.987,274.828 145.682 C 275.686 136.424,275.713 133.955,274.905 138.671 M136.685 160.000 C 136.947 161.594,137.038 161.785,137.321 161.327 C 137.432 161.147,137.283 160.460,136.989 159.800 L 136.456 158.600 136.685 160.000 M310.800 173.093 L 310.600 183.586 309.293 184.893 L 307.985 186.200 292.593 186.314 C 284.127 186.376,277.200 186.556,277.200 186.714 C 277.200 186.871,283.995 186.945,292.300 186.877 C 312.732 186.710,311.271 187.822,311.107 172.554 L 311.000 162.600 310.800 173.093 M202.100 167.876 C 202.485 167.976,203.115 167.976,203.500 167.876 C 203.885 167.775,203.570 167.693,202.800 167.693 C 202.030 167.693,201.715 167.775,202.100 167.876 M207.100 168.282 C 207.595 168.378,208.405 168.378,208.900 168.282 C 209.395 168.187,208.990 168.109,208.000 168.109 C 207.010 168.109,206.605 168.187,207.100 168.282 M222.777 177.633 C 222.752 181.930,222.232 183.821,220.800 184.830 C 219.554 185.707,175.691 185.996,129.400 185.431 C 102.143 185.098,93.207 185.253,94.442 186.035 C 94.749 186.229,104.573 186.391,116.274 186.394 C 137.997 186.400,139.320 186.489,139.791 187.971 C 140.049 188.783,140.056 188.783,141.258 187.894 C 142.676 186.845,158.939 186.456,174.943 187.090 L 183.286 187.420 184.279 188.574 C 185.130 189.564,185.231 189.961,184.983 191.364 C 184.823 192.264,184.582 226.210,184.447 266.800 C 184.171 349.139,184.439 342.182,181.481 344.040 C 177.882 346.300,175.419 345.040,165.400 335.806 C 161.660 332.360,157.790 329.080,156.800 328.519 C 155.810 327.957,154.490 327.144,153.866 326.712 C 151.920 325.363,153.234 327.254,155.500 329.063 C 157.239 330.452,160.981 333.720,169.737 341.498 C 176.822 347.791,182.138 347.911,184.824 341.838 C 185.554 340.188,186.156 189.623,185.436 188.903 C 184.939 188.405,186.120 187.216,187.305 187.020 C 188.017 186.902,196.392 186.760,205.915 186.703 L 223.229 186.600 223.613 187.800 C 223.961 188.889,223.977 188.852,223.782 187.400 C 223.664 186.520,223.464 183.190,223.339 180.000 C 223.075 173.299,222.810 172.183,222.777 177.633 M270.779 185.455 C 270.257 186.827,268.190 206.501,266.203 229.000 C 265.679 234.940,264.880 243.580,264.427 248.200 C 262.695 265.892,262.340 269.593,261.787 275.800 C 261.474 279.320,260.777 286.790,260.239 292.400 C 259.700 298.010,259.062 304.940,258.820 307.800 C 258.050 316.884,257.579 320.131,256.767 321.969 C 255.737 324.296,237.022 343.228,234.584 344.408 C 231.364 345.966,226.814 344.954,225.210 342.323 C 224.269 340.781,224.125 341.108,225.000 342.799 C 226.051 344.833,228.194 346.134,230.802 346.323 C 234.643 346.600,235.929 345.640,247.165 334.108 C 257.062 323.950,258.176 322.513,258.572 319.400 C 259.012 315.932,260.440 301.314,261.209 292.400 C 261.656 287.230,262.460 278.500,262.996 273.000 C 264.050 262.196,264.537 256.944,265.405 247.000 C 265.713 243.480,266.144 239.160,266.364 237.400 C 266.585 235.640,266.959 231.410,267.197 228.000 C 267.435 224.590,267.878 219.550,268.181 216.800 C 268.484 214.050,268.847 210.270,268.988 208.400 C 269.129 206.530,269.492 202.840,269.794 200.200 C 270.096 197.560,270.466 193.780,270.615 191.800 C 270.930 187.612,271.648 185.815,272.876 186.136 C 273.651 186.338,273.646 186.301,272.776 185.375 C 271.613 184.136,271.275 184.150,270.779 185.455 " stroke="none" fill="#235461" fill-rule="evenodd"></path><path id="path5" d="M137.710 74.376 C 130.599 74.921,129.686 77.131,131.003 90.600 C 131.326 93.900,131.592 98.443,131.595 100.695 C 131.598 102.946,131.942 107.266,132.361 110.295 C 132.779 113.323,133.241 117.870,133.388 120.400 C 133.534 122.930,133.906 126.322,134.215 127.938 C 134.523 129.554,134.965 133.154,135.195 135.938 C 135.426 138.722,135.793 142.710,136.011 144.800 C 136.229 146.890,136.566 150.580,136.760 153.000 C 137.276 159.421,137.992 160.444,141.919 160.360 L 143.800 160.320 142.293 159.965 C 138.547 159.082,138.069 158.219,137.613 151.501 C 137.179 145.091,136.251 135.644,135.207 127.000 C 134.782 123.480,134.328 118.800,134.198 116.600 C 134.069 114.400,133.692 110.890,133.361 108.800 C 133.030 106.710,132.686 102.614,132.596 99.697 C 132.506 96.780,132.145 91.920,131.794 88.897 C 130.089 74.226,128.331 75.157,157.471 75.295 C 182.262 75.413,180.701 75.217,182.600 78.442 C 183.547 80.049,184.119 157.363,183.207 160.493 C 182.433 163.151,177.477 163.562,165.271 161.980 C 163.660 161.771,161.590 161.621,160.671 161.648 C 158.454 161.711,166.610 163.131,169.400 163.167 C 170.500 163.182,173.560 163.406,176.200 163.666 C 184.907 164.522,184.398 165.611,184.407 146.120 C 184.412 134.306,184.544 130.388,185.007 128.200 C 185.752 124.684,185.856 106.177,185.143 103.997 C 184.867 103.154,184.590 97.814,184.443 90.529 C 184.086 72.786,185.984 74.013,159.000 74.079 C 149.100 74.104,139.520 74.237,137.710 74.376 M230.288 74.568 C 225.848 75.762,225.076 77.499,224.872 86.761 C 224.616 98.360,225.020 98.983,232.551 98.631 C 238.447 98.355,238.342 98.714,232.323 99.411 C 229.835 99.699,226.540 100.210,225.000 100.546 C 222.196 101.159,204.324 102.248,203.674 101.846 C 203.484 101.728,200.374 101.597,196.764 101.554 C 186.308 101.430,186.600 101.020,186.600 115.816 C 186.600 126.988,186.717 127.685,188.782 128.790 C 189.281 129.057,195.837 129.255,206.882 129.336 C 226.213 129.478,230.791 130.078,227.204 131.998 C 225.077 133.136,225.019 133.628,224.755 152.800 C 224.590 164.797,224.351 171.187,224.023 172.400 C 223.098 175.822,223.079 179.541,223.969 183.496 C 224.794 187.166,224.800 187.717,224.810 262.896 C 224.816 313.685,224.956 339.192,225.234 340.400 C 226.193 344.562,230.474 346.397,234.584 344.408 C 237.029 343.224,255.737 324.296,256.770 321.960 C 257.585 320.119,258.376 312.938,261.000 283.600 C 261.561 277.330,262.194 270.760,262.407 269.000 C 262.620 267.240,262.972 263.640,263.189 261.000 C 263.407 258.360,263.949 252.330,264.395 247.600 C 265.558 235.254,267.573 213.347,268.019 208.200 C 268.228 205.780,268.661 201.370,268.980 198.400 C 269.299 195.430,269.675 191.740,269.816 190.200 C 269.957 188.660,270.472 186.140,270.961 184.600 L 271.849 181.800 272.555 183.269 C 273.854 185.970,274.057 186.000,291.101 186.000 C 311.976 186.000,310.200 187.211,310.200 172.982 C 310.200 159.489,310.269 159.590,301.600 160.346 C 274.476 162.712,275.493 162.485,273.796 166.549 C 273.442 167.394,273.071 168.004,272.971 167.904 C 272.554 167.487,272.809 157.705,273.411 151.000 C 274.927 134.112,274.908 133.568,272.719 131.856 L 271.466 130.875 273.033 130.361 C 274.204 129.977,280.615 129.791,298.400 129.624 C 323.502 129.388,323.441 129.393,324.433 127.539 C 325.029 126.425,324.953 97.833,324.351 96.708 C 323.264 94.678,321.005 94.630,299.200 96.175 C 285.017 97.180,281.726 97.304,277.001 97.009 C 272.366 96.719,271.450 96.318,274.360 95.853 C 278.097 95.255,279.055 93.285,279.452 85.381 C 279.833 77.784,278.666 75.438,274.012 74.440 C 270.925 73.778,232.811 73.890,230.288 74.568 M275.118 75.725 C 278.021 77.298,278.652 79.937,277.848 87.141 C 277.099 93.851,277.381 93.617,269.533 94.053 C 266.160 94.241,260.070 94.665,256.000 94.996 C 251.930 95.327,244.416 95.783,239.303 96.009 C 234.189 96.234,229.483 96.523,228.844 96.651 C 226.272 97.166,226.000 96.250,226.003 87.100 C 226.007 74.784,225.076 75.468,242.200 75.200 C 266.896 74.814,273.634 74.922,275.118 75.725 M321.677 96.015 C 323.746 96.589,323.735 96.504,323.676 112.104 C 323.622 126.588,323.528 127.406,321.888 127.809 C 319.069 128.503,190.019 128.188,189.315 127.486 C 188.662 126.833,188.600 125.789,188.600 115.350 L 188.600 103.929 189.595 103.123 C 190.551 102.350,190.947 102.328,199.395 102.592 C 207.688 102.851,215.738 102.569,227.600 101.606 C 230.130 101.401,235.800 101.046,240.200 100.818 C 244.600 100.590,251.710 100.130,256.000 99.796 C 260.290 99.461,268.390 98.910,274.000 98.572 C 283.765 97.982,294.133 97.332,308.400 96.413 C 312.030 96.179,316.080 95.935,317.400 95.870 C 318.720 95.805,319.890 95.718,320.000 95.678 C 320.110 95.637,320.865 95.789,321.677 96.015 M76.429 97.454 C 75.306 98.881,75.121 125.538,76.223 127.111 C 77.104 128.370,77.646 128.216,76.987 126.894 C 76.398 125.713,76.048 99.731,76.602 98.322 C 77.010 97.285,78.587 96.951,81.528 97.280 C 82.998 97.444,89.870 97.763,96.800 97.988 C 124.751 98.896,126.259 99.077,127.542 101.668 C 128.478 103.558,128.853 102.443,128.019 100.250 C 127.266 98.271,123.454 97.899,92.753 96.818 C 76.418 96.242,77.413 96.203,76.429 97.454 M272.587 133.741 C 273.241 134.219,273.298 134.652,273.071 137.441 C 272.930 139.179,272.541 144.110,272.206 148.400 C 271.871 152.690,271.426 157.460,271.218 159.000 C 271.009 160.540,270.731 163.510,270.599 165.600 C 270.467 167.690,270.188 171.110,269.980 173.200 C 269.772 175.290,269.429 178.980,269.218 181.400 C 269.007 183.820,268.473 189.400,268.032 193.800 C 266.470 209.365,265.593 218.711,264.806 228.200 C 264.368 233.480,263.834 239.330,263.620 241.200 C 263.406 243.070,262.946 247.750,262.597 251.600 C 261.408 264.722,260.392 275.394,259.988 279.000 C 259.766 280.980,259.327 285.660,259.011 289.400 C 256.157 323.235,256.608 321.126,251.048 326.600 C 249.037 328.580,244.693 332.975,241.396 336.367 C 233.861 344.117,231.590 345.258,228.166 343.015 C 225.943 341.558,226.083 347.289,225.996 254.194 C 225.878 128.719,225.837 134.963,226.800 134.000 C 227.833 132.967,271.194 132.722,272.587 133.741 M94.700 160.800 C 92.044 162.470,91.797 182.607,94.416 184.008 C 95.565 184.624,95.625 184.490,94.823 183.100 C 94.025 181.718,93.437 164.508,94.121 162.561 C 94.691 160.936,95.929 160.766,102.504 161.410 C 105.857 161.738,111.390 162.196,114.800 162.428 C 118.210 162.660,123.323 163.115,126.161 163.439 C 129.000 163.764,135.091 164.202,139.698 164.414 C 144.304 164.625,148.200 164.876,148.355 164.972 C 148.509 165.067,151.958 165.348,156.018 165.595 C 160.078 165.842,164.570 166.219,166.000 166.433 C 167.430 166.646,171.300 166.990,174.600 167.196 C 177.900 167.403,182.400 167.838,184.600 168.165 C 191.243 169.151,201.700 169.800,210.931 169.800 C 218.470 169.800,219.725 169.887,220.131 170.440 C 221.108 171.773,220.747 182.629,219.689 183.688 L 218.779 184.600 195.089 184.849 C 153.064 185.291,153.968 185.272,156.600 185.644 C 157.920 185.831,172.767 185.869,189.594 185.729 L 220.187 185.474 221.259 184.402 C 222.603 183.059,222.917 181.118,222.737 175.288 C 222.530 168.608,221.752 168.043,213.779 168.785 C 210.551 169.086,207.531 169.098,204.049 168.826 C 201.272 168.609,196.234 168.228,192.853 167.979 C 189.246 167.714,185.062 167.129,182.728 166.563 C 179.957 165.893,177.572 165.597,174.875 165.590 C 172.744 165.585,170.280 165.404,169.400 165.187 C 167.873 164.811,165.094 164.623,146.400 163.626 C 135.163 163.027,121.117 162.066,113.200 161.355 C 103.766 160.508,95.556 160.261,94.700 160.800 M148.200 161.016 C 150.180 161.299,152.970 161.526,154.400 161.519 C 156.924 161.508,156.883 161.492,153.000 160.976 C 150.800 160.683,148.010 160.457,146.800 160.472 C 144.790 160.498,144.911 160.545,148.200 161.016 M307.326 161.260 C 308.759 162.014,308.788 162.225,308.794 172.074 C 308.800 182.082,308.608 183.389,307.041 183.985 C 305.505 184.568,275.248 184.608,274.671 184.027 C 274.109 183.461,274.143 178.793,274.746 173.712 C 274.975 171.780,275.274 169.159,275.412 167.887 C 275.837 163.943,276.369 163.604,283.224 162.919 C 286.401 162.602,291.970 162.018,295.600 161.622 C 303.679 160.741,306.193 160.664,307.326 161.260 M272.990 172.700 C 272.837 174.405,272.552 175.971,272.356 176.180 C 271.872 176.697,271.902 175.784,272.481 172.407 C 273.115 168.714,273.336 168.842,272.990 172.700 M161.200 187.653 C 139.651 188.107,140.084 187.947,140.823 195.200 C 141.014 197.070,141.361 201.120,141.595 204.200 C 142.006 209.601,142.218 211.778,143.990 228.800 C 144.437 233.090,145.075 240.020,145.409 244.200 C 145.742 248.380,146.183 253.330,146.388 255.200 C 146.593 257.070,146.872 260.220,147.007 262.200 C 147.142 264.180,147.415 266.880,147.612 268.200 C 147.810 269.520,148.248 274.200,148.586 278.600 C 148.924 283.000,149.385 288.068,149.610 289.863 C 150.076 293.574,150.933 302.841,151.787 313.411 C 152.605 323.524,152.875 324.591,155.176 326.800 C 159.169 330.634,160.786 331.558,157.593 328.181 C 153.656 324.017,153.629 323.916,152.405 309.000 C 152.170 306.140,151.529 299.300,150.980 293.800 C 150.431 288.300,149.803 281.550,149.585 278.800 C 149.366 276.050,148.919 271.280,148.590 268.200 C 148.262 265.120,147.809 260.260,147.583 257.400 C 147.357 254.540,146.999 250.670,146.788 248.800 C 146.577 246.930,146.129 241.980,145.791 237.800 C 145.454 233.620,145.100 229.930,145.005 229.600 C 144.909 229.270,144.643 226.390,144.413 223.200 C 144.182 220.010,143.738 215.420,143.424 213.000 C 143.110 210.580,142.646 205.810,142.394 202.400 C 142.141 198.990,141.836 195.004,141.717 193.542 C 141.358 189.169,140.216 189.400,162.182 189.400 C 181.823 189.400,182.615 189.462,183.214 191.037 C 183.821 192.633,183.687 339.015,183.077 340.786 C 181.244 346.109,176.140 345.111,168.550 337.947 C 166.367 335.886,163.775 333.599,162.790 332.865 C 160.660 331.276,165.686 336.199,170.691 340.604 C 176.635 345.834,181.092 346.292,183.481 341.918 C 184.324 340.373,185.023 193.240,184.200 190.438 C 183.249 187.202,183.160 187.191,161.200 187.653 " stroke="none" fill="#448c7c" fill-rule="evenodd"></path><path id="path6" d="M135.274 72.018 C 128.711 73.346,127.176 77.500,128.415 90.571 C 128.960 96.320,129.188 96.115,122.784 95.615 C 120.043 95.401,112.760 95.034,106.600 94.801 C 100.440 94.568,93.060 94.203,90.200 93.989 C 78.366 93.108,75.480 93.532,73.814 96.400 C 72.645 98.411,72.544 126.566,73.698 128.676 C 74.965 130.993,77.637 132.001,78.800 130.600 C 79.223 130.090,79.124 130.000,78.138 130.000 C 74.614 130.000,74.433 129.164,74.379 112.631 C 74.316 92.873,72.797 94.440,91.112 95.357 C 98.091 95.707,108.030 96.188,113.200 96.426 C 121.641 96.816,124.590 97.086,128.646 97.843 C 130.335 98.158,130.465 97.301,129.767 90.426 C 128.773 80.627,129.007 78.118,131.125 75.850 C 133.638 73.160,133.057 73.219,157.313 73.209 C 181.677 73.199,180.807 73.110,183.752 75.920 L 185.303 77.400 185.020 76.200 C 184.645 74.608,183.869 73.805,181.647 72.710 C 179.665 71.733,139.630 71.136,135.274 72.018 M231.800 71.790 C 231.580 71.870,230.751 72.043,229.957 72.175 C 224.267 73.122,223.048 75.829,222.800 88.068 C 222.690 93.495,222.465 98.070,222.300 98.235 C 221.498 99.033,216.146 99.344,202.600 99.380 C 189.010 99.416,186.102 99.594,186.575 100.360 C 186.669 100.512,194.003 100.611,202.873 100.580 C 223.584 100.507,225.240 100.227,224.333 96.943 C 224.117 96.159,224.001 91.772,224.072 87.066 C 224.218 77.432,224.385 76.833,227.553 74.606 L 229.268 73.400 251.743 73.290 L 274.218 73.181 276.402 74.290 C 280.603 76.424,281.848 84.028,279.518 93.326 C 279.112 94.945,279.128 95.315,279.618 95.654 C 280.268 96.104,292.133 95.829,298.400 95.218 C 307.128 94.368,321.955 93.884,323.220 94.408 C 325.561 95.378,325.667 96.016,325.879 110.347 C 326.104 125.581,325.978 127.164,324.401 128.930 L 323.267 130.200 300.133 130.400 C 273.351 130.632,275.055 130.375,275.431 134.119 C 275.578 135.581,275.335 140.297,274.841 145.600 C 273.267 162.472,273.305 162.751,277.030 161.840 C 278.333 161.521,281.020 161.147,283.000 161.009 C 284.980 160.871,289.870 160.408,293.867 159.980 C 311.551 158.085,311.200 157.824,311.199 172.887 C 311.198 187.890,312.838 186.748,291.192 186.819 C 280.349 186.854,274.628 186.727,273.874 186.436 C 271.482 185.510,271.022 186.520,270.425 194.000 C 270.170 197.190,269.886 200.070,269.793 200.400 C 269.700 200.730,269.349 204.150,269.013 208.000 C 268.678 211.850,268.149 217.520,267.837 220.600 C 267.526 223.680,267.178 228.000,267.064 230.200 L 266.857 234.200 267.409 232.000 C 267.713 230.790,268.073 228.000,268.210 225.800 C 268.346 223.600,268.710 220.289,269.019 218.443 C 269.327 216.596,269.771 211.916,270.005 208.043 C 270.398 201.531,270.607 199.437,271.623 191.846 C 272.175 187.722,270.533 188.063,290.030 188.017 C 313.835 187.961,312.394 188.976,312.398 172.260 C 312.401 160.016,312.117 159.115,307.906 157.976 C 306.551 157.610,293.228 158.412,290.606 159.018 C 290.163 159.121,286.664 159.473,282.830 159.801 C 274.640 160.502,274.157 160.363,274.573 157.413 C 274.698 156.526,275.074 153.190,275.408 150.000 C 275.742 146.810,276.182 142.760,276.386 141.000 C 276.590 139.240,276.767 136.685,276.778 135.323 C 276.813 131.325,275.034 131.600,300.830 131.600 L 323.082 131.600 324.441 130.685 C 327.011 128.955,327.000 129.034,327.000 112.000 C 327.000 90.872,328.291 92.451,311.600 93.163 C 305.550 93.421,297.810 93.889,294.400 94.204 C 281.468 95.395,280.526 95.192,280.954 91.299 C 282.338 78.715,281.421 74.958,276.400 72.633 C 274.750 71.870,233.730 71.094,231.800 71.790 M131.600 130.376 C 131.600 131.023,131.759 131.651,131.954 131.771 C 132.413 132.055,132.698 134.137,133.216 141.000 C 133.448 144.080,133.900 148.755,134.219 151.388 C 134.910 157.084,134.957 159.856,134.368 160.220 C 133.864 160.531,122.508 159.806,115.000 158.983 C 94.698 156.758,91.665 157.306,90.395 163.425 C 89.549 167.501,90.009 182.636,91.039 184.600 C 92.128 186.676,94.010 187.837,95.231 187.184 C 96.069 186.735,96.042 186.691,94.521 186.009 C 91.795 184.789,91.600 183.924,91.600 173.048 C 91.600 157.307,90.303 158.064,113.600 160.193 C 136.232 162.260,137.011 162.262,136.655 160.244 C 135.935 156.151,135.626 153.217,134.020 135.268 C 133.668 131.331,132.955 129.200,131.991 129.200 C 131.776 129.200,131.600 129.729,131.600 130.376 M186.889 130.337 C 186.254 130.739,187.963 131.600,189.395 131.600 C 190.359 131.600,191.077 131.006,190.507 130.680 C 189.788 130.270,187.359 130.039,186.889 130.337 M223.067 131.467 C 222.920 131.613,222.800 139.153,222.800 148.222 C 222.800 163.420,222.744 164.780,222.090 165.588 C 220.496 167.556,190.889 166.536,186.855 164.374 C 185.337 163.560,184.800 163.665,184.800 164.775 C 184.800 166.631,199.186 168.144,214.600 167.910 C 218.560 167.849,222.055 167.890,222.367 168.000 C 223.820 168.512,223.988 166.715,223.994 150.597 C 223.997 141.629,224.167 134.414,224.392 133.628 C 224.873 131.951,224.003 130.531,223.067 131.467 M222.224 187.700 C 222.397 188.415,222.643 223.290,222.769 265.200 C 223.023 349.108,222.825 343.103,225.405 345.133 C 227.415 346.713,228.254 346.210,226.461 344.500 C 223.863 342.022,224.005 346.621,224.000 264.600 C 223.997 213.713,223.861 188.915,223.579 187.900 C 223.031 185.926,221.748 185.736,222.224 187.700 M138.671 188.322 C 137.834 189.246,137.820 191.260,138.598 198.400 C 138.922 201.370,139.465 207.220,139.805 211.400 C 140.145 215.580,140.505 219.232,140.604 219.515 C 140.704 219.798,141.063 223.398,141.401 227.515 C 141.740 231.632,142.184 236.350,142.389 238.000 C 142.594 239.650,142.864 242.440,142.990 244.200 C 143.264 248.046,144.597 262.360,145.429 270.400 C 145.759 273.590,146.293 279.591,146.614 283.737 C 146.935 287.882,147.278 291.403,147.377 291.563 C 147.475 291.722,147.748 294.540,147.982 297.826 C 148.217 301.112,148.671 306.140,148.992 309.000 C 149.313 311.860,149.754 316.310,149.972 318.889 C 150.508 325.231,152.087 328.800,154.359 328.800 C 154.795 328.800,154.734 328.575,154.117 327.900 C 152.198 325.802,151.404 322.921,151.004 316.600 C 150.865 314.400,150.502 310.350,150.198 307.600 C 149.895 304.850,149.534 300.980,149.396 299.000 C 149.258 297.020,148.900 293.510,148.600 291.200 C 148.301 288.890,147.941 285.110,147.802 282.800 C 147.663 280.490,147.212 275.450,146.801 271.600 C 146.390 267.750,145.941 263.070,145.804 261.200 C 145.667 259.330,145.389 256.450,145.187 254.800 C 144.984 253.150,144.627 249.100,144.393 245.800 C 144.159 242.500,143.720 237.550,143.417 234.800 C 142.907 230.173,141.791 218.521,140.064 199.800 C 139.592 194.687,139.476 191.561,139.709 190.248 C 140.107 188.006,139.677 187.210,138.671 188.322 M185.507 188.281 C 185.417 188.456,185.509 189.572,185.711 190.759 C 186.119 193.150,186.783 192.899,186.794 190.349 C 186.800 189.011,185.886 187.543,185.507 188.281 M266.234 238.300 C 266.079 239.785,265.706 243.790,265.404 247.200 C 265.103 250.610,264.676 255.290,264.456 257.600 C 263.429 268.369,263.112 272.445,263.287 272.620 C 263.590 272.924,265.128 261.102,265.553 255.200 C 265.767 252.230,266.056 249.350,266.196 248.800 C 266.515 247.542,266.985 235.600,266.715 235.600 C 266.605 235.600,266.389 236.815,266.234 238.300 M262.457 278.500 C 260.888 295.479,260.403 301.036,260.425 301.774 L 260.451 302.600 260.786 301.772 C 261.181 300.796,261.573 297.143,261.791 292.400 C 261.878 290.530,262.211 287.888,262.532 286.529 C 263.040 284.379,263.510 273.200,263.093 273.200 C 263.013 273.200,262.727 275.585,262.457 278.500 M259.208 313.402 C 258.926 316.701,258.386 320.345,258.009 321.500 C 257.118 324.233,257.384 324.169,258.679 321.340 C 259.896 318.682,260.867 309.973,260.131 308.323 C 259.808 307.599,259.612 308.680,259.208 313.402 M253.600 327.400 C 251.740 329.270,250.399 330.800,250.621 330.800 C 250.843 330.800,252.014 329.765,253.223 328.500 C 258.362 323.122,258.629 322.345,253.600 327.400 M243.789 337.700 L 241.000 340.600 243.900 337.811 C 246.594 335.220,246.983 334.800,246.689 334.800 C 246.628 334.800,245.323 336.105,243.789 337.700 M239.375 342.100 L 238.200 343.400 239.500 342.225 C 240.215 341.579,240.800 340.994,240.800 340.925 C 240.800 340.616,240.470 340.888,239.375 342.100 " stroke="none" fill="#343634" fill-rule="evenodd"></path><path id="path7" d="M185.122 76.900 C 185.215 77.615,185.425 83.060,185.589 89.000 C 185.924 101.146,185.824 100.000,186.551 100.000 C 187.459 100.000,188.061 99.021,187.499 98.459 C 187.152 98.112,187.008 95.364,186.985 88.688 C 186.955 80.104,186.888 79.256,186.099 77.500 C 185.093 75.261,184.895 75.139,185.122 76.900 M129.600 129.687 C 128.660 129.966,120.375 130.023,104.400 129.862 C 80.046 129.616,78.971 129.667,78.498 131.100 C 78.321 131.638,125.181 131.860,129.500 131.341 C 131.369 131.116,131.600 130.985,131.600 130.144 C 131.600 129.100,131.588 129.098,129.600 129.687 M191.800 130.669 C 188.937 131.416,191.636 131.600,205.494 131.600 C 214.079 131.600,221.182 131.765,221.740 131.977 C 222.710 132.346,223.632 131.500,222.976 130.843 C 222.678 130.544,192.913 130.378,191.800 130.669 M186.187 131.400 C 186.084 131.730,185.918 132.265,185.817 132.588 C 185.274 134.336,185.543 163.804,186.103 163.918 C 186.994 164.099,187.200 160.695,187.200 145.821 C 187.200 135.793,187.321 132.439,187.697 132.063 C 188.092 131.668,188.072 131.490,187.597 131.189 C 186.755 130.657,186.403 130.710,186.187 131.400 M95.488 186.965 C 94.212 187.934,95.540 188.000,116.207 188.000 C 127.775 188.000,136.768 188.160,137.335 188.375 C 138.113 188.671,138.467 188.589,139.013 187.985 C 139.676 187.253,139.660 187.203,138.627 186.810 C 136.857 186.137,96.388 186.283,95.488 186.965 M203.600 186.790 C 186.091 187.006,185.030 187.107,186.235 188.438 C 186.795 189.057,187.032 189.105,187.521 188.700 C 187.973 188.324,191.708 188.196,202.760 188.176 C 222.693 188.140,222.000 188.175,222.000 187.200 C 222.000 186.671,221.763 186.430,221.300 186.490 C 220.915 186.539,212.950 186.674,203.600 186.790 M186.400 192.400 C 185.874 193.276,185.775 202.552,185.600 267.200 L 185.400 341.000 184.460 342.590 C 181.310 347.921,176.572 347.569,169.737 341.498 C 164.490 336.837,157.054 330.286,156.355 329.709 C 155.734 329.195,153.200 328.305,153.200 328.600 C 153.200 328.679,155.135 330.416,157.500 332.461 C 159.865 334.505,163.600 337.856,165.800 339.908 C 174.688 348.196,179.205 349.581,183.901 345.458 C 187.295 342.478,186.985 349.736,187.118 270.200 C 187.251 190.257,187.258 190.970,186.400 192.400 M270.588 198.988 C 270.431 200.664,270.393 202.126,270.503 202.236 C 270.613 202.346,270.831 201.064,270.988 199.388 C 271.145 197.712,271.184 196.250,271.074 196.140 C 270.964 196.030,270.745 197.312,270.588 198.988 M267.232 233.098 C 266.958 234.584,266.794 237.060,266.867 238.600 C 266.994 241.271,267.025 241.156,267.551 236.085 C 268.156 230.253,268.009 228.875,267.232 233.098 M265.869 250.356 C 265.721 251.095,265.622 252.353,265.649 253.150 C 265.686 254.249,265.782 254.018,266.048 252.200 C 266.431 249.571,266.299 248.205,265.869 250.356 M263.900 269.639 C 263.514 272.148,263.220 275.460,263.245 277.000 C 263.281 279.255,263.437 278.476,264.045 273.000 C 264.944 264.902,264.874 263.292,263.900 269.639 M262.249 287.681 C 261.858 289.773,261.487 294.622,261.736 294.385 C 262.037 294.100,262.920 286.786,262.682 286.548 C 262.580 286.446,262.385 286.956,262.249 287.681 M261.693 296.000 C 261.693 296.770,261.775 297.085,261.876 296.700 C 261.976 296.315,261.976 295.685,261.876 295.300 C 261.775 294.915,261.693 295.230,261.693 296.000 M261.095 299.800 C 260.973 300.680,260.653 302.769,260.384 304.441 C 260.051 306.507,260.019 307.854,260.284 308.641 C 260.608 309.604,260.762 308.915,261.195 304.573 C 261.676 299.740,261.602 296.151,261.095 299.800 M258.247 322.143 C 257.315 324.050,255.170 326.439,247.029 334.637 C 235.270 346.478,234.993 346.665,229.829 346.234 C 226.543 345.960,226.168 346.279,228.760 347.145 C 233.522 348.738,235.307 347.607,247.541 335.246 C 257.493 325.190,259.985 322.082,259.529 320.292 C 259.458 320.013,258.881 320.846,258.247 322.143 " stroke="none" fill="#04244c" fill-rule="evenodd"></path></g></svg>